<?xml version="1.0" encoding="UTF-8"?>
<svg width="31px" height="32px" viewBox="0 0 31 32" version="1.1" xmlns="http://www.w3.org/2000/svg" xmlns:xlink="http://www.w3.org/1999/xlink">
    <title>icon_fb_amarillo</title>
    <g id="Page-1" stroke="none" stroke-width="1" fill="none" fill-rule="evenodd">
        <g id="STYLE-GUIDE" transform="translate(-1231.000000, -378.000000)" fill="current" fill-rule="nonzero">
            <g id="NAV-01" transform="translate(0.000000, 273.000000)">
                <g id="icon_fb_amarillo" transform="translate(1231.000000, 105.273000)">
                    <path d="M9.66655241,11.3738857 L12.1204571,11.3738857 L12.1204571,10.2596 L12.1204571,9.16636191 L12.1204571,8.98807619 C12.1204571,7.93569524 12.1501714,6.31131429 12.9116,5.30845715 C13.7163619,4.24864762 14.8219809,3.52436191 16.7199809,3.52436191 C19.8102667,3.52436191 21.1164571,3.96388572 21.1164571,3.96388572 L20.5060762,7.59893334 C20.5060762,7.59893334 19.4834095,7.30426667 18.5288381,7.30426667 C17.5742667,7.30426667 16.7199809,7.64721905 16.7199809,8.60302858 L16.7199809,8.98807619 L16.7199809,10.2596 L16.7199809,11.3738857 L20.6298857,11.3738857 L20.361219,14.9235048 L16.7199809,14.9235048 L16.7199809,27.2549333 L12.1204571,27.2549333 L12.1204571,14.9235048 L9.66655241,14.9235048 L9.66655241,11.3738857 Z" id="Fill-6"></path>
                    <path d="M18.3646667,30.7802857 L6.40342857,30.7802857 C2.87609523,30.7802857 0.003714285,27.9091429 0,24.3780952 L0,6.39971429 C0.003714285,2.87114286 2.87485714,0 6.39971428,0 L24.3780952,0 C27.9103809,0 30.784,2.87114286 30.784,6.39971429 L30.784,24.3780952 C30.784,27.9091429 27.9128571,30.7802857 24.3818095,30.7802857 L18.3646667,30.7802857 Z M15.3573333,28.5665714 L24.3818095,28.5665714 C26.6512381,28.5665714 28.5702857,26.65 28.5702857,24.3780952 L28.5702857,6.39971429 C28.5702857,4.13276191 26.6512381,2.21371429 24.3780952,2.21371429 L6.39971428,2.21371429 C4.1327619,2.21371429 2.21742857,4.13276191 2.21495238,6.39971429 L2.21495238,24.3780952 C2.21742857,26.65 4.134,28.5665714 6.40342857,28.5665714 L15.3573333,28.5665714 Z" id="Fill-8"></path>
                </g>
            </g>
        </g>
    </g>
</svg>