<?xml version="1.0" encoding="UTF-8"?>
<svg width="32px" height="32px" viewBox="0 0 32 32" version="1.1" xmlns="http://www.w3.org/2000/svg" xmlns:xlink="http://www.w3.org/1999/xlink">
    <title>icon_ig_02</title>
    <g id="Page-1" stroke="none" stroke-width="1" fill="none" fill-rule="evenodd">
        <g id="STYLE-GUIDE" transform="translate(-1187.000000, -2909.000000)" fill="#9289BE" fill-rule="nonzero">
            <g id="06.-Footer" transform="translate(0.000000, 2621.000000)">
                <g id="Group" transform="translate(783.000000, 288.000000)">
                    <g id="Redes" transform="translate(346.000000, 0.000000)">
                        <g id="icon_ig_02" transform="translate(58.784000, 0.000000)">
                            <path d="M15.1258095,23.7604095 C10.5720952,23.7604095 6.86647619,20.0547905 6.86647619,15.5010762 C6.86647619,13.2564095 7.78885714,11.0711714 9.39838095,9.50745715 C10.9670476,7.9846 13.0160952,7.1786 15.1666667,7.24174286 C17.7369524,7.31850477 19.8714286,8.18393334 21.3373333,9.74888571 C22.7277143,11.2321238 23.4346667,13.2316476 23.3839048,15.5307905 C23.3368572,17.7333619 22.4677143,19.7947905 20.9386667,21.336219 C19.3898095,22.8999333 17.3246667,23.7604095 15.1258095,23.7604095 M14.9351429,10.0225048 C13.598,10.0225048 12.3252381,10.5449809 11.3372381,11.5045048 C10.2650476,12.5469809 9.64971429,14.004219 9.64971429,15.5010762 C9.64971429,18.5207905 12.1060952,20.9771714 15.1258095,20.9771714 C18.1281905,20.9771714 20.5350476,18.5579333 20.6019048,15.4701238 C20.6365714,13.9138381 20.188381,12.5927905 19.3068572,11.6518381 C18.3584762,10.6403143 16.8987619,10.0769809 15.0861905,10.0237429 C15.0354286,10.0225048 14.9859048,10.0225048 14.9351429,10.0225048" id="Fill-13"></path>
                            <path d="M25.5112,7.00860953 C25.5112,8.07337143 24.6494857,8.93508572 23.5847238,8.93508572 C22.5199619,8.93508572 21.6582476,8.07337143 21.6582476,7.00860953 C21.6582476,5.94508572 22.5199619,5.08213334 23.5847238,5.08213334 C24.6494857,5.08213334 25.5112,5.94508572 25.5112,7.00860953" id="Fill-15"></path>
                            <path d="M21.3707619,31.0885714 L8.88085714,31.0885714 C3.98419048,31.0885714 0,27.1043809 0,22.2077143 L0,8.88085715 C0,3.98295238 3.98419048,0 8.88085714,0 L21.3707619,0 C26.2674286,0 30.2516191,3.98295238 30.2516191,8.88085715 L30.2516191,22.2077143 C30.2516191,27.1043809 26.2674286,31.0885714 21.3707619,31.0885714 L21.3707619,31.0885714 Z M8.88085714,2.27685715 C5.23961905,2.27685715 2.27809524,5.23961905 2.27809524,8.88085715 L2.27809524,22.2077143 C2.27809524,25.8489524 5.23961905,28.8117143 8.88085714,28.8117143 L21.3707619,28.8117143 C25.012,28.8117143 27.9735238,25.8489524 27.9735238,22.2077143 L27.9735238,8.88085715 C27.9735238,5.23961905 25.012,2.27685715 21.3707619,2.27685715 L8.88085714,2.27685715 Z" id="Fill-10"></path>
                        </g>
                    </g>
                </g>
            </g>
        </g>
    </g>
</svg>