<svg xmlns="http://www.w3.org/2000/svg" viewBox="0 0 739.46 349.45"><defs><style>.cls-1{fill:#f3e001;}.cls-2{fill:#231f20;}</style></defs><g id="Layer_2" data-name="Layer 2"><g id="a"><path class="cls-1" d="M405.27,345.45c-3.11,0-6.41-2.13-13.21-12.69-4.19-4.91-6.92-8.22-8.7-10.51a10,10,0,0,1-1.67.78,4.17,4.17,0,0,1-1.4.25c-2.43,0-3.68-.64-11.79-13.13a3.94,3.94,0,0,1-.37-.74c-.93-2.39-3.56-7.49-10.81-18.12a3.94,3.94,0,0,1-.7-2.25c0-.13-.06-1-1.45-2.72a4,4,0,0,1-1.42.26,3.91,3.91,0,0,1-1.49-.29c-2.52-1-5.36-3.93-10.73-14.49h-1.37c-5.08,0-8.37-3.11-8.37-7.92a4,4,0,0,1,2.47-3.7c-5.81-8.71-9.3-14.26-10.63-16.89-1.21-2.4-2.15-4.16-2.88-5.45-1.12,2.59-2.83,6.75-5.45,13.42a4,4,0,0,1-2,2.13l-.94.46a4,4,0,0,1-1.76.41H310l-.41,0c-.84,2.32-1.9,5.17-3.23,8.71-3.35,15.46-5.31,19.48-9.47,19.48h-.31a4,4,0,0,1-3.2-1.6L289,294.27a22,22,0,0,1-1.12,4.78,2,2,0,0,1,0,.25c-.65,5-3.92,5.34-4.91,5.34h-.31a5.18,5.18,0,0,1-1.61-.24v6.39a9.91,9.91,0,0,1-.82,3.38c.14.63.42,1.78,1,3.89a4,4,0,0,1,.11,1.5c-.58,5.07-3.63,5.62-4.91,5.62h-.63a4,4,0,0,1-3.43-1.94c-2-3.37-3.4-9.48-4.3-19.23a4,4,0,0,1,.1-1.33,5.88,5.88,0,0,0,.19-1.12v-1.38c0-.7,0-1.37,0-2h-.66a4.45,4.45,0,0,1-4.61-4.12c-.17-1.45-.33-2.76-.47-3.95h-.21a4,4,0,0,1-3.22-1.63c-.93-1.26-1.32-1.79-2.9-27a6.56,6.56,0,0,1-.38-2.35,1.93,1.93,0,0,1,0-.24c.18-3.05.28-5.53.3-7.22-.05-.17-.15-.47-.32-.94-2.61.83-5.63,1.65-9.14,2.46-.76,1.05-2.84,4.68-7.12,16.74a4.29,4.29,0,0,1-.26.58,85,85,0,0,0-5,12.1,8.69,8.69,0,0,1-5,4.06h-.94a4.09,4.09,0,0,1-1.17-.17l-1.64,4.29c0,.12-.1.24-.16.36-3,6.17-5.74,12.13-8,17.71a4.05,4.05,0,0,1-.57,1c-1.5,1.9-3,3.6-5.33,3.6a4,4,0,0,1-3.65-2.36l-.62-1.38a3.94,3.94,0,0,1-.29-2.32c.28-1.62,1.28-5.6,3-12a4,4,0,0,1-2.83-2.45l-.63-1.62a4,4,0,0,1-.12-2.55q1.76-6.15,3.18-10.58a4,4,0,0,1-1.63-2.28l-.31-1.15a3.87,3.87,0,0,1,0-2.08c1.08-4,2.13-7.58,3.16-10.65l-.73.15c-.66,2.76-1.33,5.25-2,7.43a3.12,3.12,0,0,1-.15.39,70.48,70.48,0,0,0-3.52,9.33,4,4,0,0,1-.56,4.38l-2.19,2.54a4,4,0,0,1-3,1.39h-.31a4,4,0,0,1-2.2-.66c-2.64,9.08-5.39,15.7-8.34,20.11-2.53,5.49-3.14,7.14-3.29,7.61a4,4,0,0,1-4,3.42h-.94a4,4,0,0,1-3-1.34c-.43,1-.87,2.26-1.31,3.65a4,4,0,0,1-1.33,1.91c-.26.39-1.25,2.17-2.64,8.36a4,4,0,0,1-3.9,3.12H167a4.07,4.07,0,0,1-.5,0c-2-.26-4.44-1.94-4.44-5.82v-.46a22.6,22.6,0,0,1,.93-4.83c0-.54-.09-1.47-.27-3a4,4,0,0,1,.17-1.72c1-3,1.68-5.34,2.17-7.21h-.55a4,4,0,0,1-3.79-2.72l-.31-.92a4,4,0,0,1-.07-2.32l2.77-10.24a60.09,60.09,0,0,1,5.65-16.4,4.57,4.57,0,0,1,.29-.47,44.44,44.44,0,0,0,4.53-9.48,4.09,4.09,0,0,1-.37-.79l-.31-.92a4,4,0,0,1-.18-1.75A18.5,18.5,0,0,1,175.4,258a4,4,0,0,1,1.33-2.19c1.12-1.79,2.5-3.82,4.09-6,.48-1.45,1.75-4.23,5.16-10.71-2.3,1.21-4.3,3.56-6,7a3.89,3.89,0,0,1-1.19,1.45c-3.28,2.48-5.75,3.58-8,3.58a13.79,13.79,0,0,1-8.94-3.22h-2.3a4,4,0,0,1-2.41-.8c-2.38-1.8-4-4.58-5-8.42a53.54,53.54,0,0,0-2.8,7.91,4.15,4.15,0,0,1-.45,1,92.41,92.41,0,0,0-7.78,15.93,3.94,3.94,0,0,1-.37.74,10.86,10.86,0,0,1-4.5,4.24,4,4,0,0,1-1.68.37h-.31a4.34,4.34,0,0,1-1-.13c-.44,1-.93,2.07-1.46,3.29l-2.74,9c0,.14-.1.28-.16.41a65.74,65.74,0,0,0-3.51,11.73,3.81,3.81,0,0,1-.38,1,130.08,130.08,0,0,0-9.31,21.91c-.54,3.16-1.41,7.69-5.46,7.69a4.45,4.45,0,0,1-4.63-4.46v-9.86a4.42,4.42,0,0,1-4.36-4.45v-.23a3.55,3.55,0,0,1,0-.46,62.61,62.61,0,0,1,2.39-12.25,4.38,4.38,0,0,1-3.67-4.37,4,4,0,0,1,.47-1.89c.15-.27.93-2,2.08-9.14a4.34,4.34,0,0,1,.16-.62c.57-1.73,1.14-3.39,1.72-5a3.86,3.86,0,0,1-.6-.54l-.62-.69a4,4,0,0,1-1-2.67v-.46a4.13,4.13,0,0,1,.25-1.4,211.92,211.92,0,0,1,10.68-23c.54-1.39,2-4.22,6.09-11.71.35-1.5,1.5-3.92,5.16-9.39,0-.37,0-.65,0-.86a4,4,0,0,1-.19-3.81c5.55-11.56,9-19.74,10.39-24.32a4,4,0,0,1,1.06-1.76,9.42,9.42,0,0,0,3.15-7.05,4,4,0,0,1,.71-2.28,25.42,25.42,0,0,0,4.06-9.4,3.79,3.79,0,0,1,.45-1.17c1.48-2.57,4.57-5.61,10.89-5.9a37.5,37.5,0,0,0,4.43-5,3.81,3.81,0,0,1,.7-.69,11.35,11.35,0,0,1,6.8-2.67,7.31,7.31,0,0,1,5.58,2.66s0-1.94,0-2.58h-.66a4.45,4.45,0,0,1-4.61-4.12c-.17-1.45-.33-2.76-.47-3.95h-.21a4,4,0,0,1-3.22-1.63c-.9-1.22-1.32-1.79-2.9-27a6.56,6.56,0,0,1-.38-2.35,1.93,1.93,0,0,1,0-.24c.18-3.05.28-5.53.3-7.22-.05-.17-.15-.47-.32-.94-2.62.84-5.64,1.65-9.14,2.46-.76,1-2.84,4.67-7.12,16.74a4.29,4.29,0,0,1-.26.58,85,85,0,0,0-5,12.1,8.69,8.69,0,0,1-5,4.06h-.94a4.09,4.09,0,0,1-1.17-.17L129.53,149c-.05.12-.1.24-.16.36-3.05,6.17-5.74,12.13-8,17.71a4.05,4.05,0,0,1-.57,1c-1.5,1.9-3,3.6-5.33,3.6a4,4,0,0,1-3.65-2.36l-.62-1.38a3.94,3.94,0,0,1-.29-2.32c.28-1.62,1.28-5.6,3-12a4,4,0,0,1-2.83-2.45l-.63-1.62a4,4,0,0,1-.12-2.55q1.75-6.15,3.18-10.58a4,4,0,0,1-1.63-2.28l-.31-1.15a3.87,3.87,0,0,1,0-2.08c1.08-4,2.13-7.58,3.16-10.65l-.73.15c-.66,2.76-1.33,5.25-2,7.43a3.12,3.12,0,0,1-.15.39,70.48,70.48,0,0,0-3.52,9.33,4,4,0,0,1-.56,4.38l-2.19,2.54a4,4,0,0,1-3,1.39h-.31a4,4,0,0,1-2.2-.66c-2.64,9.08-5.39,15.7-8.34,20.11-2.53,5.49-3.14,7.14-3.29,7.61a4,4,0,0,1-4,3.42h-.94a4,4,0,0,1-3-1.34c-.43,1.05-.87,2.26-1.31,3.65a4,4,0,0,1-1.33,1.91c-.26.39-1.25,2.17-2.64,8.36a4,4,0,0,1-3.9,3.12h-.31a4.07,4.07,0,0,1-.5,0c-2-.26-4.44-1.94-4.44-5.82v-.46a22.6,22.6,0,0,1,.93-4.83c0-.54-.09-1.47-.27-3a4,4,0,0,1,.17-1.72c1-3,1.68-5.33,2.17-7.21h-.55a4,4,0,0,1-3.79-2.72l-.31-.92A4,4,0,0,1,64.4,163l2.77-10.24a60.09,60.09,0,0,1,5.65-16.4,4.57,4.57,0,0,1,.29-.47,44.56,44.56,0,0,0,4.53-9.47,4.48,4.48,0,0,1-.37-.8l-.31-.92a4,4,0,0,1-.18-1.75,18.5,18.5,0,0,1,2.64-6.62,4,4,0,0,1,1.33-2.2c1.13-1.79,2.51-3.81,4.09-6,.48-1.45,1.75-4.23,5.16-10.71-2.3,1.21-4.3,3.56-6,7a3.89,3.89,0,0,1-1.19,1.45c-3.28,2.48-5.75,3.58-8,3.58a13.78,13.78,0,0,1-8.94-3.22h-2.3a4,4,0,0,1-2.41-.8c-2.38-1.8-4-4.58-5-8.42a53.54,53.54,0,0,0-2.8,7.91,4.15,4.15,0,0,1-.45,1,92.41,92.41,0,0,0-7.78,15.93,3.94,3.94,0,0,1-.37.74,10.86,10.86,0,0,1-4.5,4.24,4,4,0,0,1-1.68.37h-.31a4.34,4.34,0,0,1-1-.13c-.44,1-.93,2.07-1.46,3.29l-2.74,9a4.09,4.09,0,0,1-.16.42,65.74,65.74,0,0,0-3.51,11.73,3.81,3.81,0,0,1-.38,1A130.91,130.91,0,0,0,19.7,174.4c-.54,3.17-1.41,7.69-5.46,7.69a4.45,4.45,0,0,1-4.63-4.46v-9.86a4.42,4.42,0,0,1-4.36-4.45v-.23a3.55,3.55,0,0,1,0-.46,62.77,62.77,0,0,1,2.39-12.25A4.38,4.38,0,0,1,4,146a4,4,0,0,1,.47-1.89c.15-.27.93-2,2.08-9.14a4.85,4.85,0,0,1,.16-.63q.86-2.58,1.72-5a3.86,3.86,0,0,1-.6-.54l-.62-.69a4,4,0,0,1-1-2.67V125a4.17,4.17,0,0,1,.25-1.4,211.92,211.92,0,0,1,10.68-23c.54-1.39,2-4.22,6.09-11.71.35-1.5,1.5-3.92,5.16-9.39,0-.37,0-.65,0-.86a4,4,0,0,1-.19-3.81c5.55-11.56,9-19.75,10.39-24.33a4.05,4.05,0,0,1,1.06-1.75,9.42,9.42,0,0,0,3.15-7,4,4,0,0,1,.71-2.28A25.49,25.49,0,0,0,47.51,30,3.79,3.79,0,0,1,48,28.83c1.48-2.57,4.57-5.61,10.89-5.9a37.5,37.5,0,0,0,4.43-5,3.81,3.81,0,0,1,.7-.69,11.35,11.35,0,0,1,6.8-2.67c3.53,0,6.34,2.46,8.37,7.31a4,4,0,0,1,0,3.17c-.63,1.42-1,2.33-1.24,2.91.39.51,1,1.26,1.91,2.37a4,4,0,0,1,.7,1.23A10,10,0,0,1,81.33,35a4,4,0,0,1-.69,2.24,30.45,30.45,0,0,0-3.32,5.69,55.21,55.21,0,0,1,.57,6.61v8.08c0,2.29.1,5.4.3,9.25a4,4,0,0,1-.5,2.17,2.35,2.35,0,0,0-.23.63,12.63,12.63,0,0,1,2.7,3.88,9,9,0,0,0,2-2.83,4.09,4.09,0,0,1,.57-.91A64.19,64.19,0,0,1,91,61.91l.31-.29a20.89,20.89,0,0,1-.52-3.77c0-2,.81-3.7,8.39-10.81,2-5.09,5-8.83,9-11.14a54.18,54.18,0,0,1,6.27-7.84c.83-3.19,3.83-6.71,9.56-11.31,2.83-3.91,5.29-6.3,7.72-7.5a4,4,0,0,1,1.77-.41h.63a4,4,0,0,1,3.94,3.32l.43-.34c4.42-5.23,6.26-6.76,7.64-7.42a3.85,3.85,0,0,1,1.73-.4h.31a4,4,0,0,1,4,4v.23a4,4,0,0,1-.8,2.4,14.88,14.88,0,0,0-.77,2.7,4,4,0,0,1,1.92,6.77c-.29.27-1,1.2-1.75,3.76a4.09,4.09,0,0,1-1,1.69A4,4,0,0,1,151,28.31V29a4,4,0,0,1-1.14,2.8C138.73,43.1,137.53,48,137.53,49.55a4,4,0,0,1-1,2.64,27,27,0,0,0-3.29,4.3l.5,3.58a4,4,0,0,1-.31,2.21l-5.94,13.16a10,10,0,0,1-2,5.06c-.36,2.38-1.61,6.67-5.37,16q2.71-1,5.86-2.13a70.8,70.8,0,0,0,2.5-7.38,3.87,3.87,0,0,1,.54-1.12c3.4-5,4.15-6.79,4.3-7.25V76.1c0-1.93.94-4.69,5.56-12.39a171,171,0,0,1,5.63-17.38,4.3,4.3,0,0,1-.57-2.15,4.21,4.21,0,0,1,2.89-4c.66-1.7,1.35-3.45,2.07-5.28.06-.15.13-.29.2-.43.88-1.61,2.57-5.6,5.63-15.44,0-.1.07-.2.11-.3C157.44,12.3,161.26,4.91,168,4.91c5.92,0,8.94,1.78,9,5.28a14.67,14.67,0,0,0,.31,2.69l2.85-.69a3.81,3.81,0,0,1,.95-.12c1.59,0,5.41.67,6.72,6.86a3.93,3.93,0,0,1-.14,2.15c.19.75.77,1.46,2.5,2a4,4,0,0,1,2.11,1.66,9.14,9.14,0,0,1,1.56,4.9,3.92,3.92,0,0,1-.41,1.76l.78,0a11.08,11.08,0,0,1,1.86-.31c1.17-.12,2.84-.24,5.11-.35,2.07-.11,4.65-.23,7.72-.34,1.48-2.36,5.74-2.83,12-3.51,6-.66,15.14-1.39,27.11-2.18h.26c1.62,0,5.61-.43,15.43-2.46a4.45,4.45,0,0,1,.81-.08h.22c2.62.14,4.72.21,6.39.22a84.41,84.41,0,0,1,10.25-.92h3.75c5.75,0,15.67,1.75,30.31,5.35a4,4,0,0,1,3-1.37,52.47,52.47,0,0,0,9.17-1.25q4.08-1.3,9.24-2.93A24,24,0,0,1,348,17.75c4.59-1.58,7.8-2.32,10.09-2.32h.31a3.93,3.93,0,0,1,2.31.74c5.7-.42,11.24-.93,16.53-1.52l.44,0h5l.36,0,.35,0,2.93-.37a4,4,0,0,1,.49,0l.39,0a11.9,11.9,0,0,1,4.6,1.15l6.23.58.18,0c6.12.85,10.61,1.62,13.71,2.35,2,.46,4.65,1.08,6.22,2.61C427.32,25.47,432,30.88,432,37.1V38c0,1.81-.55,5.23-4.59,16.79a4.25,4.25,0,0,1-.21.49c-.84,1.66-2.8,3.7-9.14,8l7.52,2.62a20.21,20.21,0,0,1,6.11,3.26l.56-1.7a3.91,3.91,0,0,1,.58-1.13c.83-1.14,2-3.44,2.7-7.95a3.8,3.8,0,0,1,.32-1c7.62-16.58,8.33-20.25,8.37-21a3.85,3.85,0,0,1,.39-1.7c.49-1,.73-1.58.84-1.87l-1-3.27a3.83,3.83,0,0,1-.19-1.21c0-1.39,0-2,6.21-10.64C452.23,14.15,455,9.78,459,9a21.17,21.17,0,0,1,6-1h.32a4,4,0,0,1,2.93,1.27,9.7,9.7,0,0,0,2.86,2.42h.59a48.2,48.2,0,0,0,5.69-1.84,4,4,0,0,1,1.36-.24h1.25c5.88,0,7.07,8.23,7.71,12.66a3.64,3.64,0,0,1,0,.57c0,1.79-.9,3.47-3.39,6.08.57.45,1.33,1,2.35,1.75a3.75,3.75,0,0,1,.44.37,9.44,9.44,0,0,1,2.16,3.17,4,4,0,0,1,.32,1.56c0,1.16-.28,2.25-2.69,6.6.1.52.27,1.37.57,2.74a28,28,0,0,1,3.34-.77l-.1-.15a4,4,0,0,1,1-5.48c1.73-1.24,5.19-3,16.7-5.2A72.32,72.32,0,0,1,517.3,30c2.06-2.37,6.14-3.37,8.65-4a4.49,4.49,0,0,1,.82-.11,85.32,85.32,0,0,0,9-2.38,3.84,3.84,0,0,1,1.12-.16c.27,0,2.1-.19,10-2.8a4.15,4.15,0,0,1,1.26-.2c1.19,0,4.72-.35,15-2.67l.11,0a28.17,28.17,0,0,1,4.83-.77c.52,0,1.31,0,9.49,1.35l1.65-.18.42,0a3.92,3.92,0,0,1,1.39.25l5.25,1.94a19.18,19.18,0,0,1,9.42,4.56,5,5,0,0,1,.45.47c.73.89,1.39,1.73,2,2.53A29.63,29.63,0,0,1,603.72,26a4.49,4.49,0,0,1,.82-.11,85.32,85.32,0,0,0,9-2.38,3.84,3.84,0,0,1,1.12-.16c.27,0,2.1-.19,10-2.8a4.15,4.15,0,0,1,1.26-.2c1.19,0,4.72-.35,15.05-2.67l.11,0a28.17,28.17,0,0,1,4.83-.77c.52,0,1.31,0,9.49,1.35L657,18l.42,0a3.92,3.92,0,0,1,1.39.25l5.25,1.94a19.18,19.18,0,0,1,9.42,4.56,5,5,0,0,1,.45.47c.53.64,1,1.26,1.49,1.86.37-1.18,1.64-3.25,6-9.42,1.84-3.49,4.63-7.86,8.62-8.69a21.17,21.17,0,0,1,6-1.05h.32a4,4,0,0,1,2.93,1.27,9.7,9.7,0,0,0,2.86,2.42h.59a50.8,50.8,0,0,0,5.69-1.84,4,4,0,0,1,1.36-.24h1.25c5.88,0,7.07,8.23,7.71,12.66a3.64,3.64,0,0,1,0,.57c0,1.79-.9,3.47-3.39,6.08.57.45,1.33,1,2.35,1.75a3.75,3.75,0,0,1,.44.37,9.39,9.39,0,0,1,2.16,3.17,4,4,0,0,1,.32,1.56c0,1.16-.28,2.25-2.69,6.6.17.87.53,2.62,1.34,6.12a3.88,3.88,0,0,1,.1.9V52c.89,15,1.64,20.85,2.06,23.11a18.37,18.37,0,0,1,4.46,3c4.31.66,5.88,1.1,6.76,1.5a4.15,4.15,0,0,1,1.26.82,4.19,4.19,0,0,1,1.38,3.08,4,4,0,0,1-1.09,2.75c-.25.45-.42.77-.54,1,.11.63.33,1.82.77,4a4,4,0,0,1-.39,2.66c-1.05,2-3.11,3.64-6.4,5.11a11.38,11.38,0,0,0,.22,2.1,4,4,0,0,1-.07,2,6.29,6.29,0,0,0-.14,1.33,99.37,99.37,0,0,1,3.74,28v1.15a4.41,4.41,0,0,1-4.19,4.44c.77,7,.77,7.65.77,8a26.64,26.64,0,0,1-.57,4.72,29.19,29.19,0,0,1,.26,3.36c0,.12,0,.25,0,.37-.8,8.63-.92,11.43-.92,12.33a4,4,0,0,1-2.61,3.75l-.62.23a3.88,3.88,0,0,1-1.39.25h-.62a3.93,3.93,0,0,1-2.24-.69,4.44,4.44,0,0,1-4.62,4.38,4,4,0,0,1-3.43-1.95,12.37,12.37,0,0,1-1.82-6.44v-2.71l0-.28a4.06,4.06,0,0,1-2.2.53H707a4,4,0,0,1-3.58-2.21c-.7-1.4-1.55-4.11-2.59-13.58a4.44,4.44,0,0,1,0-1.21,29.82,29.82,0,0,0,.55-3.22v-.17a30.11,30.11,0,0,0-.26-4.45,3.81,3.81,0,0,1,0-1.26c0-.26.08-.5.11-.72-3.45-1.25-3.75-6.43-3.89-8.8,0-.14,0-.28,0-.41L698,113.6c-.16-1.73-.26-3.46-.29-5.16-1.86.54-4.72,1.21-8.79,2.06-1.59,1.08-4.82,2.37-12.24,4.52a4.23,4.23,0,0,1-3.09,1.33,51.51,51.51,0,0,0-3.35,8.94,4,4,0,0,1-1,1.61c-.34.63-1.54,3.41-3.83,14.53a113.88,113.88,0,0,1,3.41,13.95,8.4,8.4,0,0,1,.92,4.23v.23a4.38,4.38,0,0,1-3.18,4.26q.67,2.21,1.45,4.72a3.93,3.93,0,0,1,.18,1.18c0,1.33.64,4.93,4.91,14.18a9.48,9.48,0,0,1,1,4.29,4,4,0,0,1-2.63,3.76l-.63.23a4.08,4.08,0,0,1-1.37.24,4,4,0,0,1-3.27-1.7c-.73-1-1.8-3-4.19-9.8-1.12-2.44-2.11-4.63-3-6.6a4.09,4.09,0,0,1-2,.55h-.67c2,7,2.25,9.63,2.25,11.1,0,7.87-3.59,14.76-10.68,20.49a19,19,0,0,1-6.39,5.76c-5.92,6.6-12.18,11.29-18.62,13.95-7.62,6-14.82,9.73-21.44,11.25-8.61,2-10.33,2.78-10.59,2.92a3.84,3.84,0,0,1-1.94.65c-.31.57-.72,1.41-1.24,2.63a3.92,3.92,0,0,1-1.53,1.81c-.4.64-1.87,3.82-2.53,16.46a3.91,3.91,0,0,1-.94,2.37c-5,6-7.66,11.13-7.78,15.35,0,.25.18.78.46,1.77a4,4,0,0,1-1.4,4.24L569,289.83c-1,2.94-3.77,6.17-8.94,10.33a4,4,0,0,1-2.51.89h0a3,3,0,0,1-.18.41,13.76,13.76,0,0,1-6.54,6.15,4.07,4.07,0,0,1-1.68.37h-1.25a4,4,0,0,1-3.51-2.08,9.92,9.92,0,0,1-1.43-4.69,3.83,3.83,0,0,1,.19-1.21,72.67,72.67,0,0,0,2.65-13.33,4.29,4.29,0,0,1,.26-1c1.58-3.91,1.85-5.6,1.89-6.19a36.06,36.06,0,0,1-.3-3.62,4,4,0,0,1,.27-1.44c4.29-11.1,4.94-13.79,5-14.4a44.94,44.94,0,0,1,1.83-9.91c-.16-.2-.31-.4-.45-.61-2.86,1.12-7.48,2.28-15.35,3.34-.34.83-.66,1.69-.95,2.57a4,4,0,0,1-1.79,2.22s-1.5,1.05-3.13,7.46a4,4,0,0,1-1.55,2.26c-.18.13-1.83,1.5-3.41,9.11a4.13,4.13,0,0,1-.51,1.27,35.76,35.76,0,0,1-11.22,11.19,3.91,3.91,0,0,1-.57.31c-9,4-16.25,5.88-22.22,5.88-3.68,0-7.68-1.22-12.23-3.73a3.48,3.48,0,0,1-.6-.4c-5.7-4.66-8.63-8.52-9.23-12.14h0c-.32-.52-1.69-2.37-7-6.8a3.79,3.79,0,0,1-.72-.78,9.53,9.53,0,0,1-1.42-4.2,13.35,13.35,0,0,1-4,.74c-2,.16-5.13.28-9.14.36h-.29c-2.64-.14-5.86-.22-9.59-.22-5.26.47-20.28,1.38-44.67,2.68-.94.88-2.18,1.93-3.75,3.18-.48,5.37-2.9,8.27-5.39,9.82,0,.13,0,.27,0,.4s.39,2.46,6.53,9.64a5.6,5.6,0,0,1,.36.49c.68,1.1,1.74,3.23,4,10,5.34,7.72,5.46,8.44,5.63,9.43a3.91,3.91,0,0,1,.06.68,5.66,5.66,0,0,1-2.23,4.09,3.94,3.94,0,0,1-2.47,1.05c1.67,1.49,3.26,4,5,7.73,1.35,1.43,2.5,3.66,3.69,7.13,2.26,3,3.24,5.07,3.24,7v.23A4,4,0,0,1,405.27,345.45ZM556.7,301.12ZM491.92,265.2a4.9,4.9,0,0,0,.89,1.56,6.75,6.75,0,0,0,1.82-1.48h-1.24Zm7.61-10.48c1.18-2.46,2.51-5.09,4-7.87.26-1.44,1.11-3.94,3.73-9.57a62.2,62.2,0,0,1,1.62-6.47,4,4,0,0,1,.59-1.22c5.1-9.79,6.71-14.56,7.15-16.85a4,4,0,0,1,.68-1.58,12.74,12.74,0,0,0,1.18-2c-2,2-3.75,3.25-5.82,3.25a3.81,3.81,0,0,1-.75-.07,5.29,5.29,0,0,1-4.5-5.32,4,4,0,0,1,1.21-2.86c5.22-5.1,6.71-6.71,7.12-7.2a3.91,3.91,0,0,1,1.06-1.2,109,109,0,0,1,9.09-6.31,14.18,14.18,0,0,1,4.08-4.28,4,4,0,0,1,2-.62,4,4,0,0,1,1.2-1.81c1.38-1.19,2.84-2.33,4.34-3.4.73-.59,2-2.22,2.84-6.54a3.92,3.92,0,0,1,.46-1.25,68.43,68.43,0,0,0,5-11.76,4.2,4.2,0,0,1,.82-1.4c1.09-1.2,2.44-2.7,4.53-2.7a4,4,0,0,1,2.59,1q2.12-4.14,4.44-8.68c-.33-.83-.68-1.74-1-2.74-2-2.54-3.26-6.92-4.13-13.92-6.68-15.86-12.47-29.16-17.23-39.55a3.54,3.54,0,0,1-.18-.49c-.49-1.58-.87-2.86-1.15-3.91-3,.92-3.52,1.82-3.53,1.83,0,1.58-.21,2.22-6.25,9.66a170.06,170.06,0,0,1-8.85,25.36c-.72,4.75-2.13,12.82-7.94,12.82a4.19,4.19,0,0,1-.78-.07q-.15.61-.3,1.29a4.06,4.06,0,0,1-.26.79,61,61,0,0,0-3.2,10,4.45,4.45,0,0,1-.24.7,69.23,69.23,0,0,0-3.68,11.41,3.69,3.69,0,0,1,2.32,3.64v.69a4.09,4.09,0,0,1-.32,1.58c-.2.46-.38.87-.53,1.24a6.56,6.56,0,0,1,.41.55A4,4,0,0,1,502,171v.23a4.35,4.35,0,0,1-.06.74c.47.33,1,.7,1.69,1.12l.14.09c2.15,1.48,2.88,4.29,3.24,6.28a4,4,0,0,1-.61,2.93,24.85,24.85,0,0,1-2.75,3.33l.91,1.1a3.93,3.93,0,0,1,1,2.58v.92c0,2.24-1.38,4.43-5,7.78v1.45c0,1.11-.24,2.53-3.18,9.49-.13,1.27-.57,4.31-2,12.74l1.19,3.14a4.08,4.08,0,0,1,0,2.92c-1.81,4.44-3.13,11.63-3.94,21.39.84.15,1.68.31,2.51.48a4,4,0,0,1,3.21,3.92v.85ZM342.32,218.93c.48,1.47,2,4.11,6.88,8.09a4.1,4.1,0,0,1,.75.81,39.77,39.77,0,0,0,6.52,7.35,3.64,3.64,0,0,1,.54.57c3.27,4.25,7.28,9.1,11.92,14.42,1.52-.24,2-.33,2.11-.36l.19-.05v-3c0-1.81.66-4.25,2.14-7.83-.57-4.68-.57-4.75-.57-5.1a4.23,4.23,0,0,1,.25-1.41l3.12-8.31c1-2.51,1.86-4.68,2.72-6.55-.65,0-1.3.09-2,.17l-.44,0-.39,0c-3.21-.31-13-1.27-13-8.13v-.23a4,4,0,0,1,1.36-3,23.4,23.4,0,0,1,9.81-4.71,7.45,7.45,0,0,1,7.21-4.83c3-.39,4.47-.63,5.2-.76a37.53,37.53,0,0,0,1.72-6.92c-8.21-1.32-13.78-2.25-17.14-2.85l-1,.68a4.44,4.44,0,0,1,1,2.76,4,4,0,0,1-1.49,3.12,77.38,77.38,0,0,0-9.18,8.29,4.08,4.08,0,0,1-1.47,1.05c-.83.35-2.74,1.47-6.12,5a4.12,4.12,0,0,1-1.22.89s-1.27.76-4.3,5.28a4,4,0,0,1-1.64,1.41c-2.61,1.21-3.3,2.23-3.3,2.6a3.81,3.81,0,0,1-.07.75Zm62.29,26.26a5.42,5.42,0,0,0,.44,1.14,4,4,0,0,1,.29.75c10.12-1.45,17.16-2.19,21.43-2.26a28.65,28.65,0,0,1,3.07-.63,3.88,3.88,0,0,1,.67-.06,4.1,4.1,0,0,1,1.34.23h1.69c17.14-1.51,22.1-1.8,24-1.84,0-.62,0-1.23,0-1.83A46.69,46.69,0,0,1,459,230.55c0-.84-.08-2.55-.29-6a3.86,3.86,0,0,1,.11-1.22A110.39,110.39,0,0,0,461,208.68l-3.66.33a4,4,0,0,1-3.09,3.8,25.63,25.63,0,0,1-5.59.79h-9.77a32.64,32.64,0,0,1-8,1.38c-2.89,0-7.32,1-13.14,2.81a4,4,0,0,1-.83.17,32.14,32.14,0,0,0-5.76.95v2.22c0,.81-.14,1.92-1.77,7,0,.22.08.48.14.78a4,4,0,0,1-.32,2.46c-2.48,5.21-2.95,6.84-3,7.24A21.7,21.7,0,0,1,404.61,245.19ZM221.5,222.24c-.36,2.38-1.61,6.67-5.37,16q2.72-1,5.86-2.13a70.8,70.8,0,0,0,2.5-7.38,3.87,3.87,0,0,1,.54-1.12c3.4-5,4.15-6.79,4.3-7.25v-2.5c0-1.93.94-4.69,5.56-12.39,1.57-6.38,4.85-15.82,10-28.79.06-.15.13-.29.2-.43.88-1.61,2.57-5.6,5.63-15.44,0-.1.07-.2.11-.3,2.57-6.43,6.39-13.82,13.08-13.82,5.92,0,8.94,1.78,9,5.28a14.67,14.67,0,0,0,.31,2.69l2.84-.7a4.49,4.49,0,0,1,1-.11c1.59,0,5.41.67,6.72,6.86a3.92,3.92,0,0,1-.14,2.15c.19.75.77,1.46,2.5,2a4,4,0,0,1,2.11,1.66,9.14,9.14,0,0,1,1.56,4.9,4,4,0,0,1-1.13,2.79,4.61,4.61,0,0,0-1.06,1.42c.11,3.16.23,4.52.3,5.07a4,4,0,0,1,.23,2.42,29.93,29.93,0,0,0-.85,6.07c.19,9.72.3,16.28.31,18.57,0,.18.1.43.18.74a4,4,0,0,1-.39,3l.22.23a4,4,0,0,1,1.23,2.88v.23a4.17,4.17,0,0,1-.17,1.16l-.45,1.49c0,.29,0,.68,0,1.19l.55-.18c.17-.68.32-1.36.47-2a4.46,4.46,0,0,1,.31-.89,86.27,86.27,0,0,0,6.58-17.41,3.83,3.83,0,0,1,.53-1.25c5.93-9.15,7.21-11.93,7.48-12.72v-5.42c0-1.69.69-3.08,4.84-7.91A16,16,0,0,1,312.6,164a4.06,4.06,0,0,1,.46-1.92l-1.74-1.5-1.3.72a3.94,3.94,0,0,1-1.93.5h-.31c-4.92,0-5.84-6-6.14-8a3.49,3.49,0,0,1,0-1.07c0-.22.05-.44.07-.65q-4.05-3.71-7.18-6.76a4,4,0,0,1-1.72.39h-.56a9.25,9.25,0,0,1-5-2.1c-8.4,1.38-13.63,2-16,2a6.42,6.42,0,0,1-6.37-5.07,4,4,0,0,1,2.38-4.72c3.16-1.27,5.92-2.33,8.31-3.2-1-1.12-2.11-2.41-3.32-3.85a3.88,3.88,0,0,1-.82-1.6c-.5-.82-2.67-3.76-12.1-13.4a4.17,4.17,0,0,1-.68-.94c-1.82-3.46-4.94-7-9.28-10.52A4.12,4.12,0,0,1,248.3,101c-1.75-3.49-4.81-6.75-9.1-9.69-1.15-.57-2.53-2-5.64-5.41h-.48c-6.76,3.11-8.61,4.92-9.05,5.46v3.23c0,1.88-1,3.81-3.5,6.85-.27,3.72-1.5,8.69-3.71,15.12-.17,3.39-1.54,7.29-4.17,11.89-.46,3.42-1.63,9.62-6.68,9.62a4.12,4.12,0,0,1-.86-.09c-2.79,8.45-4.29,11.2-5.32,12.58a4,4,0,0,1-3.2,1.6H196a5.65,5.65,0,0,1-4.88-3.17c.12,1.31.35,3.59.8,7.56a4.49,4.49,0,0,1,0,1c-.65,4.95-3.92,5.33-4.91,5.33h-.31a4.9,4.9,0,0,1-1.61-.25V169a9.91,9.91,0,0,1-.82,3.38c.14.63.42,1.78,1,3.89a4,4,0,0,1,.11,1.5c-.58,5.07-3.63,5.62-4.91,5.62h-.63a4,4,0,0,1-3.43-1.94c-.21-.35-.42-.74-.62-1.16a24.14,24.14,0,0,0-2.43,4.34,55.21,55.21,0,0,1,.57,6.61v8.08c0,2.29.1,5.4.3,9.25a4,4,0,0,1-.5,2.17,2.35,2.35,0,0,0-.23.63,12.63,12.63,0,0,1,2.7,3.88,9,9,0,0,0,2-2.83,4.09,4.09,0,0,1,.57-.91,64.19,64.19,0,0,1,8.33-7.9l.31-.29a20.89,20.89,0,0,1-.52-3.77c0-2,.81-3.7,8.39-10.81,2-5.09,5-8.83,9-11.14a54.18,54.18,0,0,1,6.27-7.84c.83-3.19,3.83-6.71,9.56-11.31,2.83-3.91,5.29-6.3,7.72-7.5a4,4,0,0,1,1.77-.41h.63a4,4,0,0,1,3.94,3.32l.43-.34c4.42-5.23,6.26-6.76,7.64-7.43a4,4,0,0,1,1.73-.39h.31a4,4,0,0,1,4,4V150a4,4,0,0,1-.8,2.4,14.88,14.88,0,0,0-.77,2.7,4,4,0,0,1,1.92,6.77c-.29.27-1,1.2-1.75,3.76a4.09,4.09,0,0,1-1,1.69,4,4,0,0,1,1.11,2.76v.69a4,4,0,0,1-1.14,2.8c-11.09,11.3-12.29,16.18-12.29,17.75a4,4,0,0,1-1,2.64,27,27,0,0,0-3.29,4.3l.5,3.58a4,4,0,0,1-.31,2.21l-5.94,13.16A10,10,0,0,1,221.5,222.24Zm329.25-5.76a4,4,0,0,1,1.25,1.61,4,4,0,0,1,0,3.15c-1.76,4.13-3.31,7.84-4.63,11.1a12.78,12.78,0,0,1,4.3-1c.42,0,1.41,0,2.73-1.52a20.83,20.83,0,0,1-.17-2.1A4,4,0,0,1,557,224a14.2,14.2,0,0,0,4.51-2.14,3.87,3.87,0,0,1,.43-1.28l.78-1.44a41.7,41.7,0,0,1,4.79-17.94c.32-1.54,1.54-4.85,6.09-14.37q.27-.85.45-1.56a79.27,79.27,0,0,0-14,5.55c-1.37,4-2.85,8.11-4.41,12.2C553.9,208.23,552.31,212.71,550.75,216.48ZM256.53,227.06l.34-.17v-.46Zm341.53-29.71a4,4,0,0,1,.49,3.5c-1.85,5.57-2.88,9.06-3.46,11.24a43.62,43.62,0,0,0,11.5-6.36,3.7,3.7,0,0,1,.8-.5c6.85-3.3,9.19-6,10-7.73a3.87,3.87,0,0,1,.85-1.23c7.15-7,8.08-10.26,8.16-11.29v-2.25c0-.75,0-2.3-.19-5.51a14.64,14.64,0,0,0-6.4-1.57c-5.38,1-7.53,1.8-8.31,2.18a4.23,4.23,0,0,1-.77,1.06,13,13,0,0,1-8.19,3.87,2.62,2.62,0,0,0-.62,2.05,3.93,3.93,0,0,1-.19,1.22Zm-148.78-1.69a4,4,0,0,1,1.71,2.6c3.39-.19,7-.28,10.74-.28h.09l.06-.94a4,4,0,0,1,.94-2.31,4.87,4.87,0,0,0,.61-.87v-5.78a4,4,0,0,1,.55-2c-2.6.62-5.54,1.17-8.84,1.66a111.82,111.82,0,0,1-18,1.66,20.75,20.75,0,0,0-2.07.95,4,4,0,0,1-1.8.43H433c-2.95,0-8.21.13-15.66.38a16.77,16.77,0,0,0-.32,3.7v.66l1.27.18h.25c13-.62,22.25-.92,28.2-.92A4,4,0,0,1,449.28,195.66Zm-117-7.31a6,6,0,0,0,.05.68c1.66-1.34,3.83-3.22,6.63-5.87a3.73,3.73,0,0,1,.89-.64,55.5,55.5,0,0,0,6.7-4c-1-.79-2.07-1.66-3.2-2.6a4,4,0,0,1-3,1.32h-.62a4,4,0,0,1-1.7-.38,12.92,12.92,0,0,1-1.3-.7l-.05.09s0,.08,0,.12l0,.07a4,4,0,0,1-.05,4c-3.09,5.14-4.1,7.08-4.43,7.79Zm25.33-16.46a4.06,4.06,0,0,1,.92.11,6.47,6.47,0,0,1,1.49.52,82.65,82.65,0,0,1,14.16-9,11.56,11.56,0,0,1,7.17-2.69,4,4,0,0,1,2.56.92c5.83-3.36,8.85-3.93,10.88-3.93h.62a4,4,0,0,1,4,4c0,1.24-.31,2.38-1.94,4.14a6.16,6.16,0,0,1,1.79-.28,3.77,3.77,0,0,1,1.11.16,23.45,23.45,0,0,0,4.71,1c.42-.16,1.38-.54,3.46-1.48h0c0-.1.05-.21.07-.32l-.37,0h-.31a4.45,4.45,0,0,1-4.62-4.46V158a4.06,4.06,0,0,1,.11-.92c.81-3.42,1.52-7.26,2.12-11.42a4,4,0,0,1,1.28-2.4,37.41,37.41,0,0,0,1.18-5.42,6.85,6.85,0,0,0-.19-1,4,4,0,0,1,1-3.78s.91-.95,1.37-4.81a4,4,0,0,1,.3-1.12l3.11-7.11-1.15.33a4.11,4.11,0,0,1-1.1.15h-.31a4,4,0,0,1-3.31-1.76l-.19.06-8.34,6.46a3.92,3.92,0,0,1-.95.55c-.4.29-1.53,1.19-4.4,3.85a4.06,4.06,0,0,1-2,1c-1.45.28-4.37,1.17-10,3.84a3.94,3.94,0,0,1-1.72.39s-1,.15-4.08,2.13a4,4,0,0,1-2.17.64c-.25,0-1.76.16-8.92,1.55l-.35.05c-.71.14-4.26,1-21.21,5.65a4.29,4.29,0,0,1-1.06.14,4,4,0,0,1-.85-.09,3.94,3.94,0,0,1-1.95,1.12,23.47,23.47,0,0,1-5.63.81,4.5,4.5,0,0,1-4.31-2.79l-1.18.17,1.27,1.32a4,4,0,0,1,1,1.89c.28.45,1.61,2.22,7,6.53a4.14,4.14,0,0,1,1,1.22c.73.81,3.59,3.53,14.64,12.68l.31.28c1.33,1.36,2.47,2.6,3.46,3.74ZM419,168c2.78,0,7.29.15,13.4.45,9.34-.61,18-1.37,25.8-2.27a3.55,3.55,0,0,1,.46,0h.33c1.94.16,2.7.21,3,.22,2.39-.19,3.45-.32,3.89-.38a3.89,3.89,0,0,1,1.54-.31,4.37,4.37,0,0,1,.72.06c2.39.44,3.63,1.43,4.25,2.45a4,4,0,0,1,2.59-.95h1.25a3.92,3.92,0,0,1,1.41.26c.31-.85.64-1.67,1-2.47v-1.16l0-.28a4,4,0,0,1-2.2.53H476a4,4,0,0,1-3.58-2.21c-.7-1.4-1.55-4.11-2.59-13.59a4,4,0,0,1,.06-1.2,30.74,30.74,0,0,0,.54-3.22v-.17a30.21,30.21,0,0,0-.26-4.45,3.81,3.81,0,0,1,0-1.26c0-.26.08-.5.11-.73-3.44-1.24-3.75-6.42-3.89-8.79,0-.14,0-.28,0-.41l.62-14.27c-.16-1.74-.26-3.47-.29-5.16-1.86.54-4.72,1.21-8.79,2.06-1.59,1.08-4.82,2.37-12.24,4.52a4.23,4.23,0,0,1-3.09,1.33h0a52.05,52.05,0,0,0-3.36,8.94,3.87,3.87,0,0,1-.95,1.61c-.34.64-1.58,3.51-4,15.1a4,4,0,0,1-.89,1.81c-1.31,1.52-2.77,3-4.9,3a4.11,4.11,0,0,1-1.43-.26l-.27-.11c-1.07,3.11-3.3,9-7.91,20.9,0,.14-.07.28-.11.42Zm145.31-5.67a22.44,22.44,0,0,1,2.8-.79c0-.63.07-1.27.11-1.91a4,4,0,0,1-.6,0,5.13,5.13,0,0,1-1.12-.12C565.06,160.47,564.66,161.39,564.26,162.32Zm50.8-8c7.82,0,14.28.87,19.53,2.63.57-2.5,1.11-5.28,1.61-8.3-.4-1-.83-2.07-1.29-3.37-2-2.54-3.26-6.92-4.13-13.92q-1.86-4.41-3.62-8.53h-.61a4,4,0,0,1-3.77-2.67l-2.79,1c-10.82,5.39-13.42,5.85-15,5.85h-.62a4,4,0,0,1-4-4v-.46a4,4,0,0,1,2.43-3.68c2.59-1.1,8.89-4.13,18.75-9-3-6.88-5.63-12.8-8-18a4.09,4.09,0,0,1-.18-.49c-.49-1.58-.87-2.86-1.15-3.91-3,.92-3.52,1.82-3.53,1.83,0,1.58-.21,2.21-6.25,9.66a170.81,170.81,0,0,1-8.85,25.36c-.66,4.34-1.9,11.46-6.54,12.65a29,29,0,0,1,.4,3.81c.76,1.87,1.89,5.6,3.74,14.78a4,4,0,0,1,3,.09,5.36,5.36,0,0,0,1,.35h1.69a4.1,4.1,0,0,1,1.34-.23,3.89,3.89,0,0,1,1.07.15,14.14,14.14,0,0,0,3.27.53C613.75,154.27,614.51,154.27,615.06,154.27ZM338.4,109.42a24.57,24.57,0,0,1-1.46,7c2.42-.2,5.9-.42,11-.65.47-1.21,1.38-4.51,2.1-12.93a4.27,4.27,0,0,1,.26-1.11,49.5,49.5,0,0,0,3.17-14.1,4.22,4.22,0,0,1,.14-.79,56.35,56.35,0,0,0,2-13.15,4.75,4.75,0,0,1,.17-1c1.18-3.85,3.12-11.91,5.76-24V43.59a8.13,8.13,0,0,1,.33-2.18l-.19-.06-.63-.23a4,4,0,0,1-1.92-1.48l-1.16.27a14.72,14.72,0,0,1-4.57,2.64c-.11.66-.24,1.75-.35,3.48A4,4,0,0,1,352,48.51c-1.15,1.24-1.75,2-2.05,2.37v.45c0,6.64-1.41,14.3-4.2,22.77l-4.23,18.54V98a3.82,3.82,0,0,1-.16,1.11Zm-35.92,4.81a64.57,64.57,0,0,0,2.34-10.46,4.37,4.37,0,0,1,.24-1c.8-2.12,2.79-8.61,7.64-27.33-.27-.44-.69-1.1-1.32-2.06a4,4,0,0,1-.65-2.19V71a4,4,0,0,1,.29-1.49,138.18,138.18,0,0,0,5.51-15.62c-3.37,1.6-9.64,3.7-21.88,6.84a129.5,129.5,0,0,1-28.06,10.6c1.4,2.18,3.88,5.89,8.33,12.19a4.1,4.1,0,0,1,.69,1.73c.28.5,1.42,2.19,5.65,6.21a4,4,0,0,1,.78,1A61.16,61.16,0,0,0,287,96.77a4.13,4.13,0,0,1,1.14,1.53c1.91,4.54,6.43,9.66,13.44,15.24Zm83.3-26.44A4.36,4.36,0,0,1,385.5,89a50.62,50.62,0,0,0-2.88,11.11,2.41,2.41,0,0,1-.07.37,3.53,3.53,0,0,0,.24-.34,3.94,3.94,0,0,1,.88-1,13.1,13.1,0,0,0,3-4.25,4,4,0,0,1,1.6-1.66c2.83-1.58,5.19-4.58,7-8.91a4.13,4.13,0,0,1,1.05-1.46,36.5,36.5,0,0,0,4-3.91c-1.24.33-4,1.38-9.63,4.62a4,4,0,0,1-2,.53c-.89,0-1.74,1-2.53,3A4.3,4.3,0,0,1,385.78,87.79ZM568.9,92.16c.91,1.3,1.76,2.56,2.57,3.78q1.71-3.6,3.81-7.32a2,2,0,0,1,.14-.25,44.13,44.13,0,0,0,5.12-11.85,4.77,4.77,0,0,1,.26-.66c.79-1.56,1.65-3.41,2.59-5.52a43.42,43.42,0,0,1-7.31,3.46l-.24.07c-7.21,2.15-10.18,3.57-11.35,4.26C564.83,80.21,565.9,84.28,568.9,92.16Zm77.75,0c.57.82,1.12,1.63,1.66,2.43,2.64-1.13,4.89-2,6.8-2.73a19.71,19.71,0,0,0,.91-3.55,4,4,0,0,1,.32-1c1.09-2.27,3.23-8.3,6.38-18a43.44,43.44,0,0,1-8.89,4.44l-.24.07c-7.21,2.15-10.18,3.57-11.35,4.26C642.58,80.17,643.65,84.24,646.65,92.12ZM455.35,78.6a4,4,0,0,1-.36,1.49,30.89,30.89,0,0,0-2.19,6.18q6.07-1.41,10.06-2.18a41.91,41.91,0,0,1,1-4.75c-.45-10.5-1.72-14.27-2.38-15.55a8.51,8.51,0,0,1-2.05,1.06l-1.82,5.38A3.94,3.94,0,0,1,456.49,72,42,42,0,0,0,455.35,78.6Zm232.22-6.69a45.16,45.16,0,0,0-1.17,6.92,3.77,3.77,0,0,1-.35,1.23,31.46,31.46,0,0,0-2.18,6.18c4-.94,7.42-1.67,10.07-2.19a42.38,42.38,0,0,1,1-4.75c-.45-10.5-1.72-14.27-2.38-15.55a8.51,8.51,0,0,1-2.05,1.06l-1.82,5.38A3.94,3.94,0,0,1,687.57,71.91ZM160.52,85.23l.34-.17v-.45C160.74,84.82,160.62,85,160.52,85.23ZM495,78.08a27.34,27.34,0,0,1,6.81,1.56c.35-1,.68-2,1-3.12a4.77,4.77,0,0,1,.26-.66c2-4,4.55-9.84,7.56-17.38l-.71.49a3.76,3.76,0,0,1-1.19.58,12.93,12.93,0,0,1-3.64.63,3.93,3.93,0,0,1-1.22-.19c-.88-.28-3.14-1-4-3.18-.76.42-1.6.93-2.52,1.55l-.19.12a8.33,8.33,0,0,1-4.22,1.24,4,4,0,0,1-4-4,4.74,4.74,0,0,1,.11-1.07l-.36.13c.82,12.94,1.5,18.18,1.89,20.29A18.34,18.34,0,0,1,495,78.08ZM192.29,75.8c0,.29,0,.68,0,1.2.7-.23,1.38-.46,2.06-.67a4.07,4.07,0,0,1,.48-1.16c2.72-4.49,4.1-8.77,4.1-12.7a4,4,0,0,1,.35-1.63,19,19,0,0,0,1.84-7.6v-.07c-1-.05-2-.08-3.08-.08l-6.61.34c.12,6.7.19,10.95.2,12.67,0,.18.1.42.18.74a4,4,0,0,1-.39,3l.22.22a4,4,0,0,1,1.23,2.88v.23a4.17,4.17,0,0,1-.17,1.16Zm51.25-29.65c-1.41,0-4,0-4.76,6.81a4.5,4.5,0,0,1-.15.73c-.12.39-.22.75-.31,1.09.42-.3.92-.69,1.49-1.19a4.22,4.22,0,0,1,1-.72h0a4.66,4.66,0,0,1,.93-.32,79,79,0,0,0,15-5.66,4.43,4.43,0,0,1,1.33-.39,17.27,17.27,0,0,0,2.63-1.39c-2.45.39-5.47.8-9.2,1.25l-.48,0h-.16C247,46.22,244.68,46.15,243.54,46.15Zm301.12,1a11.18,11.18,0,0,1-.48,3,19.85,19.85,0,0,0,6.88-3,4.08,4.08,0,0,1,1.63-.73c6.32-1.23,11-3.28,13.92-6.1a2.43,2.43,0,0,1,.34-.3c.67-.51,1.23-1,1.7-1.36a53.62,53.62,0,0,0-8.81,1.48,4,4,0,0,1-2.94,1.28c-1.2,0-4,.47-9.51,3.53a7.67,7.67,0,0,1-2.73,2Zm77.76,0a11.18,11.18,0,0,1-.48,3,19.76,19.76,0,0,0,6.88-3,4.08,4.08,0,0,1,1.63-.73c6.32-1.23,11-3.28,13.92-6.1a3.17,3.17,0,0,1,.34-.3c.67-.51,1.23-1,1.7-1.36a53.62,53.62,0,0,0-8.81,1.48,4,4,0,0,1-2.94,1.28c-1.19,0-4,.48-9.51,3.53a7.67,7.67,0,0,1-2.73,2ZM389.57,42a17.64,17.64,0,0,0-.33,3.92v3.84a3.78,3.78,0,0,1,.82-.43c.52-.2,2.61-1.26,8.18-6.77a3.44,3.44,0,0,0,.48-1.49V39.2c0-.09,0-.16,0-.21-2.11-.12-4.11-.18-6-.18H392a3.87,3.87,0,0,1-.88,2A4,4,0,0,1,389.57,42Z"/><path class="cls-2" d="M148.22,8v.23q-.78.93-1.56,4.62-5.62,6-5.62,8.31v.69h.31q7.26-4.62,8.43-4.62A12.45,12.45,0,0,0,147,22.77a17.3,17.3,0,0,0-6.56,7.85,14.22,14.22,0,0,0-3.12,4.16l.63.23c.57,0,1.71-.85,3.43-2.54q2,0,4.68-3.93l.62-.23H147V29q-13.43,13.68-13.43,20.55-4.36,5-4.37,6.69l.62,4.39-6.25,13.85a6.07,6.07,0,0,1-1.87,4.39q0,3.59-6.56,19.39c-.54,1.83-1,3.5-1.44,5q5.61-2.33,15.26-5.74a56.06,56.06,0,0,0,3.43-9.46q5-7.32,5-9.23V76.1q0-2.09,5.31-10.85a177.35,177.35,0,0,1,6.7-20.39c-.92-.17-1.39-.39-1.39-.68s.65-.46,1.94-.79c.85-2.22,1.76-4.55,2.74-7q2.1-3.87,5.93-16.16c3-7.54,6-11.31,9.37-11.31s5,.46,5,1.38c.16,4.12,1.09,6.43,2.81,6.93h.62l4.68-1.15q2,0,2.81,3.69l-.31.46q0,4.91,5.31,6.69a5.29,5.29,0,0,1,.94,2.77q-2.19,2.25-2.19,4.16c0,.56,0,1.07.06,1.56h.56v.26l-.55,0a2.18,2.18,0,0,1,0,.25l.54-.08v-.2c1.88-.12,4.06-.21,6.56-.26q0-.63,26.23-1.38c0-.15.31-.23.94-.23v-.46h-8.74c-.32,0-.63-.23-.94-.69q0-1.56,35.91-3.93,4,0,16.24-2.54,4.14.22,6.87.23a83.8,83.8,0,0,1,10-.92h3.75q8.11,0,29.66,5.31c.77.42,1.46.83,2.12,1.23,1.55-.56,3.6-1.27,6.14-2.11-2.26.16-3.7.24-4.28.24l-.31-.46v-.23a56.73,56.73,0,0,0,10.18-1.37q4.32-1.39,9.88-3.13a19.81,19.81,0,0,1,10.3-3.23c4.37-1.54,7.5-2.31,9.37-2.31h.31v.23c0,.14-.21.38-.62.72q10.21-.68,19.9-1.75h5l.78.07,3.35-.42c2.12.21,3.25.56,3.4,1l7.45.69q17.81,2.49,17.8,4.16Q428,29.95,428,37.1V38q0,3-4.37,15.47-1.08,2.13-10.3,8.08a1.44,1.44,0,0,0-.31.92v3.23l11.24,3.93q7.25,2.49,8.69,8.39,1.36-4,3.1-9.37,2.42-3.28,3.43-9.69,8.73-19,8.74-22.62a11.9,11.9,0,0,0,1.25-3.23v-.92l-1.25-3.93q0-.69,5.62-8.54,3.6-6.93,6.56-6.93c0-.34,1.67-.65,5-.92q3.44,3.69,5.62,3.69h.94q1.1,0,6.87-2.08h1.25c1.62,0,2.86,3.07,3.75,9.23q0,1.21-4.06,5.08a1.83,1.83,0,0,0-.31,1.15v.46c0,.54,1.67,2,5,4.39a5.54,5.54,0,0,1,1.25,1.85q0,.81-2.81,5.77v.23a73.52,73.52,0,0,0,1.56,7.62v1c3.88-1.45,6.71-2.2,8.43-2.2.84-.8,3.44-2.19,7.81-4.15q.94-.93,7.81-2.77l.31-.46v-.23h-.31q-12.18,1.84-14.05,1.85l-.31-.46q3-2.19,15.61-4.62A66.45,66.45,0,0,1,520,33.31q0-1.79,6.87-3.46,1.32,0,10-2.54,2.18,0,11.24-3,3.6,0,15.93-2.77a39.64,39.64,0,0,1,4.06-.69q1,0,9.37,1.38l2.19-.23,5.62,2.08a15.05,15.05,0,0,1,7.81,3.69,36.67,36.67,0,0,1,4,5.74l.65-.2q0-1.79,6.87-3.46,1.32,0,10-2.54,2.18,0,11.24-3,3.6,0,15.93-2.77a39.64,39.64,0,0,1,4.06-.69q1,0,9.37,1.38l2.19-.23,5.62,2.08a15.05,15.05,0,0,1,7.81,3.69q5.31,6.4,5.31,9.69-1.58,13.56-5,18A37.88,37.88,0,0,1,652.45,70q-14.36,4.27-14.36,6.93.17,4.44,5,17.08,2.05,2.92,3.73,5.55c4.3-1.9,7.86-3.36,10.63-4.33q1.49-.69,2.5-6.23,1.88-3.91,7.18-20.31,2.42-3.28,3.43-9.69,8.73-19,8.74-22.62a11.9,11.9,0,0,0,1.25-3.23v-.92L679.3,28.3q0-.69,5.62-8.54,3.6-6.93,6.56-6.93c0-.34,1.67-.65,5-.92q3.43,3.69,5.62,3.69H703q1.1,0,6.87-2.08h1.25c1.62,0,2.86,3.07,3.75,9.23q0,1.21-4.06,5.08a1.83,1.83,0,0,0-.31,1.15v.46c0,.54,1.67,2,5,4.39a5.54,5.54,0,0,1,1.25,1.85q0,.81-2.81,5.77v.23a73.52,73.52,0,0,0,1.56,7.62v2.77q1.56,26.33,3.12,26.32,1.88,0,5.62,3.46c4.07.6,6.41,1.07,7,1.44v.21a13.77,13.77,0,0,0-1.56,3.23c0,.46.32,2.23.94,5.31-.78,1.47-3,2.85-6.56,4.16a1.44,1.44,0,0,0-.31.92v1.62a15.2,15.2,0,0,0,.31,3.23,11.33,11.33,0,0,0-.31,3,94.31,94.31,0,0,1,3.75,27.47v1.15c0,.31-.2.46-.62.46h-.31q-1.56-2.78-2.81-9.93h-.62v3.93a17.07,17.07,0,0,1-.62,3.23q1.56,13.66,1.56,14.77a29.54,29.54,0,0,1-.62,4.62,27.84,27.84,0,0,1,.31,3.46q-.95,10.16-.94,12.7l-.62.23h-.62c0-.46-.1-.69-.31-.69a11,11,0,0,1,.31-1.38q-4.06-25.52-4.06-26.55v-2.08l-.31-1.16h-.62v1.62a125.36,125.36,0,0,1-1.56,21.24,20.79,20.79,0,0,0,.62,5.77,13.37,13.37,0,0,0-.31,2.54v3.92c0,.31-.2.46-.62.46a8.43,8.43,0,0,1-1.25-4.39v-3L711,146.28V135.2h-.62c-.21,2.31-.31,3.93-.31,4.85l.31,2.77q-2.1,17.09-3.12,17.08H707q-1.1-2.19-2.19-12.23a29.16,29.16,0,0,0,.62-3.93v-.23a33.29,33.29,0,0,0-.31-5.08,21,21,0,0,0,.31-3.23c-.21-2.31-.31-4-.31-5.08h-.62a24.33,24.33,0,0,0-1.25,3.23h-.31q-1.24,0-1.56-5.31L702,113.5q-.32-3.23-.31-6.23a13.37,13.37,0,0,0,.31-2.54,3.24,3.24,0,0,0-1.25.23l-1.56-.69h-1.56A107.65,107.65,0,0,1,687,106.81q-.71,1.34-13.12,4.85c0,.46-.1.69-.31.69l-1.25-.23q-2.26,0-5.93,12-1.8,1.44-5,17.08l-.26.28q1.49,3.06,4,15.82c.41,0,.62.77.62,2.31v.23c0,.31-.2.46-.62.46a43.19,43.19,0,0,1-4.06-10.85q-1.11-2.08-4.34-12.09c-.41,1.09-.85,2.31-1.34,3.66.31.68.64,1.35,1,2q.63,3.75,7.81,27,0,4.45,5.31,15.93a5.46,5.46,0,0,1,.63,2.54l-.63.23q-1.17-1.66-3.75-9-10-21.93-10-23.54a14.16,14.16,0,0,1-3.37-6.49l-.51,1.37a62.43,62.43,0,0,1,.77,8.57l4.37,11.54h-.63q-2.73-3.53-5.31-10.85l-1.19-4q-1.63,4.26-3.8,9.85l-.09.34q5.79,3.21,5.79,7.32,2.8,9.51,2.81,12.46,0,10.22-9.68,17.77a15.08,15.08,0,0,1-5.93,5.31q-8.74,9.93-18.11,13.62-11,8.72-20.3,10.85-10.15,2.31-11.87,3.46c-.63-.15-.94-.31-.94-.46q-1.41,0-3.75,5.54Q580.62,244,579.68,262q-8.74,10.34-8.74,18.24a19.8,19.8,0,0,0,.62,2.54l-6.25,4.85q0,3.17-7.81,9.46-3.75,0-3.75,2.54a9.75,9.75,0,0,1-4.68,4.39h-1.25a6.27,6.27,0,0,1-.94-2.77,75.33,75.33,0,0,0,2.81-14.08c1.46-3.62,2.19-6.23,2.19-7.85-.21-1.92-.31-3.08-.31-3.46q5.31-13.74,5.31-15.7,0-2.76,1.87-9.69v-1.85q-1.56-1.56-1.56-2.31a2.27,2.27,0,0,0,.62-1.38v-.23c0-.31-.2-.46-.62-.46h-1.56q-3.5,3-19.45,4.92a38.41,38.41,0,0,0-2,5q-2.89,1.68-5,9.93-3,2.19-5,11.54a31.77,31.77,0,0,1-10,9.93q-12.57,5.54-20.61,5.54-4.44,0-10.3-3.23-7.18-5.88-7.81-9.69,0-2.25-8.43-9.23-.93-1.32-1.25-8.54l0-.12c-1.63,0-3.4-.05-5.34-.05q-12.11.69-25,.69-1.56.28-1.56.69a158.11,158.11,0,0,0,19.67.92h5.93l1.56.23v.46q0,.69-11.87.92c-2.7-.15-6-.23-10-.23q-7.5.69-46.22,2.77a54.67,54.67,0,0,1-5.93,5.08q0,7-4.68,9a25.28,25.28,0,0,0-3.07-.39c.68,1.12,1.44,2.33,2.29,3.62q0,3.46,7.49,12.24,1.25,2,3.75,9.69,5.16,7.44,5.31,8.31c0,.19-.31.57-.94,1.15-1,0-2.81-2.07-5.31-6.23q-5.38-4.38-7.18-8.54a18.51,18.51,0,0,1-2.81-2.77h-.31v.46q4.44,11.43,8.74,15.93a72.19,72.19,0,0,0,3.75,7.62q2.19,1.21,5,7.62c1.1.84,2.24,3.07,3.44,6.69q2.81,3.53,2.81,5.08v.23q-2.88,0-10-11.08Q384,317.22,384,316.06a128.52,128.52,0,0,0-14.68-23.55h-.31v.23q0,.75,5.31,12.7,0,2.47,5.93,8.77a10,10,0,0,1,1.25,4.15v.23c0,.15-.42.38-1.25.69q-1.1,0-8.43-11.31-2.19-5.66-11.24-18.93,0-3.53-5.31-8.31l-1.56,1.85q-3.08-1.23-9.73-14.75c-.45,0-.89,0-1.36,0h-2.5c-2.91,0-4.37-1.3-4.37-3.92,1.68-.61,3.24-1.14,4.69-1.61q-11.13-16.51-13.28-20.78-5.24-10.4-6.56-10.39h-.94q-.78,0-8.12,18.7l-.94.46H310a1.46,1.46,0,0,0-.31-.69c.21-2.16.31-4,.31-5.54,0-.31-.2-.46-.62-.46h-.62q0,1.74-6.25,18.24-3.58,16.62-5.62,16.62h-.31a37.67,37.67,0,0,1-1.25-5.54q2.19-12.81,2.19-16.39v-1.85h-.31q-2.42,0-4.68,15.93l-7.49,22.85a17.6,17.6,0,0,1-1.21,5c0,.13,0,.24,0,.38-.16,1.23-.47,1.85-.94,1.85h-.31q-2.19,0-4.06-16.16l-.62-.23h-.31v.23a11.33,11.33,0,0,0,.31,3,38.49,38.49,0,0,0-.62,6.46h.31a12.44,12.44,0,0,0-.62,4.85v12a14.79,14.79,0,0,1-.94,3,41.06,41.06,0,0,0,1.25,5.31c-.16,1.39-.47,2.08-.94,2.08h-.63q-2.5-4.15-3.75-17.54a9,9,0,0,0,.31-2.08v-1.38q0-12.69-1.25-16.39h-.62a8.06,8.06,0,0,0-.62,2.77v4.16c-.21,2.31-.83,3.46-1.87,3.46h-.31c-.41,0-.62-.15-.62-.46-1-8.61-1.56-13.62-1.56-15a32.64,32.64,0,0,0,.94-4.85,17.26,17.26,0,0,0-.94-4.62h-.62a6.88,6.88,0,0,0-.62,2.08,9.19,9.19,0,0,0,.31,2.31,14,14,0,0,0-.62,4.39v4.39a11.92,11.92,0,0,1-.94,3.69h-.62q-.63-.86-2.19-25.85c-.21,0-.31-.38-.31-1.15q.31-5.25.31-7.85a9.93,9.93,0,0,0-.62-2.08,14.55,14.55,0,0,0,.31-3l-.62-.23h-1.87a96.62,96.62,0,0,1-12.18,3.46q-2.58,0-9.37,19.16a88.87,88.87,0,0,0-5.31,12.7c-.42,0-.83.46-1.25,1.38h-.94a11,11,0,0,0-.31-1.38q0-1.84,3.44-13.62h-.94q-2.49,5.25-8.74,21.7-4.68,9.45-8.12,18c-1.1,1.39-1.83,2.08-2.19,2.08l-.62-1.38q.63-3.63,6.87-25.85h-.94a64.34,64.34,0,0,0-5,9.23h-.94l-.63-1.62q3.44-12.06,5.62-17.54v-1.38h-.31q-2.58,3.92-3.44,3.92h-.31l-.31-1.15a132.14,132.14,0,0,1,5.31-16.39V257h-.31a57.47,57.47,0,0,0-9.76,1.73q-1.24,5.6-2.5,9.58-4.06,9.4-4.06,12l.62.69-2.19,2.54h-.31c0-.23-.42-.69-1.25-1.38-.2-.77-.41-1.15-.62-1.15q3.12-12.41,3.12-13.16V267h-.62q0,.87-4.37,10.16-4.9,20.08-10.3,27.93-3.75,8.13-3.75,9h-.94l-.31-.92,1.25-7.62q5-12,5-18.47h-.31q-1.26,0-6.25,12.7L177,307.83q-3,3.35-5.62,11.31-1.95,1.28-4.06,10.62H167c-.63-.08-.94-.7-.94-1.85v-.46a33.88,33.88,0,0,1,.94-4.39,38.18,38.18,0,0,0-.31-3.93q3.44-10.38,3.44-14.54Q178,291.54,178,283.81h-.31c-1.36,1-2.5,3.11-3.44,6.23q-6.33,7.38-6.87,14.31,0,1.09-2.19,2.31h-.62l-.31-.92,2.81-10.39a56,56,0,0,1,5.31-15.46q2.8-4,5.93-12.93c1.46-1.58,2.19-2.73,2.19-3.46v-.23h-.94c0,.77-.73,1.69-2.19,2.77H177l-.31-.92c.15-1.27,1-3.23,2.58-5.85v-.38l.36-.21c1.24-2,2.85-4.41,4.87-7.18q0-1.22,6.25-12.93,0-1.32,3.43-9.23V228h-.94q-3.19,0-8.74,7.39c-3.28,1.57-6,4.58-8.12,9q-3.67,2.78-5.62,2.77a10.05,10.05,0,0,1-7.18-3l-1.56-.23h-2.5q-4.37-3.28-4.37-14.54l-.63-.23h-.62q-5.15,4.56-8.43,16.39a96.45,96.45,0,0,0-8.12,16.62,7.14,7.14,0,0,1-2.81,2.77h-.31v-.23q0-2.31.31-6.93h-.31q-1.19,1.39-6.25,12.93l-2.81,9.23a68.69,68.69,0,0,0-3.75,12.46,133.21,133.21,0,0,0-9.68,22.85q-.78,4.62-1.56,4.62c-.42,0-.63-.15-.63-.46V309.21q3.12-13.68,3.12-14.08c1.67-3.92,2.5-6.85,2.5-8.77v-.23h-.31q-1.25.87-7.18,14.31c-.67,3.39-1.3,5.08-1.87,5.08-.41,0-.62-.15-.62-.46v-.23a54.1,54.1,0,0,1,2.5-12.24q.78,0,1.25-7.39c1.67-3.27,2.5-5.57,2.5-6.92h-.94a94.1,94.1,0,0,1-5.31,9.93h-.62c-.42,0-.63-.15-.63-.46q1.17-2.19,2.5-10.39,3.13-9.41,6.25-16.39h-.94q-3.83,6.91-5,6.92l-.62-.69v-.46a209.46,209.46,0,0,1,10.62-22.85q0-.51,6.25-12,0-1.6,5.31-9.46v-.69c0-2.31-.2-3.46-.62-3.46q8.51-17.72,10.62-24.93a13.37,13.37,0,0,0,4.37-9.93,29.64,29.64,0,0,0,4.68-10.85q2.26-3.91,8.43-3.92,1.56-.17,6.56-6.46a7.51,7.51,0,0,1,4.37-1.85c1.76,0,3.33,1.62,4.68,4.85a23.82,23.82,0,0,0-1.87,4.85v.46q0,.41,3.12,4.16a10.87,10.87,0,0,1,.62,2.08q-4.06,6-4.06,7.85a54.85,54.85,0,0,1,.62,6.69v8.08c0,2.3.1,5.46.31,9.46a9.48,9.48,0,0,0-.94,4.62c1.67.58,3,2.42,4.06,5.54q0,1.38,2.19,1.38a11.58,11.58,0,0,0,6.25-6.23,60.66,60.66,0,0,1,7.81-7.39,4.42,4.42,0,0,0,1.87-3.23,28.87,28.87,0,0,1-.62-3.92q0-1.28,7.81-8.54,2.65-7.56,8.43-10.39a49.37,49.37,0,0,1,7.18-9q0-3.47,8.74-10.39c2.5-3.53,4.69-5.77,6.56-6.69h.63V155c0,.42-1.56,2.58-4.68,6.46q0,1.27-3.75,7.16a8.14,8.14,0,0,0-.94,3h.62q3.28-5,15.93-15.23,5-5.94,6.56-6.69h.31V150q-.78.93-1.56,4.62-5.62,6-5.62,8.31v.69h.31q7.26-4.62,8.43-4.62a12.45,12.45,0,0,0-2.81,5.54,17.3,17.3,0,0,0-6.56,7.85,14.22,14.22,0,0,0-3.12,4.16l.63.23c.57,0,1.71-.85,3.43-2.54q1.95,0,4.68-3.93l.62-.23h.31v.69q-13.42,13.68-13.43,20.55-4.37,5-4.37,6.69l.62,4.39-6.25,13.85a6.07,6.07,0,0,1-1.87,4.39q0,3.58-6.56,19.39c-.54,1.83-1,3.5-1.44,5q5.61-2.32,15.26-5.74a56.06,56.06,0,0,0,3.43-9.46q5-7.32,5-9.23v-2.77q0-2.09,5.31-10.85,2.18-9.28,10-28.85,2.1-3.87,5.93-16.16c3-7.54,6-11.31,9.37-11.31s5,.46,5,1.38c.16,4.12,1.09,6.43,2.81,6.93h.62l4.68-1.15q2,0,2.81,3.69l-.31.46q0,4.91,5.31,6.69a5.29,5.29,0,0,1,.94,2.77q-2.19,2.25-2.19,4.16.22,6.69.62,6.69a34.12,34.12,0,0,0-.94,6.92q.32,16.28.31,18.93a11,11,0,0,0,.31,1.38,4.46,4.46,0,0,0-.63,2.54v.23q0,.81,1.56,2.31v.23l-.63,2.08c0,1.07.1,3.31.31,6.69l.62.23h.63q3.3-1.28,6.37-2.2.57-2.15,1.05-4.32a89.85,89.85,0,0,0,6.87-18.24q8.11-12.52,8.12-14.54v-5.77q0-.85,4.68-6.23,0-2.9,4.06-7.39L316.6,164a29.69,29.69,0,0,1,5.62-.92,18.88,18.88,0,0,1,2.23-2.73,6.38,6.38,0,0,1-.75-1.06,36.37,36.37,0,0,1-5.62-5.54,44.77,44.77,0,0,1-5.55-4.15q-.64,1.75-1.2,3.15,5.13,6.12,7.07,7.93v.23h-.62c-2.59-2.21-5-4.29-7.23-6.26a27.81,27.81,0,0,1-1.21,2.51l-1.25.69h-.31q-1.48,0-2.19-4.62c.12-1,.22-1.92.3-2.72q-7-6.28-11.22-10.67a7.37,7.37,0,0,0-2.81-.92h-.63l-.26,0c.56.58,1.15,1.2,1.82,1.86v.92h-.31c-1.12-.07-2.49-.86-4.12-2.35-9.18,1.53-14.9,2.29-17.12,2.29a2.43,2.43,0,0,1-2.5-2.08c6.12-2.45,10.82-4.16,14.15-5.13a81.17,81.17,0,0,1-7.59-8.2q0-1.84-13.12-15.23-3.12-5.94-10.3-11.77Q248.67,92.85,241,87.71q-.39,0-5.62-5.77h-3.12Q220,87.42,220,90.94v3.69q0,1.38-3.44,5.31,0,5.2-3.75,15.93,0,4.44-4.06,11.31-.85,6.93-2.81,6.93l-.63-.69v-6.69h-.94q-5.31,18.12-7.81,21.47H196c-1,0-1.92-1.62-2.81-4.85a17.52,17.52,0,0,0,.94-5.31v-3.93c0-.15-.1-.23-.31-.23l.31-.46q0-2.76,2.5-12.23H196A8.68,8.68,0,0,1,194.4,124a17,17,0,0,0-1.87,8.31l-.62.23h-.31c-.41,0-.62-.15-.62-.46q0-2.53,3.75-27a42.54,42.54,0,0,0,2.19-13.16v-.23l-.15-.23q-2.58.81-5.78,1.68c-.73,1.12-1.35,4.88-1.87,11.31.21,2.66.31,4.2.31,4.62l-.31,2.08a17.3,17.3,0,0,1,1.25,5.31V118h-.62c-1.67-1.07-2.5-2.15-2.5-3.23h-.62c-.41,1.69-.62,2.62-.62,2.77a59.26,59.26,0,0,0,1.25,10.85c-.21,1.62-.31,2.54-.31,2.77a31.47,31.47,0,0,1,.94,4.62l-.31,1.16q-.62,7.72-.62,9.23v1.15q0,1.26.94,9.69c-.16,1.23-.47,1.85-.94,1.85h-.31q-2.19,0-4.06-16.16l-.62-.23h-.31v.23a11.33,11.33,0,0,0,.31,3,38.49,38.49,0,0,0-.62,6.46h.31A12.44,12.44,0,0,0,181,157v12a14.79,14.79,0,0,1-.94,3,41.06,41.06,0,0,0,1.25,5.31c-.16,1.39-.47,2.08-.94,2.08h-.63q-2.5-4.16-3.75-17.54a9.58,9.58,0,0,0,.31-2.08v-1.38q0-12.69-1.25-16.39h-.62a8.06,8.06,0,0,0-.62,2.77V149c-.21,2.31-.83,3.46-1.87,3.46h-.31c-.41,0-.62-.15-.62-.46-1-8.61-1.56-13.62-1.56-15a32.64,32.64,0,0,0,.94-4.85,17.26,17.26,0,0,0-.94-4.62h-.62a6.88,6.88,0,0,0-.62,2.08,9.19,9.19,0,0,0,.31,2.31,14,14,0,0,0-.62,4.39v4.39a11.92,11.92,0,0,1-.94,3.69h-.62q-.63-.86-2.19-25.85c-.21,0-.31-.38-.31-1.15q.31-5.25.31-7.85a9.93,9.93,0,0,0-.62-2.08,15.28,15.28,0,0,0,.31-3l-.62-.23h-1.87a96.62,96.62,0,0,1-12.18,3.46q-2.58,0-9.37,19.16a88.87,88.87,0,0,0-5.31,12.7c-.42,0-.83.46-1.25,1.38h-.94a11,11,0,0,0-.31-1.38q0-1.85,3.44-13.62h-.94q-2.49,5.25-8.74,21.7-4.68,9.45-8.12,18c-1.1,1.39-1.83,2.08-2.19,2.08l-.62-1.38q.63-3.63,6.87-25.85h-.94a64.34,64.34,0,0,0-5,9.23h-.94l-.63-1.62q3.44-12.06,5.62-17.54v-1.38h-.31q-2.58,3.92-3.44,3.92h-.31l-.31-1.15a132.14,132.14,0,0,1,5.31-16.39v-.23h-.31a57.47,57.47,0,0,0-9.76,1.73q-1.24,5.6-2.5,9.58-4.06,9.41-4.06,12l.62.69-2.19,2.54h-.31c0-.23-.42-.69-1.25-1.38-.2-.77-.41-1.15-.62-1.15q3.12-12.41,3.12-13.16v-.92h-.62q0,.87-4.37,10.16-4.91,20.09-10.3,27.93-3.75,8.13-3.75,9h-.94l-.31-.92,1.25-7.62q5-12,5-18.47h-.31q-1.26,0-6.25,12.7l-1.87,8.08q-3,3.34-5.62,11.31-2,1.28-4.06,10.62h-.31c-.63-.08-.94-.7-.94-1.85v-.46a33.88,33.88,0,0,1,.94-4.39,38.18,38.18,0,0,0-.31-3.93q3.44-10.38,3.44-14.54Q82,149.79,82,142.06h-.31c-1.36,1-2.5,3.11-3.44,6.23q-6.33,7.38-6.87,14.31,0,1.1-2.19,2.31h-.62l-.31-.92,2.81-10.39a56,56,0,0,1,5.31-15.46q2.81-4,5.93-12.93c1.46-1.58,2.19-2.73,2.19-3.46v-.23h-.94c0,.77-.73,1.69-2.19,2.77h-.31l-.31-.92c.15-1.27,1-3.23,2.58-5.85v-.38l.36-.21c1.24-2,2.85-4.4,4.87-7.17q0-1.22,6.25-12.93,0-1.32,3.43-9.23V86.22H97.3q-3.19,0-8.74,7.39c-3.28,1.57-6,4.58-8.12,9q-3.68,2.77-5.62,2.77a10.05,10.05,0,0,1-7.18-3l-1.56-.23h-2.5q-4.36-3.29-4.37-14.54l-.63-.23H58q-5.15,4.56-8.43,16.39a96.45,96.45,0,0,0-8.12,16.62,7.14,7.14,0,0,1-2.81,2.77h-.31v-.23q0-2.31.31-6.93h-.31q-1.18,1.4-6.25,12.93l-2.81,9.23a68.69,68.69,0,0,0-3.75,12.46,133.21,133.21,0,0,0-9.68,22.85q-.78,4.62-1.56,4.62c-.42,0-.63-.15-.63-.46V167.47q3.12-13.68,3.12-14.08c1.67-3.92,2.5-6.85,2.5-8.77v-.23h-.31q-1.25.87-7.18,14.31c-.67,3.39-1.3,5.08-1.87,5.08-.41,0-.62-.15-.62-.46v-.23a54.1,54.1,0,0,1,2.5-12.24q.78,0,1.25-7.39c1.67-3.27,2.5-5.57,2.5-6.92h-.94a94.1,94.1,0,0,1-5.31,9.93H8.63c-.42,0-.63-.15-.63-.46q1.17-2.19,2.5-10.39,3.14-9.41,6.25-16.39h-.94q-3.83,6.92-5,6.92l-.62-.69V125a209.46,209.46,0,0,1,10.62-22.85q0-.51,6.25-12,0-1.61,5.31-9.46V80c0-2.31-.2-3.46-.62-3.46q8.51-17.72,10.62-24.93a13.37,13.37,0,0,0,4.37-9.93,29.64,29.64,0,0,0,4.68-10.85q2.27-3.91,8.43-3.92,1.56-.16,6.56-6.46a7.51,7.51,0,0,1,4.37-1.85c1.76,0,3.33,1.62,4.68,4.85a23.82,23.82,0,0,0-1.87,4.85v.46q0,.4,3.12,4.16A10.87,10.87,0,0,1,77.33,35q-4.06,6-4.06,7.85a54.85,54.85,0,0,1,.62,6.69v8.08c0,2.3.1,5.46.31,9.46a9.48,9.48,0,0,0-.94,4.62c1.67.58,3,2.42,4.06,5.54q0,1.38,2.19,1.38a11.58,11.58,0,0,0,6.25-6.23A60.66,60.66,0,0,1,93.57,65a4.42,4.42,0,0,0,1.87-3.23,28.87,28.87,0,0,1-.62-3.92q0-1.27,7.81-8.54,2.66-7.56,8.43-10.39a49.37,49.37,0,0,1,7.18-9q0-3.47,8.74-10.39c2.5-3.53,4.69-5.77,6.56-6.69h.63v.46c0,.42-1.56,2.58-4.68,6.46q0,1.27-3.75,7.16a8.14,8.14,0,0,0-.94,3h.62q3.28-5,15.93-15.23,5-5.94,6.56-6.69h.31M356,22.24h.94c1-.24,2.58-.5,4.67-.79L357.05,21c-.31.23-.67.48-1.09.76h0v.46M331.29,121h1.25q1.63-.69,17.17-1.38l.71-.19a1.21,1.21,0,0,0-.16-.16q2.5-1.62,3.75-16.16a53.34,53.34,0,0,0,3.43-15.24,60.53,60.53,0,0,0,2.19-14.08q1.88-6.12,5.93-24.7V43.59a19.18,19.18,0,0,1,1.56-5.08v-.46c0-.31-.2-.46-.62-.46h-3.43l-.63-.23q3.44-2.59,3.44-3.23V33.9h0l-1.49-.19-1.55.31q-.85,1-7.18,2.31c-.11.81-1.77,1.81-5,3q-1.17,0-1.56,6.46C347,48,346,49.41,346,50v1.38q0,9.41-4.06,21.7l-4.37,19.16V98l-3.12,10.85q0,4.16-3.12,10.85V121M616.23,54.33h0v.91h.63q9.51-1.22,14.36-4.85,10.69-2.09,15.93-7.16,5.31-4.09,5.31-5.54V35.15a15.32,15.32,0,0,0-4.06-.69q-13.74,1.44-13.74,3-4.45,0-12.49,4.62c0,.58-.94,1.2-2.81,1.85a2.36,2.36,0,0,0-.94,1.62v1.62c0,1.24-.73,3.62-2.19,7.16m-77.76,0h0v.91h.63q9.51-1.22,14.36-4.85,10.69-2.09,15.93-7.16,5.31-4.1,5.31-5.54V35.16a15.32,15.32,0,0,0-4.06-.69q-13.74,1.44-13.74,3-4.46,0-12.49,4.62c0,.58-.94,1.2-2.81,1.85a2.36,2.36,0,0,0-.94,1.62v1.62c0,1.24-.73,3.62-2.19,7.16M382.11,60.9h.31c1.57,0,4.58-2.62,9.06-7.85q3-1.15,10-8.08a7.91,7.91,0,0,0,1.25-3.92V39.2a4,4,0,0,0-3.12-4.15h0q-3.58-.23-6.87-.23h-1.56c-2.3,0-3.44.62-3.44,1.85l.31,1.62q-2.81,0-2.81,7.62v4.62q0,1.09-2.5,7.85a1.46,1.46,0,0,1,.31.69c-.31,0-.63.23-.94.69V60.9M187.92,38.79c.86-.12,1.3-.3,1.3-.56V38h-1.36c0,.29,0,.55.06.79M251,42.38q-5.61-.23-7.49-.23-7.65,0-8.74,10.39a24.13,24.13,0,0,0-1.25,6.23c0,.77.62,1.15,1.87,1.15h.94c1.51,0,3.6-1.15,6.24-3.45a83.34,83.34,0,0,0,15.92-6q1.56,0,8.43-4.62,6.71-2.77,8.43-4.85v-.46c0-.93-2-1.46-5.93-1.62q-3,1.62-18.42,3.46m-63.64,3.84a.65.65,0,0,0,.26-.14l.63.23h1.87q8.11-.81,8.12-1.62v-.23H196.7L193,44c-1.39,0-3.17,0-5.3,0-.12.81-.21,1.57-.26,2.25m84.26,39.56h0q0,2,6.87,8.54c0,.42,2,2.27,5.93,5.54q3.29,7.79,14.68,16.85c1.94,1.46,3.76,2.86,5.48,4.22q3.6-11.1,4.2-16.74,1.88-5,8.12-29.08v-.23a21.35,21.35,0,0,0-2.19-3.69V71Q321,55.31,321,51.33a8.45,8.45,0,0,0-1.6-3.49,11.05,11.05,0,0,1-2.15.78q-1.71,2.6-24,8.31a126.74,126.74,0,0,1-29,10.85c-2.08.42-3.12.8-3.12,1.15v.46q0,1.33,10.62,16.39M503.18,47.87h-.94l-10.3,1.39h0c-2.95,1.17-5.43,2.06-7.49,2.71v.12Q486,78.41,487.58,78.4q1.88,0,5.62,3.46,7.19,1,7.18,1.62v.23a13.77,13.77,0,0,0-1.56,3.23c0,.46.32,2.23.94,5.31-.78,1.47-3,2.85-6.56,4.16a1.44,1.44,0,0,0-.31.92V99a15.2,15.2,0,0,0,.31,3.23,11.33,11.33,0,0,0-.31,3c.2.66.38,1.34.56,2A95.86,95.86,0,0,1,501,90.58a48.11,48.11,0,0,0,5.62-12.93q3.67-7.34,9.37-21.93A3.1,3.1,0,0,0,517.55,53c-.32-.61-.63-.92-.94-.92h-.31q-3.59,0-8.74,3.69a9.27,9.27,0,0,1-2.5.46c-.94-.3-1.46-.61-1.56-.92V55q0-1.91,3.43-3.46a1.46,1.46,0,0,0,.31-.69h-1.87q-4,0-10.3,4.15a4.35,4.35,0,0,1-2.19.69q0-1.39,10-6.93a1.42,1.42,0,0,0,.31-.92m-314,34.28h.65c2.78-1.06,5.42-1.94,7.95-2.65l.48-2.25Q203,69.52,203,62.47a22.72,22.72,0,0,0,2.19-9.23c0-2.61-.62-3.92-1.87-3.92-1.61-.15-3.39-.23-5.31-.23l-10.58.55q.27,14.34.27,16.82a11,11,0,0,0,.31,1.38,4.46,4.46,0,0,0-.63,2.54v.23q0,.81,1.56,2.31v.23l-.63,2.08c0,1.07.1,3.31.31,6.69l.62.23m382.9,22.5a99.93,99.93,0,0,1,6.65-14.07,48.11,48.11,0,0,0,5.62-12.93q3.68-7.34,9.37-21.93A3.08,3.08,0,0,0,595.31,53h0a4.27,4.27,0,0,0-.22-.38,13.8,13.8,0,0,1-1.65,2.92A37.88,37.88,0,0,1,574.7,70Q560.35,74.32,560.34,77q.17,4.44,5,17.08a123.88,123.88,0,0,1,6.77,10.6M679.93,91.29q11.4-2.76,16.86-3.69l.94-.92v-.23h0A28.79,28.79,0,0,1,699,79.75q-.78-20.31-5.93-20.31h-2.19c0,1-1.15,1.66-3.44,2.08l-2.5,7.39q-1.41,0-2.5,9.46a29.65,29.65,0,0,0-3.12,12.46c.05.31.26.46.62.46M451.35,78.41h0a29.65,29.65,0,0,0-3.12,12.46c.05.31.26.46.62.46q11.4-2.76,16.86-3.69l.94-.92v-.23a28.79,28.79,0,0,1,1.25-6.69q-.78-20.31-5.93-20.31h-2.19c0,1-1.15,1.66-3.44,2.08L453.85,69q-1.41,0-2.5,9.46m-296.79,12h2.81q2.1,0,7.49-3V78.69c-.2-4.51-.83-6.89-1.87-7.16h-.62q-4.06,3.34-4.06,9.46-3.75,6.53-3.75,7.85v1.62m223.49,15.46h.31q5.47,0,7.81-3.69a17.13,17.13,0,0,0,4.06-5.54q5.46-3.06,8.74-10.85,6.25-5.49,6.25-7.85V75.68c0-.23-.42-.53-1.25-.92h-2.81q-3.29,0-12.49,5.31-4.07,0-6.25,5.54h-.94v1.62c0,.15.1.23.31.23a54.09,54.09,0,0,0-3.12,12c-.36,0-.57.77-.62,2.31l.31,1.15a7.18,7.18,0,0,0-.94,2.77l.63.23M585.64,133c-.47,0-.78-.62-.94-1.85a5.32,5.32,0,0,0,.94-2.54V127H585a17.23,17.23,0,0,0-3.16,5.94,24.75,24.75,0,0,1,1.59,8.6q1.49,2.94,4.06,15.93c.41,0,.62.77.62,2.31V160a.43.43,0,0,1-.09.26,22.3,22.3,0,0,1,3.6-.4c0-.11.32-.34.94-.69a6.67,6.67,0,0,0,2.5.69H597a3.24,3.24,0,0,0,1.25-.23,17.56,17.56,0,0,0,4.68.69q11.25-2.08,12.18-2.08,16.94,0,25,5.77c1.35.46,2.57.94,3.68,1.43.57-2.38,1.3-5.32,2.18-8.85l0,0a32,32,0,0,1,1.56-8.18c-.25-.63-.56-1.34-.89-2.08l-.05.1q-3.19,0-7.18,14.54h-.31c-.41,0-.62-.15-.62-.46V158c.71-3,1.34-6.36,1.9-9.95-.55-1.22-1.18-2.84-1.9-4.88-1.67-1.7-2.92-6-3.75-12.93-1.81-4.3-3.55-8.38-5.21-12.27l-2,.78h-.94v-.23l2.57-1.35-1.32-3.07q-4.11,1.41-9.37,3.27-11.08,5.53-13.43,5.54h-.62v-.46q4.22-1.8,20.61-9.93l1.82-.72q-5.37-12.4-9.63-21.73c-1.24-4-1.87-6.5-1.87-7.39h-.94q-9.68,1.91-9.68,6.46,0,.58-5.93,7.85a163.82,163.82,0,0,1-9.06,26.08q-1.49,9.93-4.06,9.93m-77.77,0c-.47,0-.78-.62-.94-1.85a5.32,5.32,0,0,0,.94-2.54V127h-.62q-2.81,3.18-4.37,10.39A64.28,64.28,0,0,0,499.45,148a84.3,84.3,0,0,0-4.83,16c2.06.3,3.11.53,3.11.69v.69a48.64,48.64,0,0,0-1.87,4.62v.31c.3,0,.59,0,.86,0H497c.32,0,.63.23.94.69v.23c0,.11-.62.32-1.84.63.62,1.23,2.39,2.77,5.35,4.62.67.46,1.2,1.69,1.56,3.69a30.46,30.46,0,0,1-4.68,5.08c0,.3,1,1.69,3.12,4.15v.92q0,1.62-5,6v3.23c0,.81-1,3.65-3.12,8.54q0,1.27-2.19,14.08l1.56,4.16q-3.12,7.68-4.37,24.47c-.18.61-.33,1.17-.47,1.72q3.19.48,6.33,1.11v.69l-2.19.23h-.31l-4.32.15a14.21,14.21,0,0,0-.27,2.28q6.3.67,14.73,2.17c1.49-3.28,3.33-7,5.55-11.12q0-1.73,3.75-9.69a40.09,40.09,0,0,1,1.56-6.46V232q6.72-12.81,7.81-18.47,3.19-4.44,4.06-12.23c.37-1,.73-1.87,1.09-2.73-6.39,3.59-9.6,6-9.6,7.34-1.62,1.69-2.76,2.54-3.44,2.54A1.33,1.33,0,0,1,511.4,207q7.82-7.62,7.81-8.08a100.42,100.42,0,0,1,9.53-6.54,12,12,0,0,1,3.36-3.85c.41,0,.62.19.62.46v.23c-.21.41-.41.86-.61,1.33.28-.14.57-.29.84-.41,0-.18,1.61-.94,4.78-2.24a36.12,36.12,0,0,0,1.53-3.54c-.34.23-.68.46-1,.7a2.92,2.92,0,0,1-2.5,1.15v-.46c1.37-1.18,2.75-2.25,4.13-3.23q3.12-2.42,4.37-9a72,72,0,0,0,5.31-12.47q1.24-1.38,1.56-1.38l.31.46v.23a80,80,0,0,1-2.5,9.46,18.28,18.28,0,0,1-1.56,3.46h-.31V171h-.31q-.78,0-2.19,5.31h.31q.78,0,1.56-2.31h.31v.69a26.87,26.87,0,0,1-1.8,4.79c.85-.43,1.71-.82,2.56-1.17.55-1.12,1.13-2.32,1.74-3.62q5.24-10.87,13.33-26.56c-.56-1.23-1.2-2.85-1.93-4.93-1.67-1.7-2.92-6-3.75-12.93q-10.3-24.48-17.49-40.17c-1.24-4-1.87-6.5-1.87-7.39h-.94q-9.68,1.91-9.68,6.46,0,.58-5.93,7.85a163.82,163.82,0,0,1-9.06,26.08q-1.49,9.93-4.06,9.93m-65.26-20.46-1.25-.23h0q-2.27,0-5.93,12-1.8,1.44-5,17.08c-.93,1.08-1.56,1.62-1.87,1.62s-.52-2.08-.94-6a36,36,0,0,0,1.56-6v-.23h-.31q-.87.34-5,12,0,1-8.74,23.55c-.43,1.73-.83,3.15-1.2,4.31A9.41,9.41,0,0,0,418,172H419q4.07,0,13.43.46,14.28-.93,26.23-2.31c1.83.15,3,.23,3.44.23q5.31-.41,5.31-.69,1.56.28,1.56.69,0,1.26-13.43,3l-.63.69.63.23c5.21,0,11.53-.34,18.9-1,.07-.37.14-.75.22-1.11l.31-.92h1.25c.14.44.29,1.06.46,1.82l3.75-.39c.15-.73.31-1.51.47-2.36a35.08,35.08,0,0,1,1.72-4.41v-2.32l-2.5-17.08V135.42h-.62c-.21,2.31-.31,3.93-.31,4.85l.31,2.77q-2.1,17.09-3.12,17.08H476q-1.09-2.19-2.19-12.23a29.16,29.16,0,0,0,.62-3.93v-.23a33.29,33.29,0,0,0-.31-5.08,21,21,0,0,0,.31-3.23c-.21-2.31-.31-4-.31-5.08h-.62a24.33,24.33,0,0,0-1.25,3.23H472q-1.24,0-1.56-5.31l.63-14.54q-.31-3.23-.31-6.23A14.25,14.25,0,0,0,471,105a3.24,3.24,0,0,0-1.25.23l-1.56-.69h-1.56A107.65,107.65,0,0,1,456,107q-.71,1.34-13.12,4.85c0,.46-.1.69-.31.69M342.42,141l.31-.46v-.46a10.54,10.54,0,0,0-5.93,1.38v.46h1.87v.23a20.29,20.29,0,0,1-4.68.69c-.41,0-.62-.15-.62-.46v-.23a34.89,34.89,0,0,1,12.18-3.23,113.68,113.68,0,0,0,11.55-4.85l-.62-.23h-4.37a35.3,35.3,0,0,0-8.74,3q-6.09,2.78-8.43,2.77a72.3,72.3,0,0,0-14.27,2l-.06.17,6.29,6.5q.24,2.25,8.43,8.77,0,.93,15.61,13.85a60.45,60.45,0,0,1,4.63,5.2,7.8,7.8,0,0,1,2-.26c.63.15.94.31.94.46l-1.17,2.43c.16.31.31.6.42.87a79.84,79.84,0,0,1,18.55-12.76,7.82,7.82,0,0,1,5-2.08V165q0,.41-5.93,5.31a13.25,13.25,0,0,0-1,1.63l1.23.06q14-10.23,19.15-10.24h.62q0,1.8-12.49,10.39c0,.06-.11.13-.16.2l10,.49h1.2c2.55-2.14,4.31-3.22,5.3-3.22a24.07,24.07,0,0,0,6.25,1.15,24.15,24.15,0,0,0,4.68-1.85h.94l.59.38q.9-4.05,3.08-12.71,0-4.56,4.06-15.7h-.31q-.78.23-3.12,5.54-3.19,0-7.18,14.54h-.31c-.41,0-.62-.15-.62-.46V158q1.26-5.31,2.19-11.77c.78,0,1.62-2.69,2.5-8.08v-.23a9,9,0,0,0-.31-2.08c1.25-1.26,2.08-3.65,2.5-7.15l6.25-14.31v-.23a78.56,78.56,0,0,0-9.06,2.31h-.31v-.23q.54-1.39,8.74-4.85v-.69h-.31q-6.28,1.76-13.88,4.53l-8.84,6.84q-.63,0-5.62,4.62-3.67.7-10.93,4.16-2,0-6.25,2.77a95,95,0,0,0-9.68,1.62q-.87,0-21.86,5.77m-326-22.39h.94q1.88-3.47,1.87-4.62l-.62-.23q-2.19,3.58-2.19,4.85M351.6,124a7.75,7.75,0,0,0,1.48-1.18h0a1.14,1.14,0,0,0-.12-.41l-.12.07-1.25,1.15V124m144.09,10.32a11.17,11.17,0,0,1-.52-1.09c-.7,2.46-1.49,5.39-2.37,8.81.26,2.48.39,3.91.39,4.28a29.54,29.54,0,0,1-.62,4.62,30,30,0,0,1,.31,3.46c-.37,4-.63,7.16-.78,9.39h0l1.14.15a112.8,112.8,0,0,1,4-26.44q0-1.5,2.19-11.77v-1.85h-.94c-.44.46-1.09,2-1.95,4.74,0,1.35.08,2.71.08,4.09v1.15c0,.31-.2.46-.62.46h-.31m-216.55-9.48h0q0,.57,5,5.54c0,.45.49,1.09,1.46,1.93a3.15,3.15,0,0,1,1.05-1.69q-2.42-2.38-6.89-6.47h-.63v.69m213.12,1.45c.16-.71.31-1.34.43-1.9h-.43v1.9M641,146c.62-.74,1.28-3.11,2-7.1-.64-1.26-1.31-2.58-2.06-4q-3.12-8-3.75-10.39h-.62v.92q.93,1.33,3.43,15.47a23.48,23.48,0,0,0,1,5.11m-77.62.54,2.4-4.62c.12-.4.24-.77.36-1.12-.88-1.78-1.88-3.74-3-5.9q-3.12-8-3.75-10.39h-.62v.92q.93,1.33,3.43,15.47a25.72,25.72,0,0,0,1.19,5.64m162.46-18.09h.31c.41,0,.62-.15.62-.46s-.2-.46-.62-.46h-.31v.92M327.19,132.9q7.74-1.36,8.4-1.36h0q.9-1.28,11.36-3.95l-1,.14q-13.38,2.65-18.78,5.17m377.42-3.29h.31c.41,0,.62-.15.62-.46v-.23c0-.31-.2-.46-.62-.46l-.31.46v.69m-231.09,0h.31c.41,0,.62-.15.62-.46V129c0-.31-.2-.46-.62-.46l-.31.46v.69m101.17.4h0c.2,1.49.46,2.88.76,4.22.16-.87.36-1.92.6-3.13a10.05,10.05,0,0,0-1-1.55l-.31.46m85.07,3.34a13,13,0,0,0,.5-2.39v-.23H660c-.17.06-.42.44-.76,1.12.21.49.4,1,.57,1.49m-321,.92H339v-.46h-.93c0,.31.26.46.62.46m-15.23,2h0a12.82,12.82,0,0,0-2.42,4.29,56.32,56.32,0,0,1,6.71-2.09q.93-1.38,8.43-3l.31-.46v-.23q-5.77.22-8.43.23c-1.54-.09-2.78-.2-3.75-.34a2.3,2.3,0,0,0-.86,1.61m161,26.41a9.8,9.8,0,0,1,2.65-2.53h1.25c.79,1.14,1.44,2,2,2.61q-.62-3.93-1.14-7.22l-.35.13c-.41,0-.62-.15-.62-.46.09-1.16.21-2.37.35-3.59q-1.92-12.26-1.92-13v-2.08l-.31-1.16h-.62V137a125.36,125.36,0,0,1-1.56,21.24h0a26.06,26.06,0,0,0,.32,4.41M301.7,141c0-.47-.06-1-.08-1.48l-1.25-.18h0L301.7,141m282.11,20.24c1.35-.33,2.57-.6,3.64-.8a42.86,42.86,0,0,1-4-10.76,90.56,90.56,0,0,1-3.69-10.09c-.39,1-.77,2.14-1.14,3.35l.15.28c.32,2,2,8,5,18m-27.33,9.22c1.88-1.06,3.6-1.95,5.16-2.69l.09-.2h.33q5-2.32,7.71-2.32l1.19-.37a99.58,99.58,0,0,1,.7-10.32l-1-3.48a37.39,37.39,0,0,0-1.43-3.75c-.63,2.52-1.29,5.22-2,8.14l-.63.23c-.41,0-.62-.15-.62-.46.28-3.6.81-7.5,1.55-11.64l-.26-.55c-.7,2.07-1.55,4.66-2.54,7.8-.16.48-.31,1-.47,1.48q-4.29,9.85-7.75,18.14M306.31,146.67V146l-.5.1.5.61m15.61,4.89h0c.05.31.26.46.62.46h.62v-.23c0-.23-.31-.46-.94-.69l-.31.46m-308.28-.17H13L12.4,153h.3c.42,0,.73-.54.94-1.62m562.67,11.83h0c1.4-.41,2.7-.78,3.93-1.11a32.2,32.2,0,0,1-2.11-5.78,13.23,13.23,0,0,1-2.58-4.09c-.28.83-.56,1.7-.84,2.62.13,1.42.23,3,.3,4.94l1.3,3.42M323.18,152.48c2.12,2.42,3.48,3.73,4.05,3.92h.62v-.23c-1.87-2.45-3.42-3.68-4.67-3.69h0M70.47,161.32a1.23,1.23,0,0,0,.94-1.38h0v-1.38h-.63l-.31,1.15v1.62m501.82,3.14,2.38-.72c-.41-1-.82-2.08-1.22-3.22l-.14-.48c-.34,1.4-.68,2.87-1,4.42m-232.56,8.8a19.74,19.74,0,0,1-4.14-2.89c-.62,1.08-1.6,2.68-3,4.83v.46c.11,1.85.32,2.77.63,2.77q-5,8.31-5,9.23v.69a13.28,13.28,0,0,0,.31,2.54,11.27,11.27,0,0,0-1.25,4.39v.94h.62q3.51-.47,13.74-10.16,9.68-5.09,9.68-7.16a11.1,11.1,0,0,1,1-1c-2.65-1.92-5.9-4.54-9.79-7.89a55,55,0,0,1-10.23-8.22v.69a4,4,0,0,0,.06.69,46.89,46.89,0,0,1,3.36,4.58l.33.26a1.33,1.33,0,0,0,.27.63c2.68,1.8,4,3.17,4,4.13v.46h-.62M85.47,165.72h.62l.62-1.62h0v-.23h-.94c-.21,1.12-.31,1.73-.31,1.85M555,174q1.92-.85,4.54-1.85c.16-.3.33-.6.48-.9h-1.18c-1.31.83-2.49,1.5-3.55,2.05-.1.24-.19.47-.29.7m36,43.39h1.25q10.77-3.59,16.86-8.54,9.6-4.62,11.87-9.7,9.38-9.18,9.37-14.31h0v-2.08q0-2-.31-7.85a18.55,18.55,0,0,0-10.62-3.23q-11.55,2.08-11.55,4.39a9.05,9.05,0,0,1-6.56,2.77c-2.3,1.11-3.44,3.12-3.44,6l-4.06,12.7a4.08,4.08,0,0,0,.94,2.08q-4.37,13.17-4.37,15.93v1.39a.55.55,0,0,0,.63.46m-111.24-42-2.6.5c.18,1,.37,2.17.57,3.47h.3c.49,0,1.06-1.33,1.73-4m-6,1.15-3,.57c-3.34.3-5,.76-5,1.38v.23h.31a45,45,0,0,0,5.93-.46l.31.46v.23q-5.39,3-17.8,4.85a106.48,106.48,0,0,1-17.8,1.62,11.76,11.76,0,0,0-3.44,1.38H433q-4.85,0-18.11.46-1.87,1.84-1.87,7.62V199l5,.69h.62q19.2-.91,28.1-.92c0,.15.1.23.31.23q0,1.38-9.37,2.77v.69H438a16.14,16.14,0,0,0,3.75-.46c1,.15,3.23.31,6.56.46q6.33-.47,13.43-.46c1.43,0,2.69.07,3.8.11.12-1.53.23-3.12.34-4.78a5.38,5.38,0,0,0,1.56-3.23v-6h.31c.47,0,.78.54.94,1.62a9.19,9.19,0,0,1-.31,2.31h0a63.94,63.94,0,0,1,.62,9.23v1.07a14.26,14.26,0,0,1,1.67.24q1.24-15.33,3.13-26m81.91,1.21c.83-.23,1.25-.46,1.25-.69l-.62-.23c-.83.23-1.25.46-1.25.69l.62.23M544,222h.94a6,6,0,0,1,2.5-2.54h.31l.62.23q-5.54,13-8.19,20.17,9.32-4.47,11.54-4.47c2.65,0,4.94-1.47,6.87-4.39-.21-1.92-.31-3-.31-3.23q7.18-2.43,7.18-5.31l1.25-2.31v-.23a37.66,37.66,0,0,1,4.68-17.54q0-1.67,5.93-14.08a21.05,21.05,0,0,0,1.25-6.23h0v-.23c0-.8-.32-1.26-.94-1.38h-1.25A84,84,0,0,0,556.67,188q-2.24,6.68-4.9,13.66-4.07,13-7.81,19.85V222m-1.53-36.78a19.72,19.72,0,0,1,2-1c.54-1,1.13-2.06,1.77-3.3-.78.28-1.53.59-2.27.91l-1.52,3.41m-180.16,5.45a30.61,30.61,0,0,1,4.37-1.39c.41,0,.62.19.62.46a82.59,82.59,0,0,0-9.68,8.77q-3,1.27-7.49,6-2.1,1-5.93,6.69-5.62,2.59-5.62,6.23l-.31,1.62q.86,4.84,8.43,11.08a43.42,43.42,0,0,0,7.18,8.08q5.57,7.23,13.52,16.26c2.67-.39,4.26-.65,4.75-.79,1.66,0,2.7-1.07,3.12-3.23v-3.69c0-1.35.73-3.73,2.19-7.16v-.46c-.41-3.39-.62-5.15-.62-5.31l3.12-8.31a79.08,79.08,0,0,1,4.06-9.23v-.46c0-1.54-.94-2.31-2.81-2.31h-.62a36.83,36.83,0,0,0-4.06.23q-9.37-.91-9.37-4.15v-.23q3.36-3,10.62-4.39,0-4.16,4.06-4.15c4.58-.61,6.87-1,6.87-1.15h0q2.26,0,4.37-13.85Q375.57,183,370.39,182L367.58,184q-5.31,5.25-5.31,6.46v.23m195.47-5.94c1-.54,2.08-1.11,3.29-1.71v-.46h-.31a17.74,17.74,0,0,0-2.37.27c-.2.64-.4,1.27-.61,1.91m-13.81,18.84h.31q1.49-.47,5.93-10.85a9.51,9.51,0,0,0,1.72-2.33l-.23,0h-.31v-.23c0-.7.65-1.57,1.94-2.6.5-1.11,1-2.39,1.56-3.83a29.28,29.28,0,0,0-4.66,2.12q-4.1,10.36-6.26,17v.69m-10.47-9.18-3.33,1.73c-.61,2-1.21,4.23-1.81,6.76h.31q1.39,0,4.83-8.49M469,208.16h1.25c.12-1.64.24-3.24.36-4.81a14.46,14.46,0,0,1-1.61.35v4.46m-3.63-4q-6.54.78-20.18,1.71-9.06,1.86-12.18,1.85v.46c2,0,3.95-.07,5.93-.23q6.48.22,13.74.23c.41,0,.62.19.62.46v.23a22,22,0,0,1-4.68.69h-10.3a31.13,31.13,0,0,1-7.49,1.38q-5,0-14.36,3-9.37.92-9.37,3.23v3.92a41.83,41.83,0,0,1-1.87,6.69c0,.12.1.73.31,1.85q-3.43,7.22-3.43,8.77a19.9,19.9,0,0,1-1.56,6.23,7.74,7.74,0,0,0,.94,3.46,6.35,6.35,0,0,1-1.25,1.85v.92a17.53,17.53,0,0,1,3.43.46q17.32-2.54,23.73-2.54a12.12,12.12,0,0,1,3.12-.69l.63.23h2.47q20.85-1.85,24.36-1.85l4,0a42.52,42.52,0,0,1-.44-5.86,44.94,44.94,0,0,1,1.56-9.69q0-1.6-.31-6.69,1.47-5.87,2.62-20.11m47.28,3h.94q.46,0,1.56-1.38v-.69h-.31c-1.46.77-2.19,1.47-2.19,2.08m24.11,10.2h.32a4.57,4.57,0,0,0,2.5-3.93l-.63-.23a11.91,11.91,0,0,0-2.19,3.93v.23M250.57,232.29h2.81q2.1,0,7.49-3v-8.77c-.2-4.51-.83-6.89-1.87-7.16h-.62q-4.06,3.34-4.06,9.46-3.75,6.52-3.75,7.85v1.62m35,10.35q1-2.77,2.25-7.78l-.72.2q-.87,1.32-1.53,7.58m265.49-2.88h-1.25a33.15,33.15,0,0,0-9.06,2.54h-.31c-.44,0-.83,0-1.18,0-.41,1.16-.74,2.17-1,3h0q12.78-2.43,12.78-5.54m-265.6,5.63h.62v-.69h-.62v.69m.15,8.84h0v0a15.1,15.1,0,0,0,1.09-4.69v-1.15a4.32,4.32,0,0,1-1.37-.59c.13,1.78.2,2.85.2,3.19l-.31,2.08c.15.41.28.79.39,1.16m159.59-2.18h.31q5.88-.57,17.29-1.05c-.14-.6-.27-1.21-.39-1.81-1,.17-1.93.35-2.85.55a79.73,79.73,0,0,1-11.24,1.15c-2.08.34-3.12.65-3.12.92v.23m-154.11-.43h.62v-.69h-.62v.69m-178.62,8.83h.94q1.88-3.46,1.87-4.62l-.62-.23q-2.19,3.59-2.19,4.85M282.18,262c.66-1.3,1.25-2.53,1.76-3.65a2.63,2.63,0,0,1-.59-1.57h-.64c-.41,1.69-.62,2.62-.62,2.77,0,.77,0,1.59.09,2.45m.87,27.49a143.11,143.11,0,0,1,4.6-24.23,48,48,0,0,1,1.56-6.69v-.48h-.31q-.47,0-1.56,4.62l-4.2,9.48c-.06.52-.09.85-.09,1a31.47,31.47,0,0,1,.94,4.62l-.31,1.16q-.62,7.72-.62,9.23v1.32M491.8,270.92h1.55a10.77,10.77,0,0,0,5.93-5.54c.47-1.27,1-2.64,1.65-4.1h-7.34l-6.43-.32c.25,5.24,1.78,8.58,4.64,10m-382.14,22.3H109l-.62,1.62h.3c.42,0,.73-.54.94-1.62m56.83,9.93a1.23,1.23,0,0,0,.94-1.38h0v-1.38h-.63l-.31,1.15v1.62m15,4.4h.62l.62-1.62h0v-.23h-.94c-.21,1.12-.31,1.73-.31,1.85m213.58,4.54h.31v-.23c-.68-1.85-1.41-2.77-2.19-2.77l-.31.46a6.66,6.66,0,0,0,2.19,2.54m-20-2.07v.68q0,2.43,5,7.39l.31-.46v-1.38c-2.55-3.85-4.22-5.92-5-6.23h-.31M401,336.79h.94v-.23c0-.31-.2-.46-.62-.46H401v.69M242.61,56.46h0M451.36,78.4h0M731.3,83.27l0,0,0,0v0m0,0c.09,0,.13.11.13.16l-.13-.16M323.5,136.26h0m110.14,112.1h0M148.22,0h-.31a8,8,0,0,0-3.47.79c-1.52.73-3.14,1.93-6.13,5.21a7.86,7.86,0,0,0-4.14-1.16h-.63a8,8,0,0,0-3.53.82c-2.94,1.45-5.78,4.1-8.88,8.31-5.7,4.63-8.92,8.38-10.22,12A58.85,58.85,0,0,0,105.37,33a24.83,24.83,0,0,0-9.54,11.77c-6.94,6.55-9,9.26-9,13.13a14.34,14.34,0,0,0,.19,2.2c-1.89,1.6-3.52,3.1-4.92,4.52-.13-2.82-.2-5.15-.2-6.95V49.54a51.41,51.41,0,0,0-.46-6A47,47,0,0,1,84,39.49,8,8,0,0,0,85.33,35a13.84,13.84,0,0,0-1.08-4.75,7.85,7.85,0,0,0-1.39-2.45l-.38-.45.28-.63a8,8,0,0,0,.08-6.36c-3.37-8.07-8.42-9.76-12.06-9.76a15.26,15.26,0,0,0-9.23,3.49,8.31,8.31,0,0,0-1.4,1.38c-1.46,1.83-2.43,2.94-3,3.59-7.48.86-11.07,5.11-12.6,7.76a8.08,8.08,0,0,0-.91,2.36,21.49,21.49,0,0,1-3.43,8,8,8,0,0,0-1.42,4.55,5.37,5.37,0,0,1-1.93,4.18,8,8,0,0,0-2.12,3.5c-.88,3-3.36,9.56-10.15,23.72a8,8,0,0,0-.48,5.66C21.3,83,20,85.48,19.45,87.4c-3.67,6.76-5.31,9.85-6,11.65A217.38,217.38,0,0,0,2.7,122.19,7.94,7.94,0,0,0,2.19,125v.46a8,8,0,0,0,1.66,4.87c-.32.91-.63,1.83-.94,2.76a7.73,7.73,0,0,0-.31,1.26c-1,5.94-1.59,7.7-1.71,8A7.88,7.88,0,0,0,0,146a8.35,8.35,0,0,0,2.94,6.41,85,85,0,0,0-1.64,9.75c0,.3-.05.61-.05.92v.23a8.37,8.37,0,0,0,4.36,7.39v6.92a8.46,8.46,0,0,0,8.63,8.46c1.44,0,6.29-.48,8.36-6.6a28.68,28.68,0,0,0,1-4.13,126.58,126.58,0,0,1,9-21,8.33,8.33,0,0,0,.75-2.06,60.9,60.9,0,0,1,3.28-11c.11-.28.22-.56.3-.84l2.67-8.77c.1-.23.2-.44.29-.66a7.94,7.94,0,0,0,2.13-.64,15,15,0,0,0,6.18-5.72,8.1,8.1,0,0,0,.74-1.47A89.23,89.23,0,0,1,56.33,108a7.64,7.64,0,0,0,.57-1.1,14.7,14.7,0,0,0,1.87,1.66,8,8,0,0,0,4.81,1.61h1a17.86,17.86,0,0,0,10.29,3.23,10.8,10.8,0,0,0,1.5-.1,8.21,8.21,0,0,0-.62,1.46,21.06,21.06,0,0,0-2.89,7.69,7.94,7.94,0,0,0,.36,3.49l.16.5a35.7,35.7,0,0,1-3.49,7.12,6.54,6.54,0,0,0-.57.94,64,64,0,0,0-6,17.33L60.54,161.9a7.89,7.89,0,0,0,.14,4.64l.31.92a8,8,0,0,0,3.2,4.15c-.3,1-.64,2.06-1,3.26a8,8,0,0,0-.36,3.43c.12,1,.19,1.73.22,2.21a21.26,21.26,0,0,0-.9,5.19v.46c0,6.06,4,9.28,7.93,9.79a8.55,8.55,0,0,0,1,.06h.31a8,8,0,0,0,7.81-6.25A37.67,37.67,0,0,1,81.13,183a8.11,8.11,0,0,0,1.76-2.73c.21,0,.43,0,.65,0h.94a8,8,0,0,0,7.84-6.4c.21-.57.88-2.24,2.91-6.68,2.7-4.11,5.21-9.86,7.6-17.4a8,8,0,0,0,3.44-.9,8,8,0,0,0,.49,2l.63,1.62a8,8,0,0,0,1.91,2.86c-1.66,6.25-2.14,8.42-2.32,9.49a8,8,0,0,0,.58,4.65l.62,1.38a8,8,0,0,0,7.3,4.72c4.42,0,7-3.33,8.46-5.12a7.64,7.64,0,0,0,1.15-2c2.21-5.49,4.86-11.36,7.87-17.44.11-.23.22-.47.31-.71l.59-1.56a8,8,0,0,0,5.93-3.34,7.81,7.81,0,0,0,2.29-3.38,83.25,83.25,0,0,1,4.78-11.51,7.09,7.09,0,0,0,.52-1.16c3.13-8.82,5-12.81,5.91-14.57l2.75-.69c0,.78-.09,1.66-.15,2.65,0,.16,0,.32,0,.48a11.08,11.08,0,0,0,.42,3.13c1.63,25.88,2,26.38,3.64,28.62a8,8,0,0,0,3,2.48c0,.36.08.73.13,1.11,0,.07,0,.13,0,.19a17.58,17.58,0,0,0-5.57,2.94,8.31,8.31,0,0,0-1.4,1.38c-1.46,1.83-2.43,2.94-3,3.59-7.48.86-11.07,5.11-12.6,7.76a8.08,8.08,0,0,0-.91,2.36,21.49,21.49,0,0,1-3.43,8,8,8,0,0,0-1.42,4.55,5.37,5.37,0,0,1-1.93,4.18,8,8,0,0,0-2.12,3.5c-.88,3-3.36,9.56-10.15,23.72a8,8,0,0,0-.48,5.66c-2.76,4.24-4.05,6.74-4.61,8.66-3.67,6.76-5.31,9.85-6.05,11.65a217.38,217.38,0,0,0-10.7,23.14,7.94,7.94,0,0,0-.51,2.81v.46a8,8,0,0,0,1.66,4.87c-.32.91-.63,1.83-.94,2.76a7.73,7.73,0,0,0-.31,1.26c-1,5.94-1.59,7.7-1.71,8a7.88,7.88,0,0,0-.89,3.66,8.35,8.35,0,0,0,2.94,6.41,85,85,0,0,0-1.64,9.75c0,.3,0,.61,0,.92v.23a8.37,8.37,0,0,0,4.36,7.39v6.92a8.46,8.46,0,0,0,8.63,8.46c1.44,0,6.29-.48,8.36-6.6a28.68,28.68,0,0,0,1-4.13,126.58,126.58,0,0,1,9-21,8.33,8.33,0,0,0,.75-2.06,60.9,60.9,0,0,1,3.28-11c.11-.28.22-.56.3-.84l2.67-8.77c.1-.23.2-.44.29-.66a7.94,7.94,0,0,0,2.13-.64,15,15,0,0,0,6.18-5.72,8.1,8.1,0,0,0,.74-1.47,89.23,89.23,0,0,1,7.44-15.25,7.64,7.64,0,0,0,.57-1.1,14.7,14.7,0,0,0,1.87,1.66,8,8,0,0,0,4.81,1.61h.95a17.86,17.86,0,0,0,10.29,3.23,11,11,0,0,0,1.51-.1,7.94,7.94,0,0,0-.63,1.47,21.06,21.06,0,0,0-2.89,7.69,7.94,7.94,0,0,0,.36,3.49l.16.5a35.7,35.7,0,0,1-3.49,7.12,6.54,6.54,0,0,0-.57.94,64,64,0,0,0-6,17.33l-2.73,10.09a7.89,7.89,0,0,0,.14,4.64l.31.92a8,8,0,0,0,3.2,4.15c-.3,1-.64,2.06-1,3.26a8,8,0,0,0-.36,3.43c.12,1,.19,1.73.22,2.21a21.26,21.26,0,0,0-.9,5.19v.46c0,6.06,4,9.28,7.93,9.79a8.55,8.55,0,0,0,1,.06h.31a8,8,0,0,0,7.81-6.25,37.67,37.67,0,0,1,2-6.75,8.11,8.11,0,0,0,1.76-2.73c.21,0,.43,0,.65,0h.94a8,8,0,0,0,7.84-6.4c.21-.57.88-2.24,2.91-6.68,2.7-4.11,5.21-9.86,7.6-17.4a8,8,0,0,0,3.44-.9,8,8,0,0,0,.49,2l.63,1.62a8,8,0,0,0,1.91,2.86c-1.66,6.25-2.14,8.42-2.32,9.49a8,8,0,0,0,.58,4.65l.62,1.38a8,8,0,0,0,7.3,4.72c4.42,0,7-3.33,8.46-5.12a7.64,7.64,0,0,0,1.15-2c2.21-5.49,4.86-11.36,7.87-17.44.11-.23.22-.47.31-.71l.59-1.56a8,8,0,0,0,5.93-3.34,7.81,7.81,0,0,0,2.29-3.38,83.25,83.25,0,0,1,4.78-11.51,7.09,7.09,0,0,0,.52-1.16c3.13-8.82,5-12.81,5.91-14.57L252,256c0,.78-.09,1.66-.15,2.65,0,.16,0,.32,0,.48a11.08,11.08,0,0,0,.42,3.13c1.63,25.88,2,26.38,3.64,28.62a8,8,0,0,0,3,2.48c0,.36.08.73.13,1.11a8.35,8.35,0,0,0,5.23,7.08,1.8,1.8,0,0,1-.05.19,8.21,8.21,0,0,0-.2,2.66c1,10.52,2.48,17,4.87,20.93a8,8,0,0,0,6.85,3.87h.63c.8,0,7.86-.26,8.89-9.17a7.94,7.94,0,0,0-.23-3c-.31-1.18-.54-2-.69-2.65a11.29,11.29,0,0,0,.66-3.58v-2.41c3-.75,6.06-3.24,6.78-8.44a25.64,25.64,0,0,0,1.11-4.8l2.87-8.75a7.2,7.2,0,0,0,.81,0h.31c6.75,0,9.11-7,10-9.59a123.53,123.53,0,0,0,3.31-12.76c.86-2.27,1.61-4.27,2.26-6a8.5,8.5,0,0,0,1.69-.6l.94-.46a8,8,0,0,0,3.93-4.27c.81-2.08,1.54-3.91,2.18-5.51,1.24,2.15,3.48,5.76,7.84,12.36a8,8,0,0,0-1.26,4.31c0,6.67,4.59,11.42,11.29,11.88,5.29,10,8.39,12.93,11.7,14.25a7.7,7.7,0,0,0,2,.51,8.06,8.06,0,0,0,1.25,3c7.41,10.86,9.69,15.51,10.39,17.31a8.05,8.05,0,0,0,.75,1.46c7.37,11.37,10,15,15.14,15a7.77,7.77,0,0,0,1.8-.21c1.74,2.15,4,4.82,6.75,8.08,5.86,9.07,10.46,14.3,16.43,14.3a8,8,0,0,0,8-8v-.23c0-3.33-1.74-6.34-3.68-8.93a24.1,24.1,0,0,0-3.85-7.41,41.44,41.44,0,0,0-2.36-4.43,9,9,0,0,0,2.7-6.24,7.73,7.73,0,0,0-.12-1.36c-.32-1.9-.88-3.2-5.95-10.55-2.23-6.7-3.37-9-4.19-10.3a7,7,0,0,0-.72-1,55.7,55.7,0,0,1-4.76-6.23,16.16,16.16,0,0,0,4.32-8.93c.62-.51,1.15-1,1.61-1.36,23.33-1.25,37.86-2.13,43.23-2.6,3.58,0,6.67.08,9.19.22h.59c4.14-.08,7.21-.2,9.37-.37l.8-.07a10.55,10.55,0,0,0,1,1.85,8.1,8.1,0,0,0,1.43,1.55,49,49,0,0,1,5.86,5.41c1.06,4.33,4.33,8.55,10.42,13.54a8.3,8.3,0,0,0,1.21.82c5.15,2.84,9.79,4.22,14.16,4.22,6.54,0,14.33-2,23.83-6.22a7.78,7.78,0,0,0,1.14-.61A40,40,0,0,0,531,279.79a8.1,8.1,0,0,0,1-2.56c1-4.78,1.94-6.53,2.22-7a8,8,0,0,0,2.7-4.24,20.88,20.88,0,0,1,1.93-5.41,8,8,0,0,0,2.93-4l.06-.18c3-.45,5.5-.92,7.61-1.39a32.28,32.28,0,0,0-.55,4.47c-.2.83-1.08,3.86-4.78,13.43a7.87,7.87,0,0,0-.54,2.88,33.21,33.21,0,0,0,.28,3.58,28.21,28.21,0,0,1-1.58,4.74,7.78,7.78,0,0,0-.53,2.07,68,68,0,0,1-2.48,12.57,8.06,8.06,0,0,0-.38,2.43,13.73,13.73,0,0,0,1.92,6.61,8,8,0,0,0,7,4.16h1.25a7.91,7.91,0,0,0,3.35-.74,17.61,17.61,0,0,0,7.65-6.61,8.17,8.17,0,0,0,2.45-1.35c5.78-4.66,8.52-8.17,9.78-11l4.16-3.23a8,8,0,0,0,2.8-8.48c-.13-.46-.22-.8-.28-1.06.21-2.11,1.49-6.1,6.81-12.39a8,8,0,0,0,1.88-4.76c.48-9.29,1.38-12.92,1.8-14.14a8.1,8.1,0,0,0,1.95-2.77c.12-.29.23-.56.34-.79a8.53,8.53,0,0,0,1-.52,74.09,74.09,0,0,1,9.57-2.55C609.56,240,617,236.13,625,229.93c6.67-2.86,13.1-7.66,19.15-14.3a23,23,0,0,0,6.79-6.14c7.05-5.87,10.06-12.25,11.16-17.68a16.2,16.2,0,0,0,.91,1.49,8,8,0,0,0,9.29,2.91l.63-.23a8,8,0,0,0,5.26-7.51,13.3,13.3,0,0,0-1.43-6c-4.34-9.42-4.51-12.17-4.51-12.45a7.81,7.81,0,0,0-.36-2.36l-.56-1.82a8.32,8.32,0,0,0,2.47-6v-.23a14.6,14.6,0,0,0-.43-3.81,9.67,9.67,0,0,0-.7-1.82,129.87,129.87,0,0,0-3.07-12.79c1.74-8.28,2.75-11.22,3.11-12.12a7.86,7.86,0,0,0,1.37-2.61c1-3.27,1.77-5.33,2.3-6.61a8.14,8.14,0,0,0,2.22-1.21c6-1.76,9.57-3,11.86-4.37l3.54-.78c0,.07,0,.14,0,.21l-.6,14c0,.28,0,.55,0,.82a26.5,26.5,0,0,0,.86,5.77,10.27,10.27,0,0,0,2.9,4.83c0,.2,0,.39.07.59a24.34,24.34,0,0,1,.21,3.79c0,.25-.14,1-.47,2.63a7.86,7.86,0,0,0-.1,2.42c1,9.52,1.94,12.85,3,14.94a8,8,0,0,0,5.77,4.3,16.51,16.51,0,0,0,2.32,7.07,8,8,0,0,0,6.87,3.9,8.58,8.58,0,0,0,7.16-3.69h.32a8,8,0,0,0,2.78-.5l.62-.23a8,8,0,0,0,5.22-7.5c0-.67.09-3.18.91-12,0-.25,0-.49,0-.74a28.6,28.6,0,0,0-.22-3.24,28.32,28.32,0,0,0,.53-4.84c0-.46,0-1-.46-5.35a8.37,8.37,0,0,0,3.88-7.11v-1.15a103.61,103.61,0,0,0-3.7-28.45,7.75,7.75,0,0,0,.23-2.67,14.52,14.52,0,0,0,5.66-5.53,8,8,0,0,0,.77-5.33c-.21-1-.36-1.83-.48-2.44a8,8,0,0,0,1.42-4.55,8.18,8.18,0,0,0-3.31-6.55,6.74,6.74,0,0,0-.91-.59c-1.33-.77-2.94-1.31-7.45-2a24.17,24.17,0,0,0-2.55-1.83c-.4-2.91-1-8.79-1.7-20.63V49.3a7.77,7.77,0,0,0-.21-1.8c-.49-2.15-.81-3.61-1-4.59,2-3.65,2.48-5.29,2.48-7.23a8,8,0,0,0-.64-3.13,13.45,13.45,0,0,0-3-4.38,9.76,9.76,0,0,0,1.72-5.42,8.62,8.62,0,0,0-.08-1.14,37.72,37.72,0,0,0-2.11-8.79c-2.67-6.59-7.58-7.3-9.56-7.3h-1.25a7.87,7.87,0,0,0-2.72.48c-1.94.7-3.19,1.11-4,1.35-.24-.22-.53-.51-.88-.89a8,8,0,0,0-5.86-2.55l-.65,0a43.35,43.35,0,0,0-4.55.54,12.42,12.42,0,0,0-2.33.65c-5.86,1.41-9.3,7.46-10.86,10.43-1.44,2-2.57,3.62-3.47,5a22.76,22.76,0,0,0-9.48-4.19l-4.91-1.82a8,8,0,0,0-2.78-.5,7.87,7.87,0,0,0-.84,0l-1.11.12c-8-1.31-8.82-1.31-9.61-1.31a30.19,30.19,0,0,0-5.6.84l-.22.05c-10.61,2.38-13.53,2.57-14.17,2.57a8.06,8.06,0,0,0-2.52.41,66.76,66.76,0,0,1-9,2.59,8.43,8.43,0,0,0-2,.32c-5.95,1.74-7.81,2.15-8.31,2.24a7.51,7.51,0,0,0-1.33.21c-.88.21-2,.49-3.25.89l-.24-.3a10,10,0,0,0-.91-.93,23.09,23.09,0,0,0-11-5.42l-4.91-1.82a8,8,0,0,0-2.78-.5,7.87,7.87,0,0,0-.84,0l-1.11.12c-8-1.31-8.82-1.31-9.61-1.31a30.19,30.19,0,0,0-5.6.84l-.22.05c-10.61,2.38-13.53,2.57-14.17,2.57a8,8,0,0,0-2.51.41,67.06,67.06,0,0,1-9,2.59,8.43,8.43,0,0,0-2,.32c-5.95,1.74-7.81,2.15-8.31,2.24a7.51,7.51,0,0,0-1.33.21c-2.42.59-6.86,1.68-9.87,4.36a78.19,78.19,0,0,0-7.89,3.13,79,79,0,0,0-13.92,3.72,6.92,6.92,0,0,0-.28-.76,13.45,13.45,0,0,0-3-4.38,9.76,9.76,0,0,0,1.72-5.42,8.62,8.62,0,0,0-.08-1.14,37.72,37.72,0,0,0-2.11-8.79c-2.67-6.59-7.58-7.3-9.56-7.3H478.8a7.87,7.87,0,0,0-2.72.48c-1.94.7-3.19,1.11-4,1.35-.24-.22-.53-.51-.88-.89a8,8,0,0,0-5.86-2.55l-.65,0a43.35,43.35,0,0,0-4.55.54,12.42,12.42,0,0,0-2.33.65C452,6.52,448.54,12.57,447,15.54c-6,8.32-6.79,9.92-6.79,12.74a8,8,0,0,0,.38,2.42l.58,1.84-.17.36a7.93,7.93,0,0,0-.78,3.1c-.16.84-1.21,4.83-8,19.64a7.94,7.94,0,0,0-.63,2.08,18,18,0,0,1-1.62,5.63,29,29,0,0,0-3.1-1.27l-.3-.1a15.55,15.55,0,0,0,4.21-4.87c.15-.32.29-.64.41-1,4-11.42,4.82-15.5,4.82-18.11V37.1c0-7.76-5.24-14.3-15.57-19.44a11.23,11.23,0,0,0-2.92-1.75,29.08,29.08,0,0,0-4.63-1.41c-3.22-.75-7.82-1.54-14.06-2.41l-.37-.05-5.52-.51a17.17,17.17,0,0,0-5.28-1.21,7,7,0,0,0-.79,0,8.06,8.06,0,0,0-1,.06l-2.52.31-.63,0h-5a8.85,8.85,0,0,0-.89,0c-4.87.54-10,1-15.2,1.41a8.09,8.09,0,0,0-3.19-.66h-.31c-2.68,0-6.06.73-10.85,2.36a27.84,27.84,0,0,0-12.09,3.82c-2.92.92-5.94,1.87-8.63,2.74a46.56,46.56,0,0,1-8.16,1.12,7.91,7.91,0,0,0-3.93,1c-13.95-3.37-23.58-5-29.4-5H281.3a84.43,84.43,0,0,0-10.5.92c-1.56,0-3.5-.09-5.93-.22h-.43a8,8,0,0,0-1.62.17c-10.36,2.14-13.68,2.37-14.62,2.37l-.53,0c-12,.79-21.2,1.53-27.27,2.19-3.25.36-5.67.7-7.41,1a19.18,19.18,0,0,0-2.92.77,9.41,9.41,0,0,0-3,1.75c-2.39.09-4.45.18-6.16.27-1.34.07-2.48.14-3.45.21a14.1,14.1,0,0,0-1.85-4.32,8,8,0,0,0-3.77-3.16,9.29,9.29,0,0,0-.17-1.38c-2-9.32-8.64-10-10.64-10h-.41a9.23,9.23,0,0,0-6.82-6.54A22.27,22.27,0,0,0,168,.91c-5.23,0-9,3.09-11.74,6.71a8,8,0,0,0-8-7.62ZM357.13,45.28l.43-.22v3.2C355,60,353.11,67.79,352,71.49a8,8,0,0,0-.34,2,53.41,53.41,0,0,1-1.89,12.23,8.25,8.25,0,0,0-.29,1.56,45.14,45.14,0,0,1-2.91,13,8.05,8.05,0,0,0-.51,2.22,85.14,85.14,0,0,1-1.21,9.41l-2.67.15q.15-1,.21-2l2.85-9.91a8.25,8.25,0,0,0,.31-2.21V93.09l4.09-17.92A79.69,79.69,0,0,0,354,52.33c.26-.29.58-.66,1-1.1a8,8,0,0,0,2.13-5q0-.54.06-1ZM195.54,57.23l.91,0a18.74,18.74,0,0,1-.79,2l-.08.2c0-.68,0-1.41,0-2.18ZM296.1,64.44c5.92-1.53,10.5-2.82,14.08-4-.74,2-1.68,4.51-2.88,7.5a7.92,7.92,0,0,0-.57,3v.23A7.92,7.92,0,0,0,308,75.56l.35.55c-4.49,17.25-6.33,23.27-7.07,25.24a7.68,7.68,0,0,0-.48,2,35.32,35.32,0,0,1-.65,3.79c-5.23-4.72-7.45-8.19-8.38-10.4a7.92,7.92,0,0,0-2.28-3.06c-2.65-2.19-3.83-3.27-4.32-3.74A8.14,8.14,0,0,0,284,88.51a43.77,43.77,0,0,1-4.67-4.92,8,8,0,0,0-1.16-2.42c-2.2-3.12-3.9-5.58-5.22-7.52a128.6,128.6,0,0,0,23.13-9.21Zm197.17-.73A12.22,12.22,0,0,0,499,62a12.26,12.26,0,0,0,3.64,1.8,9,9,0,0,0,1.34.31c-1.72,4.07-3.22,7.4-4.5,10-.11.22-.21.44-.3.67-.72-.14-1.53-.28-2.46-.43a24.26,24.26,0,0,0-2.55-1.84c-.24-1.7-.54-4.42-.89-8.76Zm196.8,17.05a9.15,9.15,0,0,0,.31-1.47c.14-1.27.28-2.3.41-3.13.06.84.11,1.74.16,2.71-.17.63-.31,1.23-.44,1.79l-.44.1ZM459.35,78.91c.13-1.08.25-2,.36-2.71.06.84.11,1.74.16,2.71-.16.63-.31,1.22-.43,1.78l-.44.1a7.81,7.81,0,0,0,.35-1.88Zm187.51,1.42c1.61-.65,4.09-1.54,7.87-2.66l.47-.16.65-.24c-1.84,5.32-2.71,7.44-3.12,8.27a8.43,8.43,0,0,0-.65,2c-.09.48-.17.89-.25,1.23l-1.88.75c-1.6-4.28-2.54-7.22-3.09-9.2Zm-77.75,0c1.44-.58,3.59-1.36,6.76-2.33a36.27,36.27,0,0,1-3.78,8.13,4.8,4.8,0,0,0-.3.48l-.4.72c-1.12-3.12-1.83-5.38-2.28-7Zm-117.75,6ZM228,93.22a33,33,0,0,1,4.45-2.56c.42.45.8.84,1.14,1.19a15.79,15.79,0,0,0,3.23,2.75c3.78,2.57,6.43,5.34,7.88,8.23a8,8,0,0,0,2.11,2.63,31.68,31.68,0,0,1,8.26,9.28,8.12,8.12,0,0,0,1.36,1.88c8.14,8.31,10.61,11.38,11.32,12.37a8.78,8.78,0,0,0,1,2l-3.05,1.2A8,8,0,0,0,261,141.6q.18.68.42,1.32c-4,.8-7,3.45-9.23,6.46a8,8,0,0,0-8-7.64h-.31a8,8,0,0,0-3.47.79c-1.52.73-3.14,1.93-6.13,5.21a7.86,7.86,0,0,0-4.14-1.16h-.63a8,8,0,0,0-3.53.82c-2.94,1.45-5.78,4.1-8.88,8.31-5.7,4.63-8.92,8.38-10.22,12a58.85,58.85,0,0,0-5.54,6.93,24.83,24.83,0,0,0-9.54,11.77c-6.94,6.55-9,9.26-9,13.13a14.34,14.34,0,0,0,.19,2.2c-1.89,1.6-3.52,3.1-4.92,4.52-.13-2.82-.2-5.15-.2-6.95v-8.08c0-1.12-.08-2.48-.25-4.15a7.77,7.77,0,0,0,2.16.3h.63c.8,0,7.86-.26,8.89-9.17a7.94,7.94,0,0,0-.23-3c-.31-1.18-.54-2-.69-2.65A11.29,11.29,0,0,0,189,169v-2.41c3-.76,6.11-3.28,6.79-8.56a8.36,8.36,0,0,0,0-1.87h.73A8,8,0,0,0,203,153c1.19-1.59,2.65-4.2,5-11.14,2.17-.52,5.24-2.05,7-6.47a25.45,25.45,0,0,0,1.43-5.57c2.57-4.63,4-8.72,4.29-12.42a72.11,72.11,0,0,0,3.62-14.34c2.28-2.9,3.63-5.49,3.63-8.43V93.22Zm300.29,7.47c2-2.49,3.47-4.31,4.49-5.79,4.55,10,10,22.6,16.29,37.46.92,7.07,2.31,11.68,4.46,14.77.08.21.15.41.22.61l-2,4-.61,0c-3.87,0-6.23,2.62-7.5,4a8,8,0,0,0-1.64,2.8,64.75,64.75,0,0,1-4.67,11,8.27,8.27,0,0,0-.92,2.5c-.56,2.95-1.27,4-1.43,4.17-1.54,1.11-3,2.28-4.43,3.49a8,8,0,0,0-1.25,1.35,7.74,7.74,0,0,0-1.47.73,17.15,17.15,0,0,0-4.75,4.7c-2.66,1.66-5.58,3.71-8.71,6.09a8,8,0,0,0-1.85,2c-.52.58-2.1,2.25-6.7,6.72A8,8,0,0,0,503.4,207a9.26,9.26,0,0,0,7.74,9.25l.16,0A121.79,121.79,0,0,1,506,227.54a8,8,0,0,0-1,2.16c-.9,3.14-1.38,5.05-1.63,6.38a54.18,54.18,0,0,0-3.67,9.37l-.88,1.69a7.88,7.88,0,0,0-2-1c1-9.29,2.3-14.19,3.33-16.72a8,8,0,0,0,.08-5.82l-.8-2.14c1.11-6.55,1.58-9.67,1.79-11.31,2.67-6.37,3.22-8.44,3.27-10.26,3.14-3.13,5-6,5-9.49v-.92a8,8,0,0,0-.77-3.43c.36-.46.68-.91,1-1.35a8,8,0,0,0,1.22-5.87c-.48-2.69-1.52-6.54-4.9-8.87l-.13-.08a7.94,7.94,0,0,0-.54-1.92,8,8,0,0,0,.39-2.48v-.69a8.38,8.38,0,0,0-1.81-5.1,54.64,54.64,0,0,1,2.81-8.29,7.85,7.85,0,0,0,.49-1.41,57.46,57.46,0,0,1,2.94-9.2c2.33-.6,5.45-2.34,7.42-7.17a39,39,0,0,0,2.1-8.24,175.7,175.7,0,0,0,8.64-24.64Zm77.77,0c2-2.49,3.47-4.31,4.49-5.79q2.64,5.8,5.79,13c-9,4.44-13,6.31-14.8,7.09,1.85-5,3.36-9.81,4.52-14.29Zm-146.63,13.8,3.54-.78c0,.07,0,.14,0,.21l-.6,14c0,.28,0,.55,0,.82a26.5,26.5,0,0,0,.86,5.77,10.27,10.27,0,0,0,2.9,4.83c0,.2,0,.39.07.59a24.34,24.34,0,0,1,.21,3.79c0,.25-.14,1-.47,2.63a7.86,7.86,0,0,0-.1,2.42c.76,7,1.46,10.68,2.19,13-.24,0-.47,0-.71,0a8.17,8.17,0,0,0-2.5.4c-.47.06-1.37.15-3,.28l-2.61-.19c-.21,0-.43,0-.65,0s-.61,0-.92.05c-7.65.89-16.19,1.64-25.37,2.25-3-.15-5.55-.26-7.75-.33,2.33-6,3.92-10.19,5-13.13,3.56-.43,5.8-3,6.92-4.34a8.11,8.11,0,0,0,1.78-3.62c1.94-9.52,3.06-12.78,3.44-13.73a7.86,7.86,0,0,0,1.37-2.61c1-3.26,1.76-5.33,2.3-6.6a8.51,8.51,0,0,0,2.23-1.22c6-1.76,9.57-3,11.86-4.37Zm-59.11,14.73a9,9,0,0,0,1.31-.82l5.91-4.58-.73,1.68a7.9,7.9,0,0,0-.61,2.25,12.51,12.51,0,0,1-.6,2.85,8,8,0,0,0-1.73,7.17l0,.07c-.3,1.71-.54,2.78-.7,3.42a8,8,0,0,0-1.66,3.84c-.52,3.62-1.13,7-1.81,10a8,8,0,0,0-4.37-1.3h-.62c-2.38,0-5.53.54-10.95,3.41a7.87,7.87,0,0,0-2.49-.4A15.34,15.34,0,0,0,372,160.1a86.66,86.66,0,0,0-12.78,8h0c-.77-.86-1.62-1.76-2.56-2.71a5.4,5.4,0,0,0-.61-.56c-10.07-8.34-13.1-11.15-14-12.06a7.91,7.91,0,0,0-1.72-1.89l-.82-.66,1.09-.25a8.09,8.09,0,0,0,2.24-.93,7.91,7.91,0,0,0,1.72-.28c16-4.4,19.88-5.35,20.8-5.55l.46-.08c6.31-1.22,8-1.44,8.4-1.47a8.05,8.05,0,0,0,4.1-1.28,18.24,18.24,0,0,1,2.71-1.53,7.94,7.94,0,0,0,2.65-.74c5.68-2.71,8.18-3.37,9-3.52a8,8,0,0,0,3.92-2c2.22-2.05,3.31-3,3.78-3.34Zm204,1.72H605c2.68,0,6.12-1,16.37-6.07a8,8,0,0,0,3,1.62l2.49,5.87c.92,7.07,2.31,11.69,4.46,14.78.25.68.49,1.32.73,1.91-.17,1-.34,1.93-.52,2.85a74.22,74.22,0,0,0-16.49-1.63c-.89,0-1.65,0-12.77,2a10.5,10.5,0,0,1-1.95-.37,8,8,0,0,0-4-.06h-.48a8.08,8.08,0,0,0-1.39-.46,87.72,87.72,0,0,0-3-11.58c0-.25,0-.51,0-.76a12.63,12.63,0,0,0,4-5.51,36,36,0,0,0,1.89-7,8,8,0,0,0,7.14,4.39ZM276.45,149.25c2.25-.27,5.38-.72,9.85-1.44A12.27,12.27,0,0,0,292,149.7l.5,0h.8c1.33,1.28,2.78,2.63,4.33,4.06,0,.22,0,.43.07.65a20.1,20.1,0,0,0,1.58,5.68,9.54,9.54,0,0,0,7.39,5.66,15.63,15.63,0,0,0-1.3,3.22c-3.91,4.61-5.18,6.8-5.18,9.78v4.59a116.19,116.19,0,0,1-6.83,11.37,7.94,7.94,0,0,0-1.08,2.52c-.22.93-.48,1.91-.78,2.91-.05-3-.12-6.68-.2-11A26.88,26.88,0,0,1,292,184a8.11,8.11,0,0,0-.21-4.18c-.05-.49-.11-1.39-.18-2.94a8,8,0,0,0,2.14-5.44,13.09,13.09,0,0,0-2.17-7,8,8,0,0,0-3.77-3.16,9.29,9.29,0,0,0-.17-1.38c-2-9.32-8.64-10-10.64-10h-.41c-.05-.2-.11-.39-.18-.59ZM614.07,181.1a46.73,46.73,0,0,1,6-1.43,11.42,11.42,0,0,1,2.22.33c.06,1.54.07,2.33.07,2.73v1.92c-.17.56-1.24,3.16-7,8.76a8.06,8.06,0,0,0-1.71,2.46c-.11.25-1.26,2.49-8,5.75a7.78,7.78,0,0,0-1.59,1,26.21,26.21,0,0,1-2.47,1.78c.23-.72.48-1.49.75-2.3a8,8,0,0,0,0-5l3.14-9.83a7.44,7.44,0,0,0,.25-1,17.36,17.36,0,0,0,7.74-4.5,7.1,7.1,0,0,0,.59-.64ZM367.94,199.57c1.17-1,2.6-2.22,4.34-3.62a8.07,8.07,0,0,0,2.88-4.94c2.31.39,5.13.86,8.49,1.4l0,.07-2.46.34a11.52,11.52,0,0,0-9.68,5.46,37.62,37.62,0,0,0-3.55,1.29Zm87.87-7.92c1.25-.19,2.46-.38,3.62-.59v1.5a8.32,8.32,0,0,0-.84,1.44c-1.76,0-3.49.07-5.17.14a8.11,8.11,0,0,0-1.76-1.7l-.17-.13q2.13-.28,4.32-.66Zm107.4,2c1.12-.55,2.28-1.07,3.49-1.58a53.19,53.19,0,0,0-3,7.72,45.87,45.87,0,0,0-5,18.26l-.33.61c-.1.19-.19.38-.28.58a18.63,18.63,0,0,1-1.77.73,8,8,0,0,0-.65-3.43,7.8,7.8,0,0,0-.35-.71c1.31-3.36,2.64-7.18,4-11.5,1.36-3.58,2.66-7.16,3.88-10.68ZM354,211.46a8,8,0,0,0,1.9-1.48,29.22,29.22,0,0,1,3.72-3.45,8.14,8.14,0,0,0-.51,2.82v.23c0,2,.69,7.12,7.1,10a26.55,26.55,0,0,0,6.73,1.8c-.17.43-.34.86-.51,1.31L369.31,231a7.94,7.94,0,0,0-.51,2.81,39,39,0,0,0,.47,4.56,37.73,37.73,0,0,0-1.46,4.36c-2.87-3.4-5.42-6.55-7.63-9.42a8.4,8.4,0,0,0-1.08-1.15,35.55,35.55,0,0,1-5.86-6.6,8,8,0,0,0-1.5-1.63,25.42,25.42,0,0,1-5-5.1l.77-.39a8,8,0,0,0,3.3-2.81,26.44,26.44,0,0,1,3.2-4.17Zm85.36,6.14h9.24a28.9,28.9,0,0,0,6.5-.9,7.79,7.79,0,0,0,.94-.28,59.11,59.11,0,0,1-1.07,5.94,7.72,7.72,0,0,0-.22,2.44c.17,2.84.24,4.45.27,5.33a58.3,58.3,0,0,0-1.46,8.59c-3.46.22-9.44.69-20.2,1.64h-1a8.1,8.1,0,0,0-1.9-.23,8.52,8.52,0,0,0-1.33.11c-1.18.2-2.08.37-2.74.51l-.36.09c-3.72.11-9.16.64-16.49,1.61a17.87,17.87,0,0,0,.48-3.16,62,62,0,0,1,2.68-6.18,8,8,0,0,0,.68-4.7,37.18,37.18,0,0,0,1.6-6.21c.62-.09,1.35-.17,2.21-.26a7.9,7.9,0,0,0,1.66-.34c7.12-2.28,10.52-2.62,11.92-2.62a34.7,34.7,0,0,0,8.55-1.38Zm54,61.32h0Z"/></g></g></svg>