<?xml version="1.0" encoding="UTF-8"?>
<svg id="a" xmlns="http://www.w3.org/2000/svg" viewBox="0 0 800 342.05">
  <defs>
    <style>
      .b{fill:#f3e001;}
    </style>
  </defs>
  <path class="b" d="M376.15,17.15h2.81c1.56,0,2.39-.23,2.5-.69-2.13-.19-3.38-.35-3.75-.46,0,.31-.73,.46-2.19,.46v.23c0,.31,.21,.46,.62,.46Z"/>
  <path class="b" d="M761.72,79.65c0-.38-2.39-.92-7.18-1.62-2.5-2.31-4.37-3.46-5.62-3.46-1.04,0-2.08-8.77-3.12-26.32v-2.77c-1.04-4.5-1.56-7.04-1.56-7.62v-.23c1.87-3.31,2.81-5.23,2.81-5.77-.31-.73-.73-1.35-1.25-1.85-3.33-2.38-5-3.85-5-4.39v-.46c0-.5,.1-.88,.31-1.15,2.71-2.58,4.06-4.27,4.06-5.08-.89-6.16-2.13-9.23-3.75-9.23h-1.25c-3.85,1.39-6.14,2.08-6.87,2.08h-.94c-1.46,0-3.33-1.23-5.62-3.69-3.33,.27-5,.58-5,.92-1.98,0-4.16,2.31-6.56,6.93-3.75,5.23-5.62,8.08-5.62,8.54l1.25,3.93v.92c0,.42-.42,1.5-1.25,3.23,0,2.42-2.92,9.96-8.74,22.62-.68,4.27-1.82,7.5-3.43,9.69-3.54,10.93-5.93,17.7-7.18,20.31-.68,3.69-1.51,5.77-2.5,6.23-2.77,.97-6.33,2.43-10.63,4.33-1.12-1.75-2.36-3.6-3.73-5.55-3.23-8.43-4.89-14.12-5-17.08,0-1.77,4.79-4.08,14.36-6.93,7.86-2.88,14.1-7.73,18.74-14.54,2.29-2.96,3.95-8.96,5-18,0-2.19-1.77-5.42-5.31-9.69-2.34-2.04-4.95-3.27-7.81-3.69l-5.62-2.08-2.19,.23c-5.57-.92-8.69-1.38-9.37-1.38-.37,0-1.72,.23-4.06,.69-8.22,1.85-13.53,2.77-15.93,2.77-6.04,2-9.79,3-11.24,3-5.78,1.69-9.11,2.54-9.99,2.54-4.58,1.12-6.87,2.27-6.87,3.46-.21,.06-.43,.14-.65,.2-.88-1.64-2.23-3.55-4.04-5.74-2.34-2.04-4.95-3.27-7.81-3.69l-5.62-2.08-2.19,.23c-5.57-.92-8.69-1.38-9.37-1.38-.37,0-1.72,.23-4.06,.69-8.22,1.85-13.53,2.77-15.93,2.77-6.04,2-9.79,3-11.24,3-5.78,1.69-9.11,2.54-9.99,2.54-4.58,1.12-6.87,2.27-6.87,3.46-3.28,.92-6.71,2.23-10.3,3.92-8.38,1.62-13.58,3.16-15.61,4.62l.31,.46c1.25,0,5.93-.62,14.05-1.85h.31v.23l-.31,.46c-4.58,1.23-7.18,2.15-7.81,2.77-4.37,1.96-6.97,3.35-7.81,4.15-1.72,0-4.55,.75-8.43,2.2v-.99c-1.04-4.5-1.56-7.04-1.56-7.62v-.23c1.87-3.31,2.81-5.23,2.81-5.77-.31-.73-.73-1.35-1.25-1.85-3.33-2.38-5-3.85-5-4.39v-.46c0-.5,.1-.88,.31-1.15,2.71-2.58,4.06-4.27,4.06-5.08-.89-6.16-2.13-9.23-3.75-9.23h-1.25c-3.85,1.39-6.14,2.08-6.87,2.08h-.94c-1.46,0-3.33-1.23-5.62-3.69-3.33,.27-5,.58-5,.92-1.98,0-4.16,2.31-6.56,6.93-3.75,5.23-5.62,8.08-5.62,8.54l1.25,3.93v.92c0,.42-.42,1.5-1.25,3.23,0,2.42-2.92,9.96-8.74,22.62-.68,4.27-1.82,7.5-3.43,9.69-1.16,3.57-2.19,6.69-3.1,9.37-.97-3.93-3.86-6.73-8.69-8.39l-11.24-3.93v-3.23c0-.35,.1-.65,.31-.92,6.14-3.96,9.58-6.66,10.3-8.08,2.91-8.31,4.37-13.46,4.37-15.47v-.92c0-4.77-4.16-9.08-12.49-12.93,0-1.12-5.93-2.5-17.8-4.16l-7.45-.69c-.15-.48-1.28-.83-3.4-1.04-1.22,.15-2.33,.29-3.35,.42l-.78-.07h-5c-6.45,.72-13.09,1.3-19.9,1.75,.41-.34,.62-.58,.62-.72v-.23h-.31c-1.87,0-5,.77-9.37,2.31-3.33,0-6.77,1.08-10.3,3.23-3.7,1.16-7,2.2-9.88,3.13-4.51,.91-7.91,1.37-10.18,1.37v.23l.31,.46c.58,0,2.02-.08,4.28-.24-2.54,.84-4.59,1.55-6.14,2.11-.66-.4-1.35-.81-2.12-1.23-14.36-3.54-24.25-5.31-29.66-5.31h-3.75c-2.13,0-5.46,.31-9.99,.92-1.82,0-4.11-.08-6.87-.23-8.17,1.69-13.58,2.54-16.24,2.54-23.94,1.58-35.91,2.89-35.91,3.93,.31,.46,.62,.69,.94,.69h8.74v.46c-.63,0-.94,.08-.94,.23-17.49,.5-26.23,.96-26.23,1.38-2.5,.05-4.68,.14-6.56,.26v.2l-.54,.08c0-.08,0-.16-.01-.25,.18-.01,.37-.02,.55-.04v-.26h-.56c-.02-.49-.04-1-.06-1.56,0-1.27,.73-2.66,2.19-4.16,0-.84-.31-1.77-.94-2.77-3.54-1.19-5.31-3.42-5.31-6.69l.31-.46c-.52-2.46-1.46-3.69-2.81-3.69l-4.68,1.15h-.62c-1.72-.5-2.65-2.81-2.81-6.93,0-.92-1.67-1.38-5-1.38s-6.35,3.77-9.37,11.31c-2.55,8.19-4.53,13.58-5.93,16.16-.98,2.46-1.89,4.79-2.74,7.01-1.29,.33-1.94,.59-1.94,.79,0,.29,.47,.51,1.39,.68-3.34,8.82-5.58,15.62-6.7,20.39-3.54,5.85-5.31,9.46-5.31,10.85v2.77c0,1.27-1.67,4.35-5,9.23-1.35,4.58-2.5,7.73-3.43,9.46-6.44,2.28-11.52,4.19-15.26,5.74,.42-1.54,.9-3.21,1.44-5.04,4.37-10.54,6.56-17,6.56-19.39,1.25-1.27,1.87-2.73,1.87-4.39l6.25-13.85-.62-4.39c0-1.15,1.46-3.38,4.37-6.69,0-4.58,4.48-11.43,13.43-20.55v-.69h-.31l-.62,.23c-1.82,2.62-3.38,3.93-4.68,3.93-1.72,1.69-2.86,2.54-3.43,2.54l-.63-.23c.36-1,1.41-2.38,3.12-4.16,1.2-3.04,3.38-5.65,6.56-7.85,.73-2.58,1.67-4.43,2.81-5.54-.78,0-3.59,1.54-8.43,4.62h-.31v-.69c0-1.54,1.87-4.31,5.62-8.31,.52-2.46,1.04-4,1.56-4.62v-.23h-.31c-1.04,.5-3.23,2.73-6.56,6.69-8.43,6.81-13.74,11.89-15.93,15.23h-.62c0-.65,.31-1.65,.94-3,2.5-3.92,3.75-6.31,3.75-7.16,3.12-3.88,4.68-6.04,4.68-6.46v-.46h-.63c-1.87,.92-4.06,3.16-6.56,6.69-5.83,4.62-8.74,8.08-8.74,10.39-3.18,3.27-5.57,6.27-7.18,9-3.85,1.89-6.66,5.35-8.43,10.39-5.2,4.85-7.81,7.69-7.81,8.54,0,.54,.21,1.85,.62,3.92,0,1.08-.62,2.16-1.87,3.23-3.38,2.77-5.99,5.23-7.81,7.39-1.4,3.04-3.49,5.12-6.25,6.23-1.46,0-2.19-.46-2.19-1.38-1.04-3.12-2.39-4.96-4.06-5.54,0-1.96,.31-3.5,.94-4.62-.21-4-.31-7.16-.31-9.46v-8.08c0-1.46-.21-3.69-.62-6.69,0-1.23,1.35-3.85,4.06-7.85,0-.23-.21-.92-.62-2.08-2.08-2.5-3.12-3.89-3.12-4.16v-.46c0-.46,.63-2.08,1.87-4.85-1.35-3.23-2.92-4.85-4.68-4.85-1.3,0-2.76,.62-4.37,1.85-3.33,4.19-5.52,6.35-6.56,6.46-4.11,0-6.92,1.31-8.43,3.92-.83,3.93-2.39,7.54-4.68,10.85,0,3.81-1.46,7.12-4.37,9.93-1.41,4.81-4.95,13.12-10.62,24.93,.42,0,.62,1.15,.62,3.46v.69c-3.54,5.23-5.31,8.39-5.31,9.46-4.16,7.66-6.25,11.66-6.25,12-4.79,9.12-8.33,16.74-10.62,22.85v.46l.62,.69c.78,0,2.45-2.31,5-6.92h.94c-2.08,4.65-4.16,10.12-6.25,16.39-.88,5.46-1.72,8.93-2.5,10.39,0,.31,.21,.46,.63,.46h.62c1.04-1.5,2.81-4.81,5.31-9.93h.94c0,1.35-.83,3.65-2.5,6.92-.31,4.93-.73,7.39-1.25,7.39-1.04,2.73-1.87,6.81-2.5,12.24v.23c0,.31,.21,.46,.62,.46,.57,0,1.2-1.69,1.87-5.08,3.96-8.96,6.35-13.73,7.18-14.31h.31v.23c0,1.92-.83,4.85-2.5,8.77,0,.27-1.04,4.96-3.12,14.08v10.16c0,.31,.21,.46,.63,.46,.52,0,1.04-1.54,1.56-4.62,2.29-7.39,5.52-15,9.68-22.85,1.09-5.04,2.34-9.19,3.75-12.46l2.81-9.23c3.38-7.69,5.46-12,6.25-12.93h.31c-.21,3.08-.31,5.39-.31,6.93v.23h.31c.99-.46,1.92-1.38,2.81-2.77,2.29-6.04,5-11.58,8.12-16.62,2.19-7.89,5-13.35,8.43-16.39h.62l.63,.23c0,7.5,1.46,12.35,4.37,14.54h2.5l1.56,.23c2.08,2,4.47,3,7.18,3,1.3,0,3.17-.92,5.62-2.77,2.13-4.42,4.84-7.43,8.12-9,3.7-4.93,6.61-7.39,8.74-7.39h.94v1.38c-2.29,5.27-3.43,8.35-3.43,9.23-4.16,7.81-6.25,12.12-6.25,12.93-2.02,2.77-3.63,5.15-4.87,7.17-.12,.07-.25,.14-.36,.21v.38c-1.56,2.62-2.43,4.58-2.58,5.85l.31,.92h.31c1.46-1.08,2.19-2,2.19-2.77h.94v.23c0,.73-.73,1.88-2.19,3.46-2.08,5.96-4.06,10.27-5.93,12.93-2.55,4.96-4.32,10.12-5.31,15.46l-2.81,10.39,.31,.92h.62c1.46-.81,2.19-1.58,2.19-2.31,.36-4.62,2.65-9.39,6.87-14.31,.94-3.12,2.08-5.19,3.44-6.23h.31c0,5.16-2.6,12.08-7.81,20.78,0,2.77-1.15,7.62-3.44,14.54,.21,1.81,.31,3.12,.31,3.93-.62,2.5-.94,3.96-.94,4.39v.46c0,1.15,.31,1.77,.94,1.85h.31c1.4-6.23,2.76-9.77,4.06-10.62,1.72-5.31,3.59-9.08,5.62-11.31l1.87-8.08c3.33-8.46,5.41-12.7,6.25-12.7h.31c0,4.35-1.67,10.5-5,18.47l-1.25,7.62,.31,.92h.94c0-.58,1.25-3.58,3.75-9,3.59-5.23,7.03-14.54,10.3-27.93,2.91-6.19,4.37-9.58,4.37-10.16h.62v.92c0,.5-1.04,4.89-3.12,13.16,.21,0,.42,.38,.62,1.15,.83,.69,1.25,1.15,1.25,1.38h.31l2.19-2.54-.62-.69c0-1.73,1.35-5.73,4.06-12,.83-2.65,1.67-5.85,2.5-9.58,4.98-1.15,8.24-1.73,9.76-1.73h.31v.23c-1.66,3.93-3.43,9.39-5.31,16.39l.31,1.15h.31c.57,0,1.72-1.31,3.44-3.92h.31v1.38c-1.46,3.66-3.33,9.5-5.62,17.54l.63,1.62h.94c.83-2.12,2.5-5.19,5-9.23h.94c-4.16,14.81-6.45,23.43-6.87,25.85l.62,1.38c.36,0,1.09-.69,2.19-2.08,2.29-5.69,5-11.7,8.12-18,4.16-10.96,7.08-18.2,8.74-21.7h.94c-2.29,7.85-3.44,12.39-3.44,13.62,.21,.81,.31,1.27,.31,1.38h.94c.42-.92,.83-1.38,1.25-1.38,1.92-5.5,3.69-9.73,5.31-12.7,4.53-12.77,7.65-19.16,9.37-19.16,4.94-1.12,9-2.27,12.18-3.46h1.87l.62,.23c0,1-.11,2-.31,3,.42,1.15,.62,1.85,.62,2.08,0,1.73-.1,4.35-.31,7.85,0,.77,.1,1.15,.31,1.15,1.04,16.66,1.77,25.28,2.19,25.85h.62c.62-1.65,.94-2.88,.94-3.69v-4.39c0-1.69,.21-3.15,.62-4.39-.21-.81-.31-1.58-.31-2.31,0-.38,.21-1.08,.62-2.08h.62c.63,2.04,.94,3.58,.94,4.62,0,.58-.31,2.19-.94,4.85,0,1.38,.52,6.39,1.56,15,0,.31,.21,.46,.62,.46h.31c1.04,0,1.66-1.15,1.87-3.46v-4.16c0-.77,.21-1.69,.62-2.77h.62c.83,2.46,1.25,7.93,1.25,16.39v1.38c0,.54-.11,1.23-.31,2.08,.83,8.93,2.08,14.77,3.75,17.54h.63c.47,0,.78-.69,.94-2.08-.83-3.08-1.25-4.85-1.25-5.31,.62-1.66,.94-2.66,.94-3v-12c0-2.42,.21-4.04,.62-4.85h-.31c0-1.92,.21-4.08,.62-6.46-.21-.73-.31-1.73-.31-3v-.23h.31l.62,.23c1.25,10.77,2.6,16.16,4.06,16.16h.31c.47,0,.78-.62,.94-1.85-.63-5.62-.94-8.85-.94-9.69v-1.15c0-1,.21-4.08,.62-9.23l.31-1.16c-.21-1.62-.52-3.15-.94-4.62,0-.23,.1-1.15,.31-2.77-.83-4.31-1.25-7.93-1.25-10.85,0-.15,.21-1.08,.62-2.77h.62c0,1.08,.83,2.16,2.5,3.23h.62v-1.62c0-1.23-.42-3-1.25-5.31l.31-2.08c0-.42-.1-1.96-.31-4.62,.52-6.43,1.14-10.19,1.87-11.31,2.13-.58,4.06-1.14,5.78-1.68,.05,.08,.1,.15,.15,.23v.23c0,4.27-.73,8.66-2.19,13.16-2.5,16.31-3.75,25.32-3.75,27.01,0,.31,.21,.46,.62,.46h.31l.62-.23c0-3.27,.62-6.04,1.87-8.31,1.04-1.5,1.56-2.42,1.56-2.77h.63c-1.67,6.31-2.5,10.39-2.5,12.23l-.31,.46c.21,0,.31,.08,.31,.23v3.93c0,1.58-.31,3.35-.94,5.31,.89,3.23,1.82,4.85,2.81,4.85h.63c1.67-2.23,4.27-9.39,7.81-21.47h.94v6.69l.63,.69c1.3,0,2.24-2.31,2.81-6.93,2.71-4.58,4.06-8.35,4.06-11.31,2.5-7.16,3.75-12.46,3.75-15.93,2.29-2.62,3.44-4.39,3.44-5.31v-3.69c0-2.35,4.06-5.35,12.18-9h3.12c3.49,3.85,5.36,5.77,5.62,5.77,5.15,3.43,8.79,7.27,10.93,11.54,4.79,3.89,8.22,7.81,10.3,11.77,8.74,8.93,13.12,14,13.12,15.23,3.37,4.01,5.9,6.73,7.59,8.2-3.33,.97-8.03,2.68-14.15,5.13,.36,1.38,1.2,2.08,2.5,2.08,2.22,0,7.94-.76,17.12-2.29,1.63,1.49,3,2.28,4.12,2.35h.31v-.92c-.67-.66-1.26-1.28-1.82-1.86,.09-.01,.17-.03,.26-.04h.63c.62,0,1.56,.31,2.81,.92h0c2.83,2.92,6.57,6.48,11.22,10.67-.08,.8-.18,1.7-.3,2.72,.47,3.08,1.2,4.62,2.19,4.62h.31l1.25-.69c.34-.6,.75-1.45,1.21-2.51,2.25,1.97,4.64,4.05,7.23,6.26h.62v-.23c-1.29-1.2-3.65-3.85-7.07-7.93,.37-.93,.77-1.98,1.2-3.15,1.77,1.54,3.61,2.93,5.55,4.15,1.2,1.58,3.07,3.42,5.62,5.54,.17,.32,.43,.68,.75,1.06-.76,.76-1.5,1.66-2.23,2.73-2.29,.19-4.16,.5-5.62,.92l.31,1.16c-2.71,3-4.06,5.46-4.06,7.39-3.12,3.58-4.68,5.66-4.68,6.23v5.77c0,1.35-2.71,6.19-8.12,14.54-1.25,5.31-3.54,11.39-6.87,18.24-.32,1.45-.67,2.89-1.05,4.32-2.05,.62-4.17,1.35-6.37,2.2h-.63l-.62-.23c-.21-3.38-.31-5.62-.31-6.69l.63-2.08v-.23c-1.04-1-1.56-1.77-1.56-2.31v-.23c0-1.08,.21-1.92,.63-2.54-.21-.81-.31-1.27-.31-1.38,0-1.77-.1-8.08-.31-18.93,0-1.73,.31-4.04,.94-6.92-.26,0-.47-2.23-.62-6.69,0-1.27,.73-2.66,2.19-4.16,0-.84-.31-1.77-.94-2.77-3.54-1.19-5.31-3.42-5.31-6.69l.31-.46c-.52-2.46-1.46-3.69-2.81-3.69l-4.68,1.15h-.62c-1.72-.5-2.65-2.81-2.81-6.93,0-.92-1.67-1.38-5-1.38s-6.35,3.77-9.37,11.31c-2.55,8.19-4.53,13.58-5.93,16.16-5.2,13.04-8.54,22.66-9.99,28.85-3.54,5.85-5.31,9.46-5.31,10.85v2.77c0,1.27-1.67,4.35-5,9.23-1.35,4.58-2.5,7.73-3.43,9.46-6.44,2.28-11.52,4.19-15.26,5.74,.42-1.54,.9-3.21,1.44-5.04,4.37-10.54,6.56-17,6.56-19.39,1.25-1.27,1.87-2.73,1.87-4.39l6.25-13.85-.62-4.39c0-1.15,1.46-3.38,4.37-6.69,0-4.58,4.48-11.43,13.43-20.55v-.69h-.31l-.62,.23c-1.82,2.62-3.38,3.93-4.68,3.93-1.72,1.69-2.86,2.54-3.43,2.54l-.63-.23c.36-1,1.41-2.38,3.12-4.16,1.2-3.04,3.38-5.65,6.56-7.85,.73-2.58,1.67-4.43,2.81-5.54-.78,0-3.59,1.54-8.43,4.62h-.31v-.69c0-1.54,1.87-4.31,5.62-8.31,.52-2.46,1.04-4,1.56-4.62v-.23h-.31c-1.04,.5-3.23,2.73-6.56,6.69-8.43,6.81-13.74,11.89-15.93,15.23h-.62c0-.65,.31-1.65,.94-3,2.5-3.92,3.75-6.31,3.75-7.16,3.12-3.88,4.68-6.04,4.68-6.46v-.46h-.63c-1.87,.92-4.06,3.16-6.56,6.69-5.83,4.62-8.74,8.08-8.74,10.39-3.18,3.27-5.57,6.27-7.18,9-3.85,1.89-6.66,5.35-8.43,10.39-5.2,4.85-7.81,7.69-7.81,8.54,0,.54,.21,1.85,.62,3.92,0,1.08-.62,2.16-1.87,3.23-3.38,2.77-5.99,5.23-7.81,7.39-1.4,3.04-3.49,5.12-6.25,6.23-1.46,0-2.19-.46-2.19-1.38-1.04-3.12-2.39-4.96-4.06-5.54,0-1.96,.31-3.5,.94-4.62-.21-4-.31-7.16-.31-9.46v-8.08c0-1.46-.21-3.69-.62-6.69,0-1.23,1.35-3.85,4.06-7.85,0-.23-.21-.92-.62-2.08-2.08-2.5-3.12-3.89-3.12-4.16v-.46c0-.46,.63-2.08,1.87-4.85-1.35-3.23-2.92-4.85-4.68-4.85-1.3,0-2.76,.62-4.37,1.85-3.33,4.19-5.52,6.35-6.56,6.46-4.11,0-6.92,1.31-8.43,3.92-.83,3.93-2.39,7.54-4.68,10.85,0,3.81-1.46,7.12-4.37,9.93-1.41,4.81-4.95,13.12-10.62,24.93,.42,0,.62,1.15,.62,3.46v.69c-3.54,5.23-5.31,8.39-5.31,9.46-4.16,7.66-6.25,11.66-6.25,12-4.79,9.12-8.33,16.74-10.62,22.85v.46l.62,.69c.78,0,2.45-2.31,5-6.92h.94c-2.08,4.65-4.16,10.12-6.25,16.39-.88,5.46-1.72,8.93-2.5,10.39,0,.31,.21,.46,.63,.46h.62c1.04-1.5,2.81-4.81,5.31-9.93h.94c0,1.35-.83,3.65-2.5,6.92-.31,4.93-.73,7.39-1.25,7.39-1.04,2.73-1.87,6.81-2.5,12.24v.23c0,.31,.21,.46,.62,.46,.57,0,1.2-1.69,1.87-5.08,3.96-8.96,6.35-13.73,7.18-14.31h.31v.23c0,1.92-.83,4.85-2.5,8.77,0,.27-1.04,4.96-3.12,14.08v10.16c0,.31,.21,.46,.63,.46,.52,0,1.04-1.54,1.56-4.62,2.29-7.39,5.52-15,9.68-22.85,1.09-5.04,2.34-9.19,3.75-12.46l2.81-9.23c3.38-7.69,5.46-12,6.25-12.93h.31c-.21,3.08-.31,5.39-.31,6.93v.23h.31c.99-.46,1.92-1.38,2.81-2.77,2.29-6.04,5-11.58,8.12-16.62,2.19-7.89,5-13.35,8.43-16.39h.62l.63,.23c0,7.5,1.46,12.35,4.37,14.54h2.5l1.56,.23c2.08,2,4.47,3,7.18,3,1.3,0,3.17-.92,5.62-2.77,2.13-4.42,4.84-7.43,8.12-9,3.7-4.93,6.61-7.39,8.74-7.39h.94v1.38c-2.29,5.27-3.43,8.35-3.43,9.23-4.16,7.81-6.25,12.12-6.25,12.93-2.02,2.77-3.63,5.15-4.87,7.18-.12,.07-.25,.14-.36,.21v.38c-1.56,2.62-2.43,4.58-2.58,5.85l.31,.92h.31c1.46-1.08,2.19-2,2.19-2.77h.94v.23c0,.73-.73,1.88-2.19,3.46-2.08,5.96-4.06,10.27-5.93,12.93-2.55,4.96-4.32,10.12-5.31,15.46l-2.81,10.39,.31,.92h.62c1.46-.81,2.19-1.58,2.19-2.31,.36-4.62,2.65-9.39,6.87-14.31,.94-3.12,2.08-5.19,3.44-6.23h.31c0,5.16-2.6,12.08-7.81,20.78,0,2.77-1.15,7.62-3.44,14.54,.21,1.81,.31,3.12,.31,3.93-.62,2.5-.94,3.96-.94,4.39v.46c0,1.15,.31,1.77,.94,1.85h.31c1.4-6.23,2.76-9.77,4.06-10.62,1.72-5.31,3.59-9.08,5.62-11.31l1.87-8.08c3.33-8.46,5.41-12.7,6.25-12.7h.31c0,4.35-1.67,10.5-5,18.47l-1.25,7.62,.31,.92h.94c0-.58,1.25-3.58,3.75-9,3.59-5.23,7.03-14.54,10.3-27.93,2.91-6.19,4.37-9.58,4.37-10.16h.62v.92c0,.5-1.04,4.89-3.12,13.16,.21,0,.42,.38,.62,1.15,.83,.69,1.25,1.15,1.25,1.38h.31l2.19-2.54-.62-.69c0-1.73,1.35-5.73,4.06-12,.83-2.65,1.67-5.85,2.5-9.58,4.98-1.15,8.24-1.73,9.76-1.73h.31v.23c-1.66,3.93-3.43,9.39-5.31,16.39l.31,1.15h.31c.57,0,1.72-1.31,3.44-3.92h.31v1.38c-1.46,3.66-3.33,9.5-5.62,17.54l.63,1.62h.94c.83-2.12,2.5-5.19,5-9.23h.94c-4.16,14.81-6.45,23.43-6.87,25.85l.62,1.38c.36,0,1.09-.69,2.19-2.08,2.29-5.69,5-11.7,8.12-18,4.16-10.96,7.08-18.2,8.74-21.7h.94c-2.29,7.85-3.44,12.39-3.44,13.62,.21,.81,.31,1.27,.31,1.38h.94c.42-.92,.83-1.38,1.25-1.38,1.92-5.5,3.69-9.73,5.31-12.7,4.53-12.77,7.65-19.16,9.37-19.16,4.94-1.12,9-2.27,12.18-3.46h1.87l.62,.23c0,1-.1,2-.31,3,.42,1.15,.62,1.85,.62,2.08,0,1.73-.1,4.35-.31,7.85,0,.77,.1,1.15,.31,1.15,1.04,16.66,1.77,25.28,2.19,25.85h.62c.62-1.65,.94-2.88,.94-3.69v-4.39c0-1.69,.21-3.15,.62-4.39-.21-.81-.31-1.58-.31-2.31,0-.38,.21-1.08,.62-2.08h.62c.63,2.04,.94,3.58,.94,4.62,0,.58-.31,2.19-.94,4.85,0,1.38,.52,6.39,1.56,15,0,.31,.21,.46,.62,.46h.31c1.04,0,1.66-1.15,1.87-3.46v-4.16c0-.77,.21-1.69,.62-2.77h.62c.83,2.46,1.25,7.93,1.25,16.39v1.38c0,.54-.1,1.23-.31,2.08,.83,8.93,2.08,14.77,3.75,17.54h.63c.47,0,.78-.69,.94-2.08-.83-3.08-1.25-4.85-1.25-5.31,.62-1.66,.94-2.66,.94-3v-12c0-2.42,.21-4.04,.62-4.85h-.31c0-1.92,.21-4.08,.62-6.46-.21-.73-.31-1.73-.31-3v-.23h.31l.62,.23c1.25,10.77,2.6,16.16,4.06,16.16h.31c.47,0,.78-.62,.94-1.85-.02-.14-.03-.25-.04-.38,.65-1.63,1.06-3.29,1.21-4.98l7.49-22.85c1.51-10.62,3.07-15.93,4.68-15.93h.31v1.85c0,2.39-.73,7.85-2.19,16.39,0,.58,.42,2.42,1.25,5.54h.31c1.35,0,3.23-5.54,5.62-16.62,4.16-11,6.25-17.08,6.25-18.24h.62c.42,0,.62,.15,.62,.46,0,1.54-.1,3.38-.31,5.54,.21,.31,.31,.54,.31,.69h.63l.94-.46c4.89-12.46,7.6-18.7,8.12-18.7h.94c.88,0,3.07,3.46,6.56,10.39,1.43,2.83,5.86,9.77,13.28,20.78-1.45,.47-3.01,1-4.69,1.61,0,2.62,1.46,3.92,4.37,3.92h2.5c.47,0,.91,.02,1.36,.03,4.44,9.01,7.68,13.93,9.73,14.75l1.56-1.85c3.54,3.19,5.31,5.96,5.31,8.31,6.04,8.85,9.78,15.16,11.24,18.93,4.89,7.54,7.7,11.31,8.43,11.31,.83-.31,1.25-.54,1.25-.69v-.23c0-1.08-.42-2.46-1.25-4.15-3.96-4.19-5.93-7.12-5.93-8.77-3.54-7.96-5.31-12.2-5.31-12.7v-.23h.31c5.62,7.12,10.51,14.97,14.68,23.55,0,.77,3.75,5.54,11.24,14.31,4.74,7.39,8.07,11.08,9.99,11.08v-.23c0-1.04-.94-2.73-2.81-5.08-1.2-3.62-2.34-5.85-3.44-6.69-1.87-4.27-3.54-6.81-5-7.62-.78-1.23-2.03-3.77-3.75-7.62-2.86-3-5.78-8.31-8.74-15.93v-.46h.31c1.72,1.85,2.65,2.77,2.81,2.77,1.2,2.77,3.59,5.62,7.18,8.54,2.5,4.16,4.27,6.23,5.31,6.23,.63-.58,.94-.96,.94-1.15-.1-.58-1.87-3.35-5.31-8.31-1.67-5.12-2.92-8.35-3.75-9.69-5-5.85-7.49-9.93-7.49-12.24-.85-1.29-1.61-2.5-2.29-3.62,.98,.07,1.99,.18,3.07,.39,3.12-1.31,4.68-4.31,4.68-9,2.97-2.31,4.94-4,5.93-5.08,25.81-1.38,41.22-2.31,46.22-2.77,3.95,0,7.29,.08,9.99,.23,7.91-.15,11.87-.46,11.87-.92v-.46l-1.56-.23h-5.93c-8.59,0-15.14-.31-19.67-.92,0-.27,.52-.5,1.56-.69,8.59,0,16.91-.23,24.98-.69,1.94,0,3.71,.02,5.34,.05,.02,.04,.03,.08,.05,.12,.21,4.81,.63,7.66,1.25,8.54,5.62,4.66,8.43,7.73,8.43,9.23,.42,2.54,3.02,5.77,7.81,9.69,3.9,2.15,7.34,3.23,10.3,3.23,5.36,0,12.23-1.85,20.61-5.54,4.32-2.81,7.65-6.12,9.99-9.93,1.3-6.23,2.97-10.08,5-11.54,1.4-5.5,3.07-8.81,5-9.93,.6-1.84,1.28-3.5,2.02-5.01,10.64-1.31,17.12-2.95,19.45-4.92h1.56c.42,0,.62,.15,.62,.46v.23c0,.42-.21,.88-.62,1.38,0,.5,.52,1.27,1.56,2.31v1.85c-1.25,4.62-1.87,7.85-1.87,9.69,0,1.31-1.77,6.54-5.31,15.7,0,.38,.1,1.54,.31,3.46,0,1.62-.73,4.23-2.19,7.85-.63,5.46-1.56,10.16-2.81,14.08,0,.69,.31,1.62,.94,2.77h1.25c2.08-.96,3.64-2.42,4.68-4.39,0-1.69,1.25-2.54,3.75-2.54,5.2-4.19,7.81-7.35,7.81-9.46l6.25-4.85c-.42-1.5-.62-2.35-.62-2.54,0-5.27,2.91-11.35,8.74-18.24,.62-11.97,2.08-18.51,4.37-19.62,1.56-3.69,2.81-5.54,3.75-5.54,0,.15,.31,.31,.94,.46,1.14-.77,5.1-1.92,11.87-3.46,6.19-1.42,12.96-5.04,20.3-10.85,6.25-2.46,12.28-7,18.11-13.62,2.65-1.42,4.63-3.19,5.93-5.31,6.45-5.04,9.68-10.96,9.68-17.77,0-1.96-.94-6.12-2.81-12.46,0-2.74-1.93-5.18-5.79-7.32,.03-.12,.06-.22,.09-.34,1.45-3.73,2.71-7.01,3.8-9.85l1.19,4.02c1.72,4.89,3.49,8.5,5.31,10.85h.63l-4.37-11.54c-.15-3.84-.41-6.69-.77-8.57,.18-.48,.35-.94,.51-1.37,.63,2.6,1.75,4.76,3.37,6.49,0,1.08,3.33,8.92,9.99,23.54,1.72,4.89,2.97,7.89,3.75,9l.63-.23c0-.88-.21-1.73-.63-2.54-3.54-7.66-5.31-12.96-5.31-15.93-4.79-15.5-7.39-24.51-7.81-27.01-.36-.62-.69-1.29-1-1.97,.49-1.35,.93-2.57,1.34-3.66,2.15,6.67,3.6,10.7,4.34,12.09,.63,3.15,1.98,6.77,4.06,10.85,.42,0,.62-.15,.62-.46v-.23c0-1.54-.21-2.31-.62-2.31-1.69-8.51-3.02-13.78-4.01-15.82,.09-.1,.17-.18,.26-.28,2.13-10.43,3.8-16.12,5-17.08,2.45-8,4.42-12,5.93-12l1.25,.23c.21,0,.31-.23,.31-.69,8.27-2.35,12.65-3.96,13.12-4.85,5.41-1.12,8.95-1.96,10.62-2.54h1.56l1.56,.69c.36-.15,.78-.23,1.25-.23,0,.65-.1,1.5-.31,2.54,0,2,.1,4.08,.31,6.23l-.63,14.54c.21,3.54,.73,5.31,1.56,5.31h.31c0-.19,.42-1.27,1.25-3.23h.62c0,1.08,.1,2.77,.31,5.08,0,.85-.1,1.92-.31,3.23,.21,1.31,.31,3,.31,5.08v.23c0,.54-.21,1.85-.62,3.93,.73,6.69,1.46,10.77,2.19,12.23h.31c.68,0,1.72-5.69,3.12-17.08l-.31-2.77c0-.92,.1-2.54,.31-4.85h.62v11.08l2.5,17.08v3c0,1.54,.42,3,1.25,4.39,.42,0,.62-.15,.62-.46v-3.92c0-.65,.1-1.5,.31-2.54-.42-1.38-.62-3.31-.62-5.77,1.04-5.96,1.56-13.04,1.56-21.24v-1.62h.62l.31,1.16v2.08c0,.69,1.35,9.54,4.06,26.55-.21,.81-.31,1.27-.31,1.38,.21,0,.31,.23,.31,.69h.62l.62-.23c0-1.69,.31-5.93,.94-12.7,0-.77-.1-1.92-.31-3.46,.42-2.23,.62-3.77,.62-4.62,0-.73-.52-5.66-1.56-14.77,.42-1.65,.62-2.73,.62-3.23v-3.93h.62c.83,4.77,1.77,8.08,2.81,9.93h.31c.42,0,.62-.15,.62-.46v-1.15c0-10.08-1.25-19.24-3.75-27.47,0-1.27,.1-2.27,.31-3-.21-.96-.31-2.04-.31-3.23v-1.62c0-.35,.1-.65,.31-.92,3.59-1.31,5.78-2.69,6.56-4.16-.62-3.08-.94-4.85-.94-5.31,0-.31,.52-1.38,1.56-3.23v-.23ZM42.97,149.19h-.31l.62-1.62h.62c-.21,1.08-.52,1.62-.94,1.62Zm4.68-34.39h-.94c0-.84,.73-2.46,2.19-4.85l.62,.23c0,.77-.62,2.31-1.87,4.62Zm54.02,41.32c0,.77-.31,1.23-.94,1.38v-1.62l.31-1.15h.63v1.38Zm15.3,4.16l-.62,1.62h-.62c0-.12,.1-.73,.31-1.85h.94v.23ZM226.97,40.64h1.56v.23c0,.54-2.71,1.08-8.12,1.62h-1.87l-.63-.23s-.09,.09-.26,.14c.05-.68,.14-1.44,.26-2.25,2.13,.02,3.91,.04,5.3,.04l3.75,.46Zm-7.49-6.46v.23c0,.26-.44,.44-1.3,.56-.02-.24-.04-.5-.06-.79h1.36Zm-24.36,49.46c-3.59,2-6.09,3-7.49,3h-2.81v-1.62c0-.88,1.25-3.5,3.75-7.85,0-4.08,1.35-7.23,4.06-9.46h.62c1.04,.27,1.67,2.65,1.87,7.16v8.77Zm24.98-5.31h-.63l-.62-.23c-.21-3.38-.31-5.62-.31-6.69l.63-2.08v-.23c-1.04-1-1.56-1.77-1.56-2.31v-.23c0-1.08,.21-1.92,.63-2.54-.21-.81-.31-1.27-.31-1.38,0-1.65-.09-7.26-.27-16.82l10.58-.55c1.92,0,3.7,.08,5.31,.23,1.25,0,1.87,1.31,1.87,3.92,0,2.88-.73,5.96-2.19,9.23,0,4.69-1.56,9.62-4.68,14.77-.17,.79-.33,1.54-.48,2.25-2.53,.71-5.17,1.59-7.95,2.65Zm-81.11,212.69h-.31l.62-1.62h.62c-.21,1.08-.52,1.62-.94,1.62Zm4.68-34.39h-.94c0-.84,.73-2.46,2.19-4.85l.62,.23c0,.77-.62,2.31-1.87,4.62Zm54.02,41.32c0,.77-.31,1.23-.94,1.38v-1.62l.31-1.15h.63v1.38Zm15.3,4.16l-.62,1.62h-.62c0-.12,.1-.73,.31-1.85h.94v.23Zm78.14-76.64c-3.59,2-6.09,3-7.49,3h-2.81v-1.62c0-.88,1.25-3.5,3.75-7.85,0-4.08,1.35-7.23,4.06-9.46h.62c1.04,.27,1.67,2.65,1.87,7.16v8.77Zm26.23,5.77c.25-.07,.48-.13,.72-.2-.84,3.34-1.59,5.93-2.25,7.78,.44-4.17,.95-6.7,1.53-7.58Zm-1.64,9.64h.62v.69h-.62v-.69Zm.16,9.55c-.12-.38-.25-.76-.4-1.18l.31-2.08c0-.34-.07-1.41-.2-3.19,.37,.25,.82,.45,1.37,.59v1.15c0,1.12-.37,2.7-1.09,4.7Zm-2.89,2.51h.62c0,.52,.2,1.05,.59,1.57-.51,1.12-1.1,2.35-1.76,3.65-.06-.86-.09-1.68-.09-2.45,0-.15,.21-1.08,.62-2.77Zm6.48,1.79c-.42,1.12-.94,3.35-1.56,6.69-1.87,6.08-3.4,14.17-4.6,24.23,0-.05,0-.13,0-.17v-1.15c0-1,.21-4.08,.62-9.23l.31-1.16c-.21-1.62-.52-3.15-.94-4.62,0-.12,.03-.45,.09-.97l4.2-9.48c.73-3.08,1.25-4.62,1.56-4.62h.31v.46Zm2.5-6.93h-.62v-.69h.62v.69Zm83.37,58.4h.31c.78,.31,2.45,2.38,5,6.23v1.38l-.31,.46c-3.33-3.31-5-5.77-5-7.39v-.69Zm25.92,26.08h.31c.42,0,.62,.15,.62,.46v.23h-.94v-.69Zm-7.81-27.01c.78,0,1.51,.92,2.19,2.77v.23h-.31c-.63-.31-1.35-1.15-2.19-2.54l.31-.46Zm247.81-163.09c-.69-2.48-1.04-4.19-1.04-5.11-1.67-9.43-2.81-14.58-3.43-15.47v-.92h.62c.42,1.62,1.67,5.08,3.75,10.39,.75,1.43,1.42,2.75,2.06,4.01-.68,3.99-1.34,6.36-1.96,7.1Zm-24.77-91.67c1.46-3.54,2.19-5.92,2.19-7.16v-1.62c0-.5,.31-1.04,.94-1.62,1.87-.65,2.81-1.27,2.81-1.85,5.36-3.08,9.52-4.62,12.49-4.62,0-1.04,4.58-2.04,13.74-3,1.09,0,2.45,.23,4.06,.69v2.54c0,.96-1.77,2.81-5.31,5.54-3.49,3.38-8.8,5.77-15.93,7.16-3.23,2.42-8.02,4.04-14.36,4.85h-.63v-.92Zm-20.92-1.38c0,1.19-.52,2.12-1.56,2.77-3.8,9.73-6.92,17.04-9.37,21.93-1.56,5.31-3.43,9.62-5.62,12.93-2.78,4.93-4.99,9.62-6.65,14.07-1.75-3.13-4-6.66-6.77-10.6-3.23-8.43-4.89-14.12-5-17.08,0-1.77,4.79-4.08,14.36-6.93,7.86-2.88,14.1-7.73,18.74-14.54,.59-.77,1.14-1.74,1.65-2.92,.07,.11,.15,.24,.22,.38Zm-11.5,108.27c-3.04-10.03-4.73-16.05-5.05-18.02-.05-.09-.1-.19-.15-.28,.37-1.21,.75-2.33,1.14-3.35,1.8,5.48,3.03,8.85,3.69,10.09,.62,3.13,1.96,6.72,4.01,10.76-1.07,.2-2.29,.47-3.64,.8Zm-10.36-.7c.4,1.14,.81,2.21,1.22,3.22-.77,.23-1.56,.47-2.38,.72,.34-1.55,.68-3.02,1.02-4.42l.14,.48Zm-12.73,22.02h.31v.46c-1.21,.6-2.3,1.17-3.29,1.71,.21-.64,.41-1.27,.61-1.91,.8-.14,1.59-.24,2.37-.27Zm-9.37,7.62v.23h.31c.08,0,.16-.01,.23-.02-.62,1.08-1.19,1.86-1.72,2.33-2.97,6.93-4.94,10.54-5.93,10.85h-.31v-.69c1.44-4.43,3.53-10.1,6.26-17.01,1.59-.89,3.14-1.59,4.66-2.12-.54,1.44-1.06,2.72-1.56,3.83-1.29,1.03-1.94,1.9-1.94,2.6Zm-14.29,27.24h-.31v-.23c.26-1.04,.99-2.35,2.19-3.93l.63,.23c0,1.58-.83,2.88-2.5,3.93Zm-8.43-14.54h-.31c.6-2.53,1.2-4.77,1.81-6.76,1.06-.56,2.16-1.13,3.33-1.73-2.29,5.66-3.9,8.49-4.83,8.49Zm30.91-30.73c-1.75,.66-3.26,1.28-4.54,1.85,.1-.23,.19-.46,.29-.7,1.06-.55,2.24-1.22,3.55-2.05h1.18c-.15,.3-.32,.6-.48,.9Zm-4.45,5.34c0-.23,.42-.46,1.25-.69l.62,.23c0,.23-.42,.46-1.25,.69l-.62-.23Zm-10.64,6.71c-.81,.36-1.48,.7-2.02,1.02,.56-1.25,1.06-2.38,1.52-3.41,.74-.32,1.49-.63,2.27-.91-.64,1.24-1.23,2.35-1.77,3.3Zm17.61-16.63h-.33c-.03,.06-.06,.13-.09,.2-1.56,.74-3.28,1.63-5.16,2.69,2.32-5.53,4.89-11.57,7.75-18.14,.16-.51,.31-1,.47-1.48h0c.99-3.14,1.84-5.73,2.54-7.8,.09,.19,.17,.36,.26,.55-.74,4.14-1.27,8.04-1.55,11.64,0,.31,.21,.46,.62,.46l.63-.23c.71-2.92,1.37-5.62,2-8.14,.66,1.54,1.15,2.81,1.43,3.75l1.03,3.48c-.42,3.52-.65,6.96-.7,10.32-.4,.12-.79,.24-1.19,.37-1.8,0-4.37,.77-7.71,2.32Zm-3.3-43.04h.62c.42,1.62,1.67,5.08,3.75,10.39,1.13,2.16,2.13,4.12,3.01,5.9-.12,.35-.24,.72-.36,1.12-.82,1.57-1.62,3.11-2.4,4.62-.79-2.76-1.19-4.66-1.19-5.64-1.67-9.43-2.81-14.58-3.43-15.47v-.92Zm15.93,5.54l.31-.46c.29,.32,.64,.85,1.05,1.55-.24,1.21-.44,2.26-.6,3.13-.3-1.34-.56-2.74-.76-4.23Zm-36.22-75.71c1.46-3.54,2.19-5.92,2.19-7.16v-1.62c0-.5,.31-1.04,.94-1.62,1.87-.65,2.81-1.27,2.81-1.85,5.36-3.08,9.52-4.62,12.49-4.62,0-1.04,4.58-2.04,13.74-3,1.09,0,2.45,.23,4.06,.69v2.54c0,.96-1.77,2.81-5.31,5.54-3.49,3.38-8.8,5.77-15.93,7.16-3.23,2.42-8.02,4.04-14.36,4.85h-.63v-.92Zm-46.53-5.08l10.3-1.39h.94c0,.35-.1,.66-.31,.92-6.66,3.69-9.99,6-9.99,6.93,.68,0,1.41-.23,2.19-.69,4.16-2.77,7.6-4.15,10.3-4.15h1.87c0,.15-.1,.38-.31,.69-2.29,1.04-3.43,2.19-3.43,3.46v.23c.1,.31,.62,.62,1.56,.92,.62,0,1.46-.15,2.5-.46,3.44-2.46,6.35-3.69,8.74-3.69h.31c.31,0,.62,.31,.94,.92,0,1.19-.52,2.12-1.56,2.77-3.8,9.73-6.92,17.04-9.37,21.93-1.56,5.31-3.43,9.62-5.62,12.93-3.31,5.88-5.82,11.41-7.55,16.61-.18-.67-.36-1.35-.56-2.01,0-1.27,.1-2.27,.31-3-.21-.96-.31-2.04-.31-3.23v-1.62c0-.35,.1-.65,.31-.92,3.59-1.31,5.78-2.69,6.56-4.16-.62-3.08-.94-4.85-.94-5.31,0-.31,.52-1.38,1.56-3.23v-.23c0-.38-2.39-.92-7.18-1.62-2.5-2.31-4.37-3.46-5.62-3.46-1.04,0-2.08-8.77-3.12-26.32v-.12c2.06-.65,4.54-1.54,7.49-2.71Zm-22.95,154.44c.68-.12,1.22-.23,1.61-.35-.12,1.57-.24,3.17-.36,4.81h-1.25v-4.46Zm-.62-11.69c.21-.81,.31-1.58,.31-2.31-.16-1.08-.47-1.62-.94-1.62h-.31v6c0,.92-.52,2-1.56,3.23-.11,1.66-.22,3.25-.34,4.78-1.11-.04-2.37-.08-3.8-.11-4.74,0-9.21,.15-13.43,.46-3.33-.15-5.52-.31-6.56-.46-1.3,.31-2.55,.46-3.75,.46h-.31v-.69c6.25-.92,9.37-1.85,9.37-2.77-.21,0-.31-.08-.31-.23-5.93,0-15.3,.31-28.1,.92h-.62l-5-.69v-4.15c0-3.85,.62-6.39,1.87-7.62,8.85-.31,14.88-.46,18.11-.46h.31c1.82-.92,2.97-1.38,3.44-1.38,5.52,0,11.45-.54,17.8-1.62,8.27-1.23,14.21-2.85,17.8-4.85v-.23l-.31-.46c-2.29,.31-4.27,.46-5.93,.46h-.31v-.23c0-.62,1.66-1.08,5-1.38,1.03-.2,2.03-.38,3-.57-1.26,7.15-2.3,15.83-3.13,26.05-.4-.09-.95-.17-1.67-.24v-1.07c0-3.35-.21-6.43-.62-9.23Zm9.68-12.7h-.31c-.2-1.3-.39-2.45-.57-3.47,.9-.17,1.76-.34,2.6-.5-.67,2.64-1.24,3.97-1.73,3.97Zm6.09-21.04c1.04-5.96,1.56-13.04,1.56-21.24v-1.62h.62l.31,1.16v2.08c0,.48,.64,4.8,1.92,12.97-.14,1.22-.26,2.43-.35,3.59,0,.31,.21,.46,.62,.46l.35-.13c.35,2.19,.73,4.6,1.14,7.22-.52-.61-1.17-1.47-1.96-2.61h-1.25c-.94,.58-1.82,1.42-2.65,2.53-.21-1.2-.32-2.67-.32-4.41Zm8.12-33.93h.43c-.12,.56-.27,1.19-.43,1.9v-1.9Zm-.16,39.4c.15-2.23,.41-5.35,.78-9.39,0-.77-.11-1.92-.31-3.46,.42-2.23,.62-3.77,.62-4.62,0-.37-.13-1.8-.39-4.28,.88-3.42,1.67-6.35,2.37-8.81,.17,.4,.34,.77,.52,1.09h.31c.42,0,.62-.15,.62-.46v-1.15c0-1.38-.03-2.74-.08-4.09,.86-2.69,1.51-4.28,1.95-4.74h.94v1.85c-1.46,6.85-2.19,10.77-2.19,11.77-2.49,9.3-3.82,18.11-4.02,26.44-.36-.05-.74-.1-1.14-.15Zm-18.58-34.78l.31-.46c.42,0,.62,.15,.62,.46v.23c0,.31-.21,.46-.62,.46h-.31v-.69Zm-22.17-50.55c.73-6.31,1.56-9.46,2.5-9.46l2.5-7.39c2.29-.42,3.44-1.12,3.44-2.08h2.19c3.44,0,5.41,6.77,5.93,20.31-.83,3.04-1.25,5.27-1.25,6.69v.23l-.94,.92c-3.64,.62-9.26,1.85-16.86,3.69-.36,0-.57-.15-.62-.46,0-3.85,1.04-8,3.12-12.46Zm-9.99,33.93l1.25,.23c.21,0,.31-.23,.31-.69,8.27-2.35,12.65-3.96,13.12-4.85,5.41-1.12,8.95-1.96,10.62-2.54h1.56l1.56,.69c.36-.15,.78-.23,1.25-.23,0,.65-.11,1.5-.31,2.54,0,2,.1,4.08,.31,6.23l-.63,14.54c.21,3.54,.73,5.31,1.56,5.31h.31c0-.19,.42-1.27,1.25-3.23h.62c0,1.08,.1,2.77,.31,5.08,0,.85-.1,1.92-.31,3.23,.21,1.31,.31,3,.31,5.08v.23c0,.54-.21,1.85-.62,3.93,.73,6.69,1.46,10.77,2.19,12.23h.31c.68,0,1.72-5.69,3.12-17.08l-.31-2.77c0-.92,.1-2.54,.31-4.85h.62v11.08l2.5,17.08v2.32c-.61,1.29-1.19,2.74-1.72,4.41-.16,.85-.32,1.63-.47,2.36-1.28,.14-2.53,.27-3.75,.39-.17-.76-.32-1.38-.46-1.82h-1.25l-.31,.92c-.08,.36-.15,.74-.22,1.11-7.37,.68-13.69,1.02-18.9,1.02l-.63-.23,.63-.69c8.95-1.16,13.43-2.16,13.43-3,0-.27-.52-.5-1.56-.69,0,.19-1.77,.42-5.31,.69-.47,0-1.61-.08-3.44-.23-7.96,.92-16.71,1.69-26.23,2.31-6.25-.31-10.72-.46-13.43-.46h-.94c-1.07,0-2.44-.45-4.09-1.32,.37-1.16,.77-2.58,1.2-4.31,5.83-15,8.74-22.85,8.74-23.55,2.76-7.77,4.42-11.77,5-12h.31v.23c0,.62-.52,2.62-1.56,6,.42,3.92,.73,5.92,.94,6,.31,0,.94-.54,1.87-1.62,2.13-10.43,3.8-16.12,5-17.08,2.45-8,4.42-12,5.93-12ZM396.14,30.08v.23c0,.42-1.15,1.5-3.44,3.23l.63,.23h3.43c.42,0,.62,.15,.62,.46v.46c-1.04,2.62-1.56,4.31-1.56,5.08v5.54c-2.71,12.39-4.68,20.62-5.93,24.7-.21,5-.94,9.69-2.19,14.08-.42,5.35-1.56,10.43-3.43,15.24-.83,9.69-2.08,15.08-3.75,16.16,.06,.05,.11,.1,.16,.16-.24,.06-.47,.12-.71,.19-10.36,.46-16.08,.92-17.17,1.38h-1.25v-1.38c2.08-4.46,3.12-8.08,3.12-10.85l3.12-10.85v-5.77l4.37-19.16c2.71-8.19,4.06-15.43,4.06-21.7v-1.38c0-.54,1.04-1.92,3.12-4.16,.26-4.31,.78-6.46,1.56-6.46,3.23-1.19,4.89-2.19,5-3,4.22-.88,6.61-1.65,7.18-2.31,.53-.11,1.05-.21,1.55-.31,.47,.06,.97,.12,1.49,.19Zm-12.8,88.87c-.53,.52-1.03,.92-1.48,1.18v-.38l1.25-1.15s.08-.04,.12-.07c.07,.16,.12,.3,.12,.41Zm-17.49,8.77c-.44,0-3.24,.45-8.4,1.36,3.61-1.68,9.86-3.4,18.78-5.17,.35-.04,.66-.09,.98-.14-6.97,1.78-10.76,3.1-11.36,3.95Zm3.44,2.31v.46h-.31c-.36,0-.57-.15-.62-.46h.94Zm-15.54,2.42c0-.53,.29-1.07,.86-1.61,.97,.14,2.21,.25,3.75,.34,1.77,0,4.58-.08,8.43-.23v.23l-.31,.46c-5,1.08-7.81,2.08-8.43,3-2.68,.68-4.91,1.38-6.71,2.09,.7-1.88,1.51-3.32,2.42-4.29Zm81.73-60.59v2.31c0,1.58-2.08,4.19-6.25,7.85-2.19,5.19-5.1,8.81-8.74,10.85-1.35,2.62-2.71,4.46-4.06,5.54-1.56,2.46-4.16,3.69-7.81,3.69h-.31l-.63-.23c.21-1.23,.52-2.15,.94-2.77l-.31-1.15c.05-1.54,.26-2.31,.62-2.31,.68-4.5,1.72-8.5,3.12-12-.21,0-.31-.08-.31-.23v-1.62h.94c1.46-3.69,3.54-5.54,6.25-5.54,6.14-3.54,10.3-5.31,12.49-5.31h2.81c.83,.39,1.25,.69,1.25,.92Zm-5.62-40.63c2.08,.65,3.12,2.04,3.12,4.15v1.85c0,1.19-.42,2.5-1.25,3.92-4.63,4.62-7.96,7.31-9.99,8.08-4.48,5.23-7.49,7.85-9.06,7.85h-.31v-1.15c.31-.46,.63-.69,.94-.69,0-.15-.1-.38-.31-.69,1.67-4.5,2.5-7.12,2.5-7.85v-4.62c0-5.08,.94-7.62,2.81-7.62l-.31-1.62c0-1.23,1.14-1.85,3.44-1.85h1.56c2.19,0,4.48,.08,6.87,.23Zm-43.64-13.27c.42-.28,.78-.53,1.09-.76l4.51,.43c-2.09,.29-3.65,.55-4.67,.79h-.94v-.46Zm-113.35,34.68c-2.65,2.31-4.74,3.46-6.25,3.46h-.94c-1.25,0-1.87-.38-1.87-1.15,0-1.39,.42-3.46,1.25-6.23,.73-6.93,3.64-10.39,8.74-10.39,1.25,0,3.75,.08,7.49,.23,10.25-1.23,16.39-2.38,18.42-3.46,3.95,.16,5.93,.69,5.93,1.62v.46c-1.15,1.38-3.96,3-8.43,4.85-4.58,3.08-7.39,4.62-8.43,4.62-5.31,2.62-10.62,4.62-15.93,6Zm29.04,29.32c-7.08-10.04-10.62-15.5-10.62-16.39v-.46c0-.35,1.04-.73,3.12-1.15,11.14-2.81,20.82-6.43,29.04-10.85,14.88-3.81,22.9-6.58,24.04-8.31,.8-.2,1.51-.47,2.15-.78,.71,.86,1.25,2.01,1.6,3.49,0,2.65-2.08,9.19-6.25,19.62v.23c1.46,2.23,2.19,3.46,2.19,3.69v.23c-4.16,16.08-6.87,25.78-8.12,29.08-.39,3.75-1.8,9.34-4.2,16.74-1.72-1.36-3.54-2.76-5.48-4.22-7.6-6.04-12.49-11.66-14.68-16.85-3.96-3.27-5.93-5.12-5.93-5.54-4.58-4.35-6.87-7.19-6.87-8.54Zm7.49,39.01v-.69h.63c2.99,2.73,5.28,4.88,6.89,6.47-.5,.4-.85,.96-1.05,1.69-.97-.84-1.46-1.48-1.46-1.93-3.33-3.31-5-5.16-5-5.54Zm21.23,14.53l1.25,.18c.02,.52,.04,1.01,.08,1.48-.44-.54-.87-1.09-1.32-1.65h0Zm5.44,6.74c.16-.03,.32-.06,.5-.1v.71c-.16-.2-.33-.4-.5-.61Zm16.11,5.5l.31-.46c.63,.23,.94,.46,.94,.69v.23h-.62c-.36,0-.57-.15-.62-.46Zm1.25,.92c1.25,0,2.81,1.23,4.68,3.69v.23h-.62c-.57-.19-1.93-1.5-4.06-3.93Zm4.14,43.72v-.92c0-1.12,.42-2.58,1.25-4.39-.21-1.04-.31-1.88-.31-2.54v-.69c0-.62,1.67-3.69,5-9.23-.31,0-.52-.92-.63-2.77v-.46c1.37-2.15,2.35-3.75,2.97-4.83,1.62,1.39,3.01,2.36,4.14,2.89h.62v-.46c0-.96-1.34-2.33-4.02-4.13-.18-.27-.27-.49-.27-.63-.12-.09-.22-.18-.33-.26-1.04-1.61-2.16-3.14-3.36-4.58-.04-.23-.06-.46-.06-.69v-.69c3.12,3.17,6.52,5.92,10.23,8.22,3.89,3.35,7.14,5.97,9.79,7.89-.33,.3-.66,.61-.97,.97,0,1.38-3.23,3.77-9.68,7.16-6.82,6.46-11.4,9.85-13.74,10.16h-.62Zm61.36,3.46c0,.15-2.29,.54-6.87,1.15-2.71,0-4.06,1.38-4.06,4.15-4.84,.96-8.38,2.42-10.62,4.39v.23c0,2.15,3.12,3.54,9.37,4.15,1.35-.15,2.71-.23,4.06-.23h.62c1.87,0,2.81,.77,2.81,2.31v.46c-1.25,2.31-2.6,5.39-4.06,9.23l-3.12,8.31c0,.16,.21,1.92,.62,5.31v.46c-1.46,3.43-2.19,5.81-2.19,7.16v3.69c-.42,2.16-1.46,3.23-3.12,3.23-.49,.14-2.08,.4-4.75,.79-5.29-6.01-9.81-11.44-13.52-16.26-2.65-2.31-5.05-5-7.18-8.08-5.05-4.15-7.86-7.85-8.43-11.08l.31-1.62c0-2.42,1.87-4.5,5.62-6.23,2.55-3.81,4.53-6.04,5.93-6.69,2.97-3.15,5.46-5.15,7.49-6,1.92-2.19,5.15-5.12,9.68-8.77,0-.27-.21-.42-.62-.46-.31,0-1.77,.46-4.37,1.39v-.23c0-.81,1.77-2.96,5.31-6.46,.99-.67,1.92-1.31,2.81-1.92,3.46,.67,11,1.92,22.64,3.77-1.4,9.23-2.86,13.85-4.37,13.85Zm5.31-26.78h-1.25l-10-.49c.05-.07,.12-.14,.16-.2,8.33-5.73,12.49-9.19,12.49-10.39h-.62c-3.45,0-9.84,3.42-19.15,10.24l-1.23-.06c.2-.41,.53-.94,1.01-1.63,3.95-3.27,5.93-5.04,5.93-5.31v-.23c-1.67,0-3.33,.69-5,2.08-6.69,3.31-12.88,7.57-18.55,12.76-.11-.27-.26-.56-.42-.87l1.17-2.43c0-.15-.31-.31-.94-.46-.7,0-1.37,.09-2.01,.26-1.15-1.49-2.68-3.21-4.63-5.2-10.41-8.62-15.61-13.23-15.61-13.85-5.46-4.35-8.27-7.27-8.43-8.77l-6.29-6.5c.02-.06,.04-.12,.06-.17,6.16-1.35,10.93-2.04,14.27-2.04,1.56,0,4.37-.92,8.43-2.77,2.34-1.23,5.26-2.23,8.74-3h4.37l.62,.23c-4.27,2.04-8.12,3.66-11.55,4.85-3.85,.23-7.91,1.31-12.18,3.23v.23c0,.31,.21,.46,.62,.46,1.25,0,2.81-.23,4.68-.69v-.23h-1.87v-.46c1.35-.92,3.33-1.38,5.93-1.38v.46l-.31,.46c14-3.85,21.28-5.77,21.86-5.77,5.57-1.08,8.79-1.62,9.68-1.62,2.86-1.85,4.94-2.77,6.25-2.77,4.84-2.31,8.48-3.69,10.93-4.16,3.33-3.08,5.2-4.62,5.62-4.62l8.84-6.84c5.06-1.85,9.69-3.36,13.88-4.53h.31v.69c-5.46,2.31-8.38,3.92-8.74,4.85v.23h.31c5.41-1.54,8.43-2.31,9.06-2.31v.23l-6.25,14.31c-.42,3.5-1.25,5.89-2.5,7.15,.21,.85,.31,1.54,.31,2.08v.23c-.88,5.39-1.72,8.08-2.5,8.08-.62,4.31-1.35,8.23-2.19,11.77v2.54c0,.31,.21,.46,.62,.46h.31c2.65-9.69,5.05-14.54,7.18-14.54,1.56-3.54,2.6-5.39,3.12-5.54h.31c-2.71,7.43-4.06,12.66-4.06,15.7-1.45,5.78-2.48,10.01-3.08,12.71-.2-.13-.39-.25-.59-.38h-.94c-2.71,1.23-4.27,1.85-4.68,1.85-1.51,0-3.59-.38-6.25-1.15-.99,0-2.76,1.08-5.31,3.23Zm39.66,75.48h-2.5l-.63-.23c-2.08,.35-3.12,.58-3.12,.69-4.27,0-12.18,.85-23.73,2.54-1.46-.31-2.6-.46-3.43-.46v-.92c.52-.54,.94-1.15,1.25-1.85-.62-1.23-.94-2.38-.94-3.46,1.04-2.77,1.56-4.85,1.56-6.23,0-1.04,1.14-3.96,3.43-8.77-.21-1.12-.31-1.73-.31-1.85,1.25-3.85,1.87-6.08,1.87-6.69v-3.92c0-1.54,3.12-2.62,9.37-3.23,6.25-2,11.03-3,14.36-3,1.67,0,4.16-.46,7.49-1.38h10.3c1.14,0,2.71-.23,4.68-.69v-.23c0-.27-.21-.42-.62-.46-4.84,0-9.42-.08-13.74-.23-1.98,.16-3.96,.23-5.93,.23v-.46c2.08,0,6.14-.61,12.18-1.85,9.1-.62,15.82-1.19,20.18-1.71-.77,9.49-1.64,16.2-2.62,20.11,.21,3.39,.31,5.62,.31,6.69-1.04,4.27-1.56,7.5-1.56,9.69,0,1.9,.16,3.85,.44,5.86-1.66-.02-2.98-.03-3.96-.03-2.34,0-10.46,.62-24.36,1.85Zm11.87,3.69h-.31v-.23c0-.27,1.04-.58,3.12-.92,5.83-.35,9.58-.73,11.24-1.15,.92-.2,1.88-.38,2.85-.55,.12,.6,.25,1.21,.39,1.81-7.6,.32-13.37,.67-17.29,1.05Zm47.85,18.87h-1.56c-2.86-1.38-4.39-4.72-4.64-9.96,1.92,.09,4.06,.2,6.43,.32h7.34c-.63,1.46-1.18,2.83-1.65,4.1-1.25,2.62-3.23,4.46-5.93,5.54Zm19.36-39.01c-1.04,3.62-1.56,5.77-1.56,6.46-2.5,5.31-3.75,8.54-3.75,9.69-2.22,4.14-4.06,7.84-5.55,11.12-5.62-.99-10.53-1.72-14.73-2.17,.02-.65,.1-1.41,.27-2.28,1.32-.05,2.75-.1,4.32-.15h.31l2.19-.23v-.69c-2.09-.42-4.2-.79-6.33-1.11,.14-.55,.29-1.11,.47-1.72,.83-11.2,2.29-19.35,4.37-24.47l-1.56-4.16c1.46-8.54,2.19-13.23,2.19-14.08,2.08-4.89,3.12-7.73,3.12-8.54v-3.23c3.33-2.92,5-4.92,5-6v-.92c-2.08-2.46-3.12-3.85-3.12-4.15,2.19-2,3.75-3.69,4.68-5.08-.36-2-.89-3.23-1.56-3.69-2.96-1.85-4.73-3.39-5.35-4.62,1.22-.31,1.84-.52,1.84-.63v-.23c-.31-.46-.62-.69-.94-.69h-.31c-.27,0-.56,0-.86,.02v-.31c0-.19,.63-1.73,1.87-4.62v-.69c0-.16-1.05-.39-3.11-.69,1.53-6.94,3.13-12.29,4.83-16.02,1.09-4.43,2.24-7.96,3.43-10.62,1.04-4.81,2.5-8.27,4.37-10.39h.62v1.62c0,.65-.31,1.5-.94,2.54,.16,1.23,.47,1.85,.94,1.85,1.72,0,3.07-3.31,4.06-9.93,4.16-9.62,7.18-18.31,9.06-26.08,3.95-4.85,5.93-7.46,5.93-7.85,0-3.04,3.23-5.19,9.68-6.46h.94c0,.89,.63,3.35,1.87,7.39,4.79,10.47,10.62,23.85,17.49,40.17,.83,6.93,2.08,11.23,3.75,12.93,.73,2.08,1.37,3.7,1.93,4.93-5.39,10.44-9.84,19.31-13.33,26.56-.61,1.3-1.19,2.5-1.74,3.62-.85,.35-1.71,.74-2.56,1.17,1.2-2.8,1.8-4.4,1.8-4.79v-.69h-.31c-.52,1.54-1.04,2.31-1.56,2.31h-.31c.94-3.54,1.67-5.31,2.19-5.31h.31v2.31h.31c1.04-2.04,1.56-3.19,1.56-3.46,.73-2,1.56-5.15,2.5-9.46v-.23l-.31-.46c-.21,0-.73,.46-1.56,1.38-1.77,5.23-3.54,9.39-5.31,12.47-.83,4.39-2.29,7.39-4.37,9h0c-1.38,.98-2.76,2.05-4.13,3.23v.46c1.09,0,1.93-.38,2.5-1.15,.32-.24,.66-.47,1-.7-.48,1.3-1,2.47-1.53,3.54-3.17,1.3-4.78,2.06-4.78,2.24-.27,.12-.56,.27-.84,.41,.2-.47,.4-.92,.61-1.33v-.23c0-.27-.21-.42-.62-.46-1.09,.69-2.2,1.98-3.36,3.85-2.79,1.65-5.96,3.82-9.53,6.54,0,.31-2.6,3-7.81,8.08,0,.77,.42,1.23,1.25,1.39,.68,0,1.82-.85,3.44-2.54,0-1.3,3.21-3.75,9.6-7.34-.36,.86-.72,1.76-1.09,2.73-.57,5.19-1.93,9.27-4.06,12.23-.73,3.77-3.33,9.93-7.81,18.47Zm2.42-26.78v.69c-.73,.92-1.25,1.38-1.56,1.38h-.94c0-.61,.73-1.31,2.19-2.08h.31Zm23.13,40.16c.25-.85,.58-1.86,.99-3.02,.35,.02,.74,.03,1.18,.03h.31c2.34-1.12,5.36-1.96,9.06-2.54h1.25c0,2.07-4.26,3.92-12.78,5.54Zm40.26-63.24c0,1.62-.42,3.69-1.25,6.23-3.96,8.27-5.93,12.97-5.93,14.08-3.12,5.96-4.68,11.81-4.68,17.54v.23l-1.25,2.31c0,1.92-2.39,3.69-7.18,5.31,0,.23,.1,1.31,.31,3.23-1.93,2.92-4.22,4.39-6.87,4.39-1.48,0-5.33,1.49-11.54,4.47,1.77-4.78,4.5-11.5,8.19-20.17l-.62-.23h-.31c-1.04,.54-1.87,1.38-2.5,2.54h-.94v-.46c2.5-4.58,5.1-11.2,7.81-19.85,1.78-4.66,3.41-9.21,4.9-13.66,5.47-3.05,12.03-5.58,19.69-7.58h1.25c.62,.12,.94,.58,.94,1.38v.23Zm-2.22-18.83l-1.3-3.42c-.07-1.89-.17-3.52-.3-4.94,.28-.92,.56-1.79,.84-2.62,.64,1.56,1.49,2.93,2.58,4.09,0,.49,.71,2.43,2.11,5.78-1.23,.33-2.54,.7-3.94,1.11Zm54.05,21.6c0,3.43-3.12,8.19-9.37,14.31-1.51,3.39-5.47,6.62-11.87,9.7-4.06,3.31-9.68,6.15-16.86,8.54h-1.25c-.36,0-.57-.15-.63-.46v-1.39c0-1.85,1.46-7.15,4.37-15.93-.63-.88-.94-1.58-.94-2.08l4.06-12.7c0-2.88,1.14-4.89,3.44-6,2.5,0,4.68-.92,6.56-2.77,0-1.54,3.85-3,11.55-4.39,3.9,0,7.44,1.08,10.62,3.23,.21,3.92,.31,6.54,.31,7.85v2.08Zm15.54-28.2c-.88,3.53-1.61,6.47-2.18,8.85-1.11-.49-2.33-.97-3.68-1.43-5.36-3.85-13.69-5.77-24.98-5.77-.62,0-4.68,.69-12.18,2.08-1.46,0-3.02-.23-4.68-.69-.36,.15-.78,.23-1.25,.23h-1.87c-.62,0-1.46-.23-2.5-.69-.62,.35-.94,.58-.94,.69-.9,0-2.11,.14-3.6,.4,.05-.07,.09-.15,.09-.26v-.23c0-1.54-.21-2.31-.62-2.31-1.72-8.66-3.07-13.97-4.06-15.93,0-2.88-.54-5.75-1.59-8.6,.87-2.56,1.92-4.55,3.16-5.94h.62v1.62c0,.65-.31,1.5-.94,2.54,.16,1.23,.47,1.85,.94,1.85,1.72,0,3.07-3.31,4.06-9.93,4.16-9.62,7.18-18.31,9.06-26.08,3.95-4.85,5.93-7.46,5.93-7.85,0-3.04,3.23-5.19,9.68-6.46h.94c0,.89,.63,3.35,1.87,7.39,2.84,6.21,6.05,13.46,9.63,21.73-.6,.24-1.2,.48-1.82,.72-10.93,5.42-17.8,8.73-20.61,9.93v.46h.62c1.56,0,6.04-1.85,13.43-5.54,3.51-1.24,6.63-2.33,9.37-3.27,.43,1.01,.87,2.03,1.32,3.07l-2.57,1.35v.23h.94c.67-.27,1.32-.52,1.98-.78,1.66,3.89,3.4,7.97,5.21,12.27,.83,6.93,2.08,11.23,3.75,12.93,.72,2.04,1.35,3.66,1.9,4.88-.56,3.59-1.19,6.92-1.9,9.95v2.54c0,.31,.21,.46,.62,.46h.31c2.65-9.69,5.05-14.54,7.18-14.54,.02-.04,.03-.07,.05-.1,.33,.74,.64,1.45,.89,2.08-1.04,3.57-1.56,6.3-1.56,8.18Zm14.05-25.85h.31v.23c0,.35-.17,1.15-.5,2.39-.17-.5-.36-1-.57-1.49,.34-.68,.59-1.06,.76-1.12Zm37.78-44.32v.23l-.94,.92c-3.64,.62-9.26,1.85-16.86,3.69-.36,0-.57-.15-.62-.46,0-3.85,1.04-8,3.12-12.46,.73-6.31,1.56-9.46,2.5-9.46l2.5-7.39c2.29-.42,3.44-1.12,3.44-2.08h2.19c3.44,0,5.41,6.77,5.93,20.31-.83,3.04-1.25,5.27-1.25,6.69Zm7.81,42.7c0,.31-.21,.46-.62,.46h-.31v-.69l.31-.46c.42,0,.62,.15,.62,.46v.23Zm20.3-1.62h.31c.42,0,.62,.15,.62,.46s-.21,.46-.62,.46h-.31v-.92Z"/>
</svg>
